<svg width="24" height="24" viewBox="0 0 24 24" fill="none" xmlns="http://www.w3.org/2000/svg">
<path d="M13.8501 16.64C14.3301 16.54 14.7701 16.47 15.2001 16.35C17.1101 15.83 18.1801 14.51 18.3301 12.53C18.3801 11.94 18.4001 11.35 18.2501 10.76C18.1101 10.19 17.8501 9.68003 17.4701 9.23003C17.3701 9.12003 17.3501 9.03003 17.3901 8.87003C17.6201 8.09003 17.5601 7.32003 17.2701 6.57003C17.2401 6.50003 17.1101 6.42003 17.0201 6.42003C16.5401 6.42003 16.1001 6.57003 15.6801 6.77003C15.3201 6.95003 14.9801 7.16003 14.6201 7.35003C14.5301 7.40003 14.4101 7.42003 14.3201 7.40003C12.7601 7.02003 11.2001 7.02003 9.64006 7.40003C9.54006 7.42003 9.41006 7.40003 9.32006 7.34003C8.66006 6.94003 8.00006 6.56003 7.22006 6.43003C6.76006 6.35003 6.71006 6.38003 6.59006 6.82003C6.39006 7.52003 6.36006 8.22003 6.57006 8.92003C6.59006 8.99003 6.57006 9.11003 6.51006 9.17003C5.77006 10.05 5.52006 11.07 5.60006 12.2C5.65006 12.89 5.76006 13.57 6.06006 14.2C6.61006 15.4 7.60006 16.05 8.84006 16.37C9.18006 16.46 9.54006 16.51 9.89006 16.57C9.96006 16.58 10.0201 16.6 10.1201 16.62C9.78006 16.98 9.61006 17.39 9.52006 17.84C9.51006 17.9 9.43006 17.96 9.37006 17.99C8.25006 18.46 7.27006 18.15 6.62006 17.13C6.30006 16.62 5.88006 16.24 5.27006 16.12C5.13006 16.09 4.99006 16.1 4.85006 16.12C4.77006 16.13 4.66006 16.19 4.65006 16.25C4.64006 16.33 4.70006 16.42 4.75006 16.49C4.80006 16.56 4.88006 16.61 4.95006 16.66C5.49006 16.98 5.83006 17.46 6.05006 18.02C6.43006 18.94 7.15006 19.36 8.09006 19.42C8.54006 19.45 8.99006 19.39 9.46006 19.37C9.46006 19.42 9.46006 19.5 9.46006 19.58C9.46006 20.06 9.46006 20.55 9.46006 21.03C9.46006 21.55 9.17006 21.77 8.68006 21.6C6.59006 20.87 4.89006 19.61 3.66006 17.77C-0.28994 11.81 3.09006 3.88003 10.0901 2.52003C15.3901 1.50003 20.4701 4.77003 21.7301 9.98003C22.9101 14.88 20.0401 20.03 15.2501 21.6C14.7701 21.76 14.4801 21.55 14.4801 21.04C14.4801 20.25 14.4801 19.46 14.4801 18.67C14.4801 17.93 14.3901 17.22 13.8401 16.63L13.8501 16.64Z" fill="#4A4459"/>
</svg>
