<svg width="24" height="24" viewBox="0 0 24 24" fill="none" xmlns="http://www.w3.org/2000/svg">
<path d="M12.73 10.75C13.13 10.15 13.68 9.72997 14.32 9.41997C15.36 8.90997 16.46 8.72997 17.61 8.82997C18.21 8.87997 18.79 8.97997 19.36 9.18997C20.48 9.60997 21.18 10.41 21.56 11.53C21.87 12.43 21.98 13.37 21.98 14.31C21.99 16.78 21.99 19.25 22 21.73C22 21.79 22 21.85 22 21.91C21.99 21.95 21.94 21.99 21.9 22.01C21.86 22.03 21.8 22.01 21.76 22.01C20.61 22.01 19.45 22.01 18.3 22.01C18.06 22.01 18.06 22.01 18.06 21.77C18.06 19.66 18.06 17.55 18.06 15.44C18.06 14.84 17.98 14.26 17.75 13.7C17.47 13.02 17.03 12.49 16.27 12.34C15.08 12.1 13.67 12.55 13.17 14.07C12.98 14.65 12.92 15.24 12.92 15.83C12.92 17.81 12.92 19.79 12.92 21.78C12.92 22.02 12.92 22.02 12.68 22.02C11.53 22.02 10.37 22.02 9.21998 22.02C8.97998 22.02 8.97998 22.02 8.97998 21.77C8.97998 17.59 8.97998 13.41 8.97998 9.22997C8.97998 9.06331 9.06331 8.97997 9.22998 8.97997C10.32 8.97997 11.41 8.97997 12.49 8.97997C12.66 8.97997 12.7 9.02997 12.7 9.18997C12.7 9.64997 12.7 10.12 12.7 10.58C12.7 10.64 12.7 10.7 12.7 10.75H12.74H12.73Z" fill="#4A4459"/>
<path d="M6.42998 15.49C6.42998 17.58 6.42998 19.67 6.42998 21.76C6.42998 22 6.42998 22 6.18998 22C5.03998 22 3.87998 22 2.72998 22C2.47998 22 2.47998 22 2.47998 21.75C2.47998 17.57 2.47998 13.4 2.47998 9.21997C2.47998 8.96997 2.47998 8.96997 2.72998 8.96997C3.88998 8.96997 5.05998 8.96997 6.21998 8.96997C6.42998 8.96997 6.42998 8.96997 6.42998 9.18997C6.42998 11.29 6.42998 13.39 6.42998 15.49Z" fill="#4A4459"/>
<path d="M6.92001 4.46001C6.92001 5.82001 5.82001 6.93001 4.47001 6.92001C3.06001 6.91001 2.01001 5.84001 2.01001 4.46001C2.01001 3.09001 3.07001 2.02001 4.45001 2.01001C5.82001 2.01001 6.89001 3.05001 6.92001 4.47001V4.46001Z" fill="#4A4459"/>
</svg>
