<svg width="24" height="24" viewBox="0 0 24 24" fill="none" xmlns="http://www.w3.org/2000/svg">
<path d="M2 14.16C2 12.72 2 11.29 2 9.84999C2.01 9.43999 2.02 9.02999 2.03 8.61999C2.04 7.89999 2.08 7.18999 2.23 6.47999C2.66 4.38999 3.9 3.00999 5.94 2.35999C6.82 2.07999 7.73 2.00999 8.65 1.99999C10.88 1.98999 13.11 1.99999 15.34 1.99999C16.11 1.99999 16.88 2.05999 17.64 2.21999C19.16 2.54999 20.34 3.34999 21.13 4.70999C21.7 5.69999 21.96 6.78999 21.98 7.90999C22.01 10.36 22.01 12.81 22.01 15.26C22.01 16.03 21.96 16.8 21.8 17.56C21.37 19.56 20.18 20.89 18.26 21.56C17.32 21.89 16.35 21.96 15.36 21.97C13.8 21.98 12.24 21.99 10.68 21.98C9.61 21.98 8.54 21.96 7.48 21.9C6.59 21.85 5.72 21.64 4.93 21.21C3.48 20.43 2.65 19.17 2.28 17.59C2.1 16.84 2.06 16.09 2.05 15.32C2.05 14.93 2.03 14.53 2.02 14.14L2 14.16ZM20.25 11.67C20.25 11.01 20.25 10.35 20.25 9.69999C20.24 8.77999 20.22 7.85999 20.06 6.94999C19.81 5.48999 18.85 4.27999 17.23 3.99999C16.34 3.84999 15.45 3.78999 14.55 3.77999C12.99 3.76999 11.43 3.76999 9.87 3.77999C8.89 3.77999 7.91 3.79999 6.94 3.97999C5.63 4.21999 4.42 5.06999 4.09 6.57999C3.9 7.41999 3.85 8.27999 3.84 9.13999C3.82 10.98 3.81 12.81 3.82 14.65C3.82 15.57 3.86 16.49 4.09 17.39C4.42 18.65 5.15 19.52 6.41 19.9C7.25 20.15 8.13 20.2 9 20.22C10.73 20.25 12.45 20.24 14.18 20.24C15.17 20.24 16.16 20.22 17.14 20.04C18.58 19.78 19.76 18.82 20.04 17.23C20.21 16.25 20.26 15.26 20.27 14.27C20.28 13.41 20.27 12.55 20.27 11.69L20.25 11.67Z" fill="#4A4459"/>
<path d="M11.9699 17.14C9.28995 17.19 6.81995 14.96 6.81995 11.99C6.81995 9.36001 8.97995 6.86001 11.9799 6.85001C14.9299 6.84001 17.1499 9.30001 17.1199 12.01C17.0899 14.89 14.8399 17.15 11.9699 17.15V17.14ZM11.9799 8.64001C10.0899 8.64001 8.62995 10.1 8.59995 11.98C8.55995 13.89 10.2399 15.34 11.9499 15.33C13.8199 15.32 15.3299 13.85 15.3399 12.01C15.3399 10.14 13.8499 8.65001 11.9799 8.65001V8.64001Z" fill="#4A4459"/>
<path d="M17.34 7.83002C16.71 7.83002 16.13 7.25002 16.13 6.62002C16.13 5.98002 16.72 5.40002 17.35 5.40002C17.98 5.40002 18.56 5.99002 18.56 6.62002C18.56 7.24002 17.97 7.83002 17.34 7.83002Z" fill="#4A4459"/>
</svg>
