<svg width="24" height="24" viewBox="0 0 24 24" fill="none" xmlns="http://www.w3.org/2000/svg">
<path d="M17.7801 15.53C18.8001 16.61 19.7901 17.65 20.7901 18.7C18.4901 21.42 14.1701 22.84 9.89006 21.46C5.99006 20.21 3.32006 16.52 3.23006 12.23C3.13006 7.70002 5.53006 4.08002 9.59006 2.60002C13.5101 1.17002 18.4701 2.37002 20.7901 5.26002C19.7701 6.28002 18.7601 7.30002 17.7001 8.37002C16.2101 6.83002 14.3601 6.17002 12.2001 6.50002C10.8101 6.71002 9.64006 7.34002 8.76006 8.45002C7.06006 10.6 7.30006 14.08 9.26006 16.03C11.0001 17.77 14.8401 18.58 17.8001 15.52L17.7801 15.53Z" fill="#4A4459"/>
<path d="M13.0701 8.66998C14.9401 8.66998 16.4401 10.17 16.4101 12.02C16.3801 13.85 14.8901 15.32 13.0601 15.32C11.2001 15.32 9.70006 13.8 9.73006 11.96C9.76006 10.11 11.2201 8.66998 13.0701 8.67998V8.66998Z" fill="#4A4459"/>
</svg>
