<svg width="25" height="24" viewBox="0 0 25 24" fill="none" xmlns="http://www.w3.org/2000/svg">
<mask id="mask0_55670_27919" style="mask-type:alpha" maskUnits="userSpaceOnUse" x="0" y="0" width="25" height="24">
<rect x="0.666626" width="24" height="24" fill="#D9D9D9"/>
</mask>
<g mask="url(#mask0_55670_27919)">
<path d="M12.6666 21C10.1666 21 8.04163 20.125 6.29163 18.375C4.54163 16.625 3.66663 14.5 3.66663 12C3.66663 9.5 4.54163 7.375 6.29163 5.625C8.04163 3.875 10.1666 3 12.6666 3C12.9 3 13.1291 3.00833 13.3541 3.025C13.5791 3.04167 13.8 3.06667 14.0166 3.1C13.3333 3.58333 12.7875 4.2125 12.3791 4.9875C11.9708 5.7625 11.7666 6.6 11.7666 7.5C11.7666 9 12.2916 10.275 13.3416 11.325C14.3916 12.375 15.6666 12.9 17.1666 12.9C18.0833 12.9 18.925 12.6958 19.6916 12.2875C20.4583 11.8792 21.0833 11.3333 21.5666 10.65C21.6 10.8667 21.625 11.0875 21.6416 11.3125C21.6583 11.5375 21.6666 11.7667 21.6666 12C21.6666 14.5 20.7916 16.625 19.0416 18.375C17.2916 20.125 15.1666 21 12.6666 21ZM12.6666 19C14.1333 19 15.45 18.5958 16.6166 17.7875C17.7833 16.9792 18.6333 15.925 19.1666 14.625C18.8333 14.7083 18.5 14.775 18.1666 14.825C17.8333 14.875 17.5 14.9 17.1666 14.9C15.1166 14.9 13.3708 14.1792 11.9291 12.7375C10.4875 11.2958 9.76663 9.55 9.76663 7.5C9.76663 7.16667 9.79163 6.83333 9.84163 6.5C9.89163 6.16667 9.95829 5.83333 10.0416 5.5C8.74163 6.03333 7.68746 6.88333 6.87913 8.05C6.07079 9.21667 5.66663 10.5333 5.66663 12C5.66663 13.9333 6.34996 15.5833 7.71663 16.95C9.08329 18.3167 10.7333 19 12.6666 19Z" fill="#49454F"/>
</g>
</svg>
