<svg width="350" height="54" viewBox="0 0 350 54" fill="none" xmlns="http://www.w3.org/2000/svg">
<g filter="url(#filter0_d_56029_2814)">
<rect x="3" y="2" width="344" height="48" rx="4" fill="#322F35"/>
<path d="M25.46 26.4844C25.46 26.252 25.4235 26.0469 25.3506 25.8691C25.2822 25.6868 25.1592 25.5228 24.9814 25.377C24.8083 25.2311 24.5667 25.0921 24.2568 24.96C23.9515 24.8278 23.5641 24.6934 23.0947 24.5566C22.6025 24.4108 22.1582 24.249 21.7617 24.0713C21.3652 23.889 21.0257 23.6816 20.7432 23.4492C20.4606 23.2168 20.2441 22.9502 20.0938 22.6494C19.9434 22.3486 19.8682 22.0046 19.8682 21.6172C19.8682 21.2298 19.9479 20.8721 20.1074 20.5439C20.2669 20.2158 20.4948 19.931 20.791 19.6895C21.0918 19.4434 21.4495 19.252 21.8643 19.1152C22.279 18.9785 22.7415 18.9102 23.252 18.9102C23.9993 18.9102 24.6328 19.0537 25.1523 19.3408C25.6764 19.6234 26.0752 19.9948 26.3486 20.4551C26.6221 20.9108 26.7588 21.3984 26.7588 21.918H25.4463C25.4463 21.5443 25.3665 21.2139 25.207 20.9268C25.0475 20.6351 24.806 20.4072 24.4824 20.2432C24.1589 20.0745 23.7487 19.9902 23.252 19.9902C22.7826 19.9902 22.3952 20.0609 22.0898 20.2021C21.7845 20.3434 21.5566 20.5348 21.4062 20.7764C21.2604 21.0179 21.1875 21.2936 21.1875 21.6035C21.1875 21.8132 21.2308 22.0046 21.3174 22.1777C21.4085 22.3464 21.5475 22.5036 21.7344 22.6494C21.9258 22.7952 22.1673 22.9297 22.459 23.0527C22.7552 23.1758 23.1084 23.2943 23.5186 23.4082C24.0837 23.5677 24.5713 23.7454 24.9814 23.9414C25.3916 24.1374 25.7288 24.3584 25.9932 24.6045C26.262 24.846 26.4603 25.1217 26.5879 25.4316C26.7201 25.737 26.7861 26.0833 26.7861 26.4707C26.7861 26.8763 26.7041 27.2432 26.54 27.5713C26.376 27.8994 26.1413 28.1797 25.8359 28.4121C25.5306 28.6445 25.1637 28.8245 24.7354 28.9521C24.3115 29.0752 23.8376 29.1367 23.3135 29.1367C22.8532 29.1367 22.3997 29.0729 21.9531 28.9453C21.5111 28.8177 21.1077 28.6263 20.7432 28.3711C20.3831 28.1159 20.0938 27.8014 19.875 27.4277C19.6608 27.0495 19.5537 26.612 19.5537 26.1152H20.8662C20.8662 26.457 20.9323 26.751 21.0645 26.9971C21.1966 27.2386 21.3766 27.4391 21.6045 27.5986C21.8369 27.7581 22.099 27.8766 22.3906 27.9541C22.6868 28.027 22.9945 28.0635 23.3135 28.0635C23.7738 28.0635 24.1634 27.9997 24.4824 27.8721C24.8014 27.7445 25.043 27.5622 25.207 27.3252C25.3757 27.0882 25.46 26.8079 25.46 26.4844ZM29.6504 21.6035V29H28.3789V21.6035H29.6504ZM28.2832 19.6416C28.2832 19.4365 28.3447 19.2633 28.4678 19.1221C28.5954 18.9808 28.7822 18.9102 29.0283 18.9102C29.2699 18.9102 29.4544 18.9808 29.582 19.1221C29.7142 19.2633 29.7803 19.4365 29.7803 19.6416C29.7803 19.8376 29.7142 20.0062 29.582 20.1475C29.4544 20.2842 29.2699 20.3525 29.0283 20.3525C28.7822 20.3525 28.5954 20.2842 28.4678 20.1475C28.3447 20.0062 28.2832 19.8376 28.2832 19.6416ZM32.9453 23.1826V29H31.6807V21.6035H32.877L32.9453 23.1826ZM32.6445 25.0215L32.1182 25.001C32.1227 24.4951 32.1979 24.028 32.3438 23.5996C32.4896 23.1667 32.6947 22.7907 32.959 22.4717C33.2233 22.1527 33.5378 21.9066 33.9023 21.7334C34.2715 21.5557 34.6794 21.4668 35.126 21.4668C35.4906 21.4668 35.8187 21.5169 36.1104 21.6172C36.402 21.7129 36.6504 21.8678 36.8555 22.082C37.0651 22.2962 37.2246 22.5742 37.334 22.916C37.4434 23.2533 37.498 23.6657 37.498 24.1533V29H36.2266V24.1396C36.2266 23.7523 36.1696 23.4424 36.0557 23.21C35.9417 22.973 35.7754 22.8021 35.5566 22.6973C35.3379 22.5879 35.069 22.5332 34.75 22.5332C34.4355 22.5332 34.1484 22.5993 33.8887 22.7314C33.6335 22.8636 33.4124 23.0459 33.2256 23.2783C33.0433 23.5107 32.8997 23.7773 32.7949 24.0781C32.6947 24.3743 32.6445 24.6888 32.6445 25.0215ZM44.2109 21.6035H45.3594V28.8428C45.3594 29.4945 45.2272 30.0505 44.9629 30.5107C44.6986 30.971 44.3294 31.3197 43.8555 31.5566C43.3861 31.7982 42.8438 31.9189 42.2285 31.9189C41.9733 31.9189 41.6725 31.8779 41.3262 31.7959C40.9844 31.7184 40.6471 31.584 40.3145 31.3926C39.9863 31.2057 39.7106 30.9528 39.4873 30.6338L40.1504 29.8818C40.4603 30.2555 40.7839 30.5153 41.1211 30.6611C41.4629 30.807 41.8001 30.8799 42.1328 30.8799C42.5339 30.8799 42.8802 30.8047 43.1719 30.6543C43.4635 30.5039 43.6891 30.2806 43.8486 29.9844C44.0127 29.6927 44.0947 29.3327 44.0947 28.9043V23.2305L44.2109 21.6035ZM39.1182 25.3838V25.2402C39.1182 24.6751 39.1842 24.1624 39.3164 23.7021C39.4531 23.2373 39.6468 22.8385 39.8975 22.5059C40.1527 22.1732 40.4603 21.918 40.8203 21.7402C41.1803 21.5579 41.5859 21.4668 42.0371 21.4668C42.502 21.4668 42.9076 21.5488 43.2539 21.7129C43.6048 21.8724 43.901 22.1071 44.1426 22.417C44.3887 22.7223 44.5824 23.0915 44.7236 23.5244C44.8649 23.9574 44.9629 24.4473 45.0176 24.9941V25.623C44.9674 26.1654 44.8695 26.653 44.7236 27.0859C44.5824 27.5189 44.3887 27.888 44.1426 28.1934C43.901 28.4987 43.6048 28.7334 43.2539 28.8975C42.903 29.057 42.4928 29.1367 42.0234 29.1367C41.5814 29.1367 41.1803 29.0433 40.8203 28.8564C40.4648 28.6696 40.1595 28.4076 39.9043 28.0703C39.6491 27.7331 39.4531 27.3366 39.3164 26.8809C39.1842 26.4206 39.1182 25.9215 39.1182 25.3838ZM40.3828 25.2402V25.3838C40.3828 25.7529 40.4193 26.0993 40.4922 26.4229C40.5697 26.7464 40.6859 27.0312 40.8408 27.2773C41.0003 27.5234 41.2031 27.7171 41.4492 27.8584C41.6953 27.9951 41.9893 28.0635 42.3311 28.0635C42.7503 28.0635 43.0967 27.9746 43.3701 27.7969C43.6436 27.6191 43.86 27.3844 44.0195 27.0928C44.1836 26.8011 44.3112 26.4844 44.4023 26.1426V24.4951C44.3522 24.2445 44.2747 24.0029 44.1699 23.7705C44.0697 23.5335 43.9375 23.3239 43.7734 23.1416C43.6139 22.9548 43.4157 22.8066 43.1787 22.6973C42.9417 22.5879 42.6637 22.5332 42.3447 22.5332C41.9984 22.5332 41.6999 22.6061 41.4492 22.752C41.2031 22.8932 41.0003 23.0892 40.8408 23.3398C40.6859 23.5859 40.5697 23.873 40.4922 24.2012C40.4193 24.5247 40.3828 24.8711 40.3828 25.2402ZM48.6543 18.5V29H47.3828V18.5H48.6543ZM53.7539 29.1367C53.2389 29.1367 52.7718 29.0501 52.3525 28.877C51.9378 28.6992 51.5801 28.4508 51.2793 28.1318C50.9831 27.8128 50.7552 27.4346 50.5957 26.9971C50.4362 26.5596 50.3564 26.0811 50.3564 25.5615V25.2744C50.3564 24.6729 50.4453 24.1374 50.623 23.668C50.8008 23.194 51.0423 22.793 51.3477 22.4648C51.653 22.1367 51.9993 21.8883 52.3867 21.7197C52.7741 21.5511 53.1751 21.4668 53.5898 21.4668C54.1185 21.4668 54.5742 21.5579 54.957 21.7402C55.3444 21.9225 55.6611 22.1777 55.9072 22.5059C56.1533 22.8294 56.3356 23.2122 56.4541 23.6543C56.5726 24.0918 56.6318 24.5703 56.6318 25.0898V25.6572H51.1084V24.625H55.3672V24.5293C55.349 24.2012 55.2806 23.8822 55.1621 23.5723C55.0482 23.2624 54.8659 23.0072 54.6152 22.8066C54.3646 22.6061 54.0228 22.5059 53.5898 22.5059C53.3027 22.5059 53.0384 22.5674 52.7969 22.6904C52.5553 22.8089 52.348 22.9867 52.1748 23.2236C52.0016 23.4606 51.8672 23.75 51.7715 24.0918C51.6758 24.4336 51.6279 24.8278 51.6279 25.2744V25.5615C51.6279 25.9124 51.6758 26.2428 51.7715 26.5527C51.8717 26.8581 52.0153 27.127 52.2021 27.3594C52.3936 27.5918 52.6237 27.7741 52.8926 27.9062C53.166 28.0384 53.4759 28.1045 53.8223 28.1045C54.2689 28.1045 54.6471 28.0133 54.957 27.8311C55.2669 27.6488 55.5381 27.4049 55.7705 27.0996L56.5361 27.708C56.3766 27.9495 56.1738 28.1797 55.9277 28.3984C55.6816 28.6172 55.3786 28.7949 55.0186 28.9316C54.6631 29.0684 54.2415 29.1367 53.7539 29.1367ZM60.7402 24.249V25.2881H57.4043V24.249H60.7402ZM63.3516 18.5V29H62.0801V18.5H63.3516ZM66.7559 21.6035V29H65.4844V21.6035H66.7559ZM65.3887 19.6416C65.3887 19.4365 65.4502 19.2633 65.5732 19.1221C65.7008 18.9808 65.8877 18.9102 66.1338 18.9102C66.3753 18.9102 66.5599 18.9808 66.6875 19.1221C66.8197 19.2633 66.8857 19.4365 66.8857 19.6416C66.8857 19.8376 66.8197 20.0062 66.6875 20.1475C66.5599 20.2842 66.3753 20.3525 66.1338 20.3525C65.8877 20.3525 65.7008 20.2842 65.5732 20.1475C65.4502 20.0062 65.3887 19.8376 65.3887 19.6416ZM70.0508 23.1826V29H68.7861V21.6035H69.9824L70.0508 23.1826ZM69.75 25.0215L69.2236 25.001C69.2282 24.4951 69.3034 24.028 69.4492 23.5996C69.5951 23.1667 69.8001 22.7907 70.0645 22.4717C70.3288 22.1527 70.6432 21.9066 71.0078 21.7334C71.377 21.5557 71.7848 21.4668 72.2314 21.4668C72.596 21.4668 72.9242 21.5169 73.2158 21.6172C73.5075 21.7129 73.7559 21.8678 73.9609 22.082C74.1706 22.2962 74.3301 22.5742 74.4395 22.916C74.5488 23.2533 74.6035 23.6657 74.6035 24.1533V29H73.332V24.1396C73.332 23.7523 73.2751 23.4424 73.1611 23.21C73.0472 22.973 72.8809 22.8021 72.6621 22.6973C72.4434 22.5879 72.1745 22.5332 71.8555 22.5332C71.541 22.5332 71.2539 22.5993 70.9941 22.7314C70.7389 22.8636 70.5179 23.0459 70.3311 23.2783C70.1488 23.5107 70.0052 23.7773 69.9004 24.0781C69.8001 24.3743 69.75 24.6888 69.75 25.0215ZM79.5938 29.1367C79.0788 29.1367 78.6117 29.0501 78.1924 28.877C77.7777 28.6992 77.4199 28.4508 77.1191 28.1318C76.8229 27.8128 76.5951 27.4346 76.4355 26.9971C76.276 26.5596 76.1963 26.0811 76.1963 25.5615V25.2744C76.1963 24.6729 76.2852 24.1374 76.4629 23.668C76.6406 23.194 76.8822 22.793 77.1875 22.4648C77.4928 22.1367 77.8392 21.8883 78.2266 21.7197C78.6139 21.5511 79.015 21.4668 79.4297 21.4668C79.9583 21.4668 80.4141 21.5579 80.7969 21.7402C81.1842 21.9225 81.501 22.1777 81.7471 22.5059C81.9932 22.8294 82.1755 23.2122 82.2939 23.6543C82.4124 24.0918 82.4717 24.5703 82.4717 25.0898V25.6572H76.9482V24.625H81.207V24.5293C81.1888 24.2012 81.1204 23.8822 81.002 23.5723C80.888 23.2624 80.7057 23.0072 80.4551 22.8066C80.2044 22.6061 79.8626 22.5059 79.4297 22.5059C79.1426 22.5059 78.8783 22.5674 78.6367 22.6904C78.3952 22.8089 78.1878 22.9867 78.0146 23.2236C77.8415 23.4606 77.707 23.75 77.6113 24.0918C77.5156 24.4336 77.4678 24.8278 77.4678 25.2744V25.5615C77.4678 25.9124 77.5156 26.2428 77.6113 26.5527C77.7116 26.8581 77.8551 27.127 78.042 27.3594C78.2334 27.5918 78.4635 27.7741 78.7324 27.9062C79.0059 28.0384 79.3158 28.1045 79.6621 28.1045C80.1087 28.1045 80.487 28.0133 80.7969 27.8311C81.1068 27.6488 81.3779 27.4049 81.6104 27.0996L82.376 27.708C82.2165 27.9495 82.0137 28.1797 81.7676 28.3984C81.5215 28.6172 81.2184 28.7949 80.8584 28.9316C80.5029 29.0684 80.0814 29.1367 79.5938 29.1367ZM91.7275 27.0381C91.7275 26.8558 91.6865 26.6872 91.6045 26.5322C91.527 26.3727 91.3652 26.2292 91.1191 26.1016C90.8776 25.9694 90.513 25.8555 90.0254 25.7598C89.6152 25.6732 89.2438 25.5706 88.9111 25.4521C88.583 25.3337 88.3027 25.1901 88.0703 25.0215C87.8424 24.8529 87.667 24.6546 87.5439 24.4268C87.4209 24.1989 87.3594 23.9323 87.3594 23.627C87.3594 23.3353 87.4232 23.0596 87.5508 22.7998C87.6829 22.54 87.8675 22.3099 88.1045 22.1094C88.346 21.9089 88.6354 21.7516 88.9727 21.6377C89.3099 21.5238 89.6859 21.4668 90.1006 21.4668C90.693 21.4668 91.1989 21.5716 91.6182 21.7812C92.0374 21.9909 92.3587 22.2712 92.582 22.6221C92.8053 22.9684 92.917 23.3535 92.917 23.7773H91.6523C91.6523 23.5723 91.5908 23.374 91.4678 23.1826C91.3493 22.9867 91.1738 22.8249 90.9414 22.6973C90.7135 22.5697 90.4333 22.5059 90.1006 22.5059C89.7497 22.5059 89.4648 22.5605 89.2461 22.6699C89.0319 22.7747 88.8747 22.9092 88.7744 23.0732C88.6787 23.2373 88.6309 23.4105 88.6309 23.5928C88.6309 23.7295 88.6536 23.8525 88.6992 23.9619C88.7493 24.0667 88.8359 24.1647 88.959 24.2559C89.082 24.3424 89.2552 24.4245 89.4785 24.502C89.7018 24.5794 89.9867 24.6569 90.333 24.7344C90.9391 24.8711 91.4382 25.0352 91.8301 25.2266C92.222 25.418 92.5137 25.6527 92.7051 25.9307C92.8965 26.2087 92.9922 26.5459 92.9922 26.9424C92.9922 27.266 92.9238 27.5622 92.7871 27.8311C92.6549 28.0999 92.4613 28.3324 92.2061 28.5283C91.9554 28.7197 91.6546 28.8701 91.3037 28.9795C90.9574 29.0843 90.5677 29.1367 90.1348 29.1367C89.4831 29.1367 88.9316 29.0205 88.4805 28.7881C88.0293 28.5557 87.6875 28.2549 87.4551 27.8857C87.2227 27.5166 87.1064 27.127 87.1064 26.7168H88.3779C88.3962 27.0632 88.4964 27.3389 88.6787 27.5439C88.861 27.7445 89.0843 27.888 89.3486 27.9746C89.613 28.0566 89.875 28.0977 90.1348 28.0977C90.4811 28.0977 90.7705 28.0521 91.0029 27.9609C91.2399 27.8698 91.4199 27.7445 91.543 27.585C91.666 27.4255 91.7275 27.2432 91.7275 27.0381ZM95.918 23.1826V29H94.6533V21.6035H95.8496L95.918 23.1826ZM95.6172 25.0215L95.0908 25.001C95.0954 24.4951 95.1706 24.028 95.3164 23.5996C95.4622 23.1667 95.6673 22.7907 95.9316 22.4717C96.196 22.1527 96.5104 21.9066 96.875 21.7334C97.2441 21.5557 97.652 21.4668 98.0986 21.4668C98.4632 21.4668 98.7913 21.5169 99.083 21.6172C99.3747 21.7129 99.623 21.8678 99.8281 22.082C100.038 22.2962 100.197 22.5742 100.307 22.916C100.416 23.2533 100.471 23.6657 100.471 24.1533V29H99.1992V24.1396C99.1992 23.7523 99.1423 23.4424 99.0283 23.21C98.9144 22.973 98.748 22.8021 98.5293 22.6973C98.3105 22.5879 98.0417 22.5332 97.7227 22.5332C97.4082 22.5332 97.1211 22.5993 96.8613 22.7314C96.6061 22.8636 96.3851 23.0459 96.1982 23.2783C96.016 23.5107 95.8724 23.7773 95.7676 24.0781C95.6673 24.3743 95.6172 24.6888 95.6172 25.0215ZM106.753 27.7354V23.9277C106.753 23.6361 106.694 23.3831 106.575 23.1689C106.461 22.9502 106.288 22.7816 106.056 22.6631C105.823 22.5446 105.536 22.4854 105.194 22.4854C104.875 22.4854 104.595 22.54 104.354 22.6494C104.117 22.7588 103.93 22.9023 103.793 23.0801C103.661 23.2578 103.595 23.4492 103.595 23.6543H102.33C102.33 23.39 102.398 23.1279 102.535 22.8682C102.672 22.6084 102.868 22.3737 103.123 22.1641C103.383 21.9499 103.693 21.7812 104.053 21.6582C104.417 21.5306 104.823 21.4668 105.27 21.4668C105.807 21.4668 106.281 21.5579 106.691 21.7402C107.106 21.9225 107.43 22.1982 107.662 22.5674C107.899 22.932 108.018 23.39 108.018 23.9414V27.3867C108.018 27.6328 108.038 27.8949 108.079 28.1729C108.125 28.4508 108.191 28.6901 108.277 28.8906V29H106.958C106.894 28.8542 106.844 28.6605 106.808 28.4189C106.771 28.1729 106.753 27.945 106.753 27.7354ZM106.972 24.5156L106.985 25.4043H105.707C105.347 25.4043 105.026 25.4339 104.743 25.4932C104.461 25.5479 104.224 25.6322 104.032 25.7461C103.841 25.86 103.695 26.0036 103.595 26.1768C103.494 26.3454 103.444 26.5436 103.444 26.7715C103.444 27.0039 103.497 27.2158 103.602 27.4072C103.706 27.5986 103.864 27.7513 104.073 27.8652C104.287 27.9746 104.549 28.0293 104.859 28.0293C105.247 28.0293 105.589 27.9473 105.885 27.7832C106.181 27.6191 106.416 27.4186 106.589 27.1816C106.767 26.9447 106.862 26.7145 106.876 26.4912L107.416 27.0996C107.384 27.291 107.298 27.5029 107.156 27.7354C107.015 27.9678 106.826 28.1911 106.589 28.4053C106.356 28.6149 106.078 28.7904 105.755 28.9316C105.436 29.0684 105.076 29.1367 104.675 29.1367C104.174 29.1367 103.734 29.0387 103.355 28.8428C102.982 28.6468 102.69 28.3848 102.48 28.0566C102.275 27.724 102.173 27.3525 102.173 26.9424C102.173 26.5459 102.25 26.1973 102.405 25.8965C102.56 25.5911 102.784 25.3382 103.075 25.1377C103.367 24.9326 103.718 24.7777 104.128 24.6729C104.538 24.568 104.996 24.5156 105.502 24.5156H106.972ZM112.967 28.0977C113.268 28.0977 113.546 28.0361 113.801 27.9131C114.056 27.79 114.266 27.6214 114.43 27.4072C114.594 27.1885 114.687 26.9401 114.71 26.6621H115.913C115.89 27.0996 115.742 27.5075 115.469 27.8857C115.2 28.2594 114.847 28.5625 114.409 28.7949C113.972 29.0228 113.491 29.1367 112.967 29.1367C112.411 29.1367 111.925 29.0387 111.511 28.8428C111.101 28.6468 110.759 28.3779 110.485 28.0361C110.216 27.6943 110.014 27.3024 109.877 26.8604C109.745 26.4137 109.679 25.9421 109.679 25.4453V25.1582C109.679 24.6615 109.745 24.1921 109.877 23.75C110.014 23.3034 110.216 22.9092 110.485 22.5674C110.759 22.2256 111.101 21.9567 111.511 21.7607C111.925 21.5648 112.411 21.4668 112.967 21.4668C113.546 21.4668 114.051 21.5853 114.484 21.8223C114.917 22.0547 115.257 22.3737 115.503 22.7793C115.754 23.1803 115.89 23.6361 115.913 24.1465H114.71C114.687 23.8411 114.601 23.5654 114.45 23.3193C114.304 23.0732 114.104 22.8773 113.849 22.7314C113.598 22.5811 113.304 22.5059 112.967 22.5059C112.579 22.5059 112.254 22.5833 111.989 22.7383C111.729 22.8887 111.522 23.0938 111.367 23.3535C111.217 23.6087 111.107 23.8936 111.039 24.208C110.975 24.5179 110.943 24.8346 110.943 25.1582V25.4453C110.943 25.7689 110.975 26.0879 111.039 26.4023C111.103 26.7168 111.21 27.0016 111.36 27.2568C111.515 27.512 111.723 27.7171 111.982 27.8721C112.247 28.0225 112.575 28.0977 112.967 28.0977ZM118.606 18.5V29H117.335V18.5H118.606ZM123.125 21.6035L119.898 25.0557L118.094 26.9287L117.991 25.582L119.283 24.0371L121.58 21.6035H123.125ZM121.97 29L119.331 25.4727L119.987 24.3447L123.46 29H121.97ZM124.424 18.5H125.695V27.5645L125.586 29H124.424V18.5ZM130.692 25.2402V25.3838C130.692 25.9215 130.629 26.4206 130.501 26.8809C130.373 27.3366 130.187 27.7331 129.94 28.0703C129.694 28.4076 129.394 28.6696 129.038 28.8564C128.683 29.0433 128.275 29.1367 127.814 29.1367C127.345 29.1367 126.933 29.057 126.577 28.8975C126.226 28.7334 125.93 28.4987 125.688 28.1934C125.447 27.888 125.253 27.5189 125.107 27.0859C124.966 26.653 124.868 26.1654 124.813 25.623V24.9941C124.868 24.4473 124.966 23.9574 125.107 23.5244C125.253 23.0915 125.447 22.7223 125.688 22.417C125.93 22.1071 126.226 21.8724 126.577 21.7129C126.928 21.5488 127.336 21.4668 127.801 21.4668C128.266 21.4668 128.678 21.5579 129.038 21.7402C129.398 21.918 129.699 22.1732 129.94 22.5059C130.187 22.8385 130.373 23.2373 130.501 23.7021C130.629 24.1624 130.692 24.6751 130.692 25.2402ZM129.421 25.3838V25.2402C129.421 24.8711 129.387 24.5247 129.318 24.2012C129.25 23.873 129.141 23.5859 128.99 23.3398C128.84 23.0892 128.642 22.8932 128.396 22.752C128.149 22.6061 127.846 22.5332 127.486 22.5332C127.167 22.5332 126.889 22.5879 126.652 22.6973C126.42 22.8066 126.222 22.9548 126.058 23.1416C125.894 23.3239 125.759 23.5335 125.654 23.7705C125.554 24.0029 125.479 24.2445 125.429 24.4951V26.1426C125.502 26.4616 125.62 26.7692 125.784 27.0654C125.953 27.3571 126.176 27.5964 126.454 27.7832C126.737 27.9701 127.085 28.0635 127.5 28.0635C127.842 28.0635 128.133 27.9951 128.375 27.8584C128.621 27.7171 128.819 27.5234 128.97 27.2773C129.125 27.0312 129.239 26.7464 129.312 26.4229C129.384 26.0993 129.421 25.7529 129.421 25.3838ZM136.653 27.7354V23.9277C136.653 23.6361 136.594 23.3831 136.476 23.1689C136.362 22.9502 136.188 22.7816 135.956 22.6631C135.724 22.5446 135.437 22.4854 135.095 22.4854C134.776 22.4854 134.495 22.54 134.254 22.6494C134.017 22.7588 133.83 22.9023 133.693 23.0801C133.561 23.2578 133.495 23.4492 133.495 23.6543H132.23C132.23 23.39 132.299 23.1279 132.436 22.8682C132.572 22.6084 132.768 22.3737 133.023 22.1641C133.283 21.9499 133.593 21.7812 133.953 21.6582C134.318 21.5306 134.723 21.4668 135.17 21.4668C135.708 21.4668 136.182 21.5579 136.592 21.7402C137.007 21.9225 137.33 22.1982 137.562 22.5674C137.799 22.932 137.918 23.39 137.918 23.9414V27.3867C137.918 27.6328 137.938 27.8949 137.979 28.1729C138.025 28.4508 138.091 28.6901 138.178 28.8906V29H136.858C136.795 28.8542 136.744 28.6605 136.708 28.4189C136.672 28.1729 136.653 27.945 136.653 27.7354ZM136.872 24.5156L136.886 25.4043H135.607C135.247 25.4043 134.926 25.4339 134.644 25.4932C134.361 25.5479 134.124 25.6322 133.933 25.7461C133.741 25.86 133.595 26.0036 133.495 26.1768C133.395 26.3454 133.345 26.5436 133.345 26.7715C133.345 27.0039 133.397 27.2158 133.502 27.4072C133.607 27.5986 133.764 27.7513 133.974 27.8652C134.188 27.9746 134.45 28.0293 134.76 28.0293C135.147 28.0293 135.489 27.9473 135.785 27.7832C136.081 27.6191 136.316 27.4186 136.489 27.1816C136.667 26.9447 136.763 26.7145 136.776 26.4912L137.316 27.0996C137.285 27.291 137.198 27.5029 137.057 27.7354C136.915 27.9678 136.726 28.1911 136.489 28.4053C136.257 28.6149 135.979 28.7904 135.655 28.9316C135.336 29.0684 134.976 29.1367 134.575 29.1367C134.074 29.1367 133.634 29.0387 133.256 28.8428C132.882 28.6468 132.59 28.3848 132.381 28.0566C132.176 27.724 132.073 27.3525 132.073 26.9424C132.073 26.5459 132.151 26.1973 132.306 25.8965C132.461 25.5911 132.684 25.3382 132.976 25.1377C133.267 24.9326 133.618 24.7777 134.028 24.6729C134.438 24.568 134.896 24.5156 135.402 24.5156H136.872ZM141.172 22.7656V29H139.907V21.6035H141.138L141.172 22.7656ZM143.482 21.5625L143.476 22.7383C143.371 22.7155 143.271 22.7018 143.175 22.6973C143.084 22.6882 142.979 22.6836 142.86 22.6836C142.569 22.6836 142.311 22.7292 142.088 22.8203C141.865 22.9115 141.675 23.0391 141.521 23.2031C141.366 23.3672 141.243 23.5632 141.151 23.791C141.065 24.0143 141.008 24.2604 140.98 24.5293L140.625 24.7344C140.625 24.2878 140.668 23.8685 140.755 23.4766C140.846 23.0846 140.985 22.7383 141.172 22.4375C141.359 22.1322 141.596 21.8952 141.883 21.7266C142.174 21.5534 142.521 21.4668 142.922 21.4668C143.013 21.4668 143.118 21.4782 143.236 21.501C143.355 21.5192 143.437 21.5397 143.482 21.5625ZM149.997 27.6875L151.897 21.6035H152.731L152.567 22.8135L150.633 29H149.819L149.997 27.6875ZM148.719 21.6035L150.339 27.7559L150.455 29H149.601L147.454 21.6035H148.719ZM154.55 27.708L156.095 21.6035H157.353L155.206 29H154.358L154.55 27.708ZM152.916 21.6035L154.775 27.585L154.987 29H154.181L152.191 22.7998L152.027 21.6035H152.916ZM160.025 21.6035V29H158.754V21.6035H160.025ZM158.658 19.6416C158.658 19.4365 158.72 19.2633 158.843 19.1221C158.97 18.9808 159.157 18.9102 159.403 18.9102C159.645 18.9102 159.829 18.9808 159.957 19.1221C160.089 19.2633 160.155 19.4365 160.155 19.6416C160.155 19.8376 160.089 20.0062 159.957 20.1475C159.829 20.2842 159.645 20.3525 159.403 20.3525C159.157 20.3525 158.97 20.2842 158.843 20.1475C158.72 20.0062 158.658 19.8376 158.658 19.6416ZM165.152 21.6035V22.5742H161.153V21.6035H165.152ZM162.507 19.8057H163.771V27.168C163.771 27.4186 163.81 27.6077 163.888 27.7354C163.965 27.863 164.065 27.9473 164.188 27.9883C164.312 28.0293 164.444 28.0498 164.585 28.0498C164.69 28.0498 164.799 28.0407 164.913 28.0225C165.032 27.9997 165.12 27.9814 165.18 27.9678L165.187 29C165.086 29.0319 164.954 29.0615 164.79 29.0889C164.631 29.1208 164.437 29.1367 164.209 29.1367C163.899 29.1367 163.614 29.0752 163.354 28.9521C163.095 28.8291 162.887 28.624 162.732 28.3369C162.582 28.0452 162.507 27.6533 162.507 27.1611V19.8057ZM167.9 18.5V29H166.636V18.5H167.9ZM167.6 25.0215L167.073 25.001C167.078 24.4951 167.153 24.028 167.299 23.5996C167.445 23.1667 167.65 22.7907 167.914 22.4717C168.178 22.1527 168.493 21.9066 168.857 21.7334C169.227 21.5557 169.634 21.4668 170.081 21.4668C170.446 21.4668 170.774 21.5169 171.065 21.6172C171.357 21.7129 171.605 21.8678 171.811 22.082C172.02 22.2962 172.18 22.5742 172.289 22.916C172.398 23.2533 172.453 23.6657 172.453 24.1533V29H171.182V24.1396C171.182 23.7523 171.125 23.4424 171.011 23.21C170.897 22.973 170.73 22.8021 170.512 22.6973C170.293 22.5879 170.024 22.5332 169.705 22.5332C169.391 22.5332 169.104 22.5993 168.844 22.7314C168.589 22.8636 168.368 23.0459 168.181 23.2783C167.998 23.5107 167.855 23.7773 167.75 24.0781C167.65 24.3743 167.6 24.6888 167.6 25.0215ZM182.181 27.7354V23.9277C182.181 23.6361 182.121 23.3831 182.003 23.1689C181.889 22.9502 181.716 22.7816 181.483 22.6631C181.251 22.5446 180.964 22.4854 180.622 22.4854C180.303 22.4854 180.023 22.54 179.781 22.6494C179.544 22.7588 179.357 22.9023 179.221 23.0801C179.089 23.2578 179.022 23.4492 179.022 23.6543H177.758C177.758 23.39 177.826 23.1279 177.963 22.8682C178.1 22.6084 178.296 22.3737 178.551 22.1641C178.811 21.9499 179.12 21.7812 179.48 21.6582C179.845 21.5306 180.251 21.4668 180.697 21.4668C181.235 21.4668 181.709 21.5579 182.119 21.7402C182.534 21.9225 182.857 22.1982 183.09 22.5674C183.327 22.932 183.445 23.39 183.445 23.9414V27.3867C183.445 27.6328 183.466 27.8949 183.507 28.1729C183.552 28.4508 183.618 28.6901 183.705 28.8906V29H182.386C182.322 28.8542 182.272 28.6605 182.235 28.4189C182.199 28.1729 182.181 27.945 182.181 27.7354ZM182.399 24.5156L182.413 25.4043H181.135C180.775 25.4043 180.453 25.4339 180.171 25.4932C179.888 25.5479 179.651 25.6322 179.46 25.7461C179.269 25.86 179.123 26.0036 179.022 26.1768C178.922 26.3454 178.872 26.5436 178.872 26.7715C178.872 27.0039 178.924 27.2158 179.029 27.4072C179.134 27.5986 179.291 27.7513 179.501 27.8652C179.715 27.9746 179.977 28.0293 180.287 28.0293C180.674 28.0293 181.016 27.9473 181.312 27.7832C181.609 27.6191 181.843 27.4186 182.017 27.1816C182.194 26.9447 182.29 26.7145 182.304 26.4912L182.844 27.0996C182.812 27.291 182.725 27.5029 182.584 27.7354C182.443 27.9678 182.254 28.1911 182.017 28.4053C181.784 28.6149 181.506 28.7904 181.183 28.9316C180.864 29.0684 180.504 29.1367 180.103 29.1367C179.601 29.1367 179.161 29.0387 178.783 28.8428C178.41 28.6468 178.118 28.3848 177.908 28.0566C177.703 27.724 177.601 27.3525 177.601 26.9424C177.601 26.5459 177.678 26.1973 177.833 25.8965C177.988 25.5911 178.211 25.3382 178.503 25.1377C178.795 24.9326 179.146 24.7777 179.556 24.6729C179.966 24.568 180.424 24.5156 180.93 24.5156H182.399ZM188.395 28.0977C188.695 28.0977 188.973 28.0361 189.229 27.9131C189.484 27.79 189.693 27.6214 189.857 27.4072C190.021 27.1885 190.115 26.9401 190.138 26.6621H191.341C191.318 27.0996 191.17 27.5075 190.896 27.8857C190.628 28.2594 190.274 28.5625 189.837 28.7949C189.399 29.0228 188.919 29.1367 188.395 29.1367C187.839 29.1367 187.353 29.0387 186.938 28.8428C186.528 28.6468 186.187 28.3779 185.913 28.0361C185.644 27.6943 185.441 27.3024 185.305 26.8604C185.173 26.4137 185.106 25.9421 185.106 25.4453V25.1582C185.106 24.6615 185.173 24.1921 185.305 23.75C185.441 23.3034 185.644 22.9092 185.913 22.5674C186.187 22.2256 186.528 21.9567 186.938 21.7607C187.353 21.5648 187.839 21.4668 188.395 21.4668C188.973 21.4668 189.479 21.5853 189.912 21.8223C190.345 22.0547 190.685 22.3737 190.931 22.7793C191.181 23.1803 191.318 23.6361 191.341 24.1465H190.138C190.115 23.8411 190.028 23.5654 189.878 23.3193C189.732 23.0732 189.532 22.8773 189.276 22.7314C189.026 22.5811 188.732 22.5059 188.395 22.5059C188.007 22.5059 187.681 22.5833 187.417 22.7383C187.157 22.8887 186.95 23.0938 186.795 23.3535C186.645 23.6087 186.535 23.8936 186.467 24.208C186.403 24.5179 186.371 24.8346 186.371 25.1582V25.4453C186.371 25.7689 186.403 26.0879 186.467 26.4023C186.531 26.7168 186.638 27.0016 186.788 27.2568C186.943 27.512 187.15 27.7171 187.41 27.8721C187.674 28.0225 188.003 28.0977 188.395 28.0977ZM195.859 21.6035V22.5742H191.86V21.6035H195.859ZM193.214 19.8057H194.479V27.168C194.479 27.4186 194.517 27.6077 194.595 27.7354C194.672 27.863 194.772 27.9473 194.896 27.9883C195.019 28.0293 195.151 28.0498 195.292 28.0498C195.397 28.0498 195.506 28.0407 195.62 28.0225C195.739 27.9997 195.827 27.9814 195.887 27.9678L195.894 29C195.793 29.0319 195.661 29.0615 195.497 29.0889C195.338 29.1208 195.144 29.1367 194.916 29.1367C194.606 29.1367 194.321 29.0752 194.062 28.9521C193.802 28.8291 193.594 28.624 193.439 28.3369C193.289 28.0452 193.214 27.6533 193.214 27.1611V19.8057ZM198.717 21.6035V29H197.445V21.6035H198.717ZM197.35 19.6416C197.35 19.4365 197.411 19.2633 197.534 19.1221C197.662 18.9808 197.849 18.9102 198.095 18.9102C198.336 18.9102 198.521 18.9808 198.648 19.1221C198.781 19.2633 198.847 19.4365 198.847 19.6416C198.847 19.8376 198.781 20.0062 198.648 20.1475C198.521 20.2842 198.336 20.3525 198.095 20.3525C197.849 20.3525 197.662 20.2842 197.534 20.1475C197.411 20.0062 197.35 19.8376 197.35 19.6416ZM200.412 25.3838V25.2266C200.412 24.6934 200.49 24.1989 200.645 23.7432C200.799 23.2829 201.023 22.8841 201.314 22.5469C201.606 22.2051 201.959 21.9408 202.374 21.7539C202.789 21.5625 203.254 21.4668 203.769 21.4668C204.288 21.4668 204.755 21.5625 205.17 21.7539C205.589 21.9408 205.945 22.2051 206.236 22.5469C206.533 22.8841 206.758 23.2829 206.913 23.7432C207.068 24.1989 207.146 24.6934 207.146 25.2266V25.3838C207.146 25.917 207.068 26.4115 206.913 26.8672C206.758 27.3229 206.533 27.7217 206.236 28.0635C205.945 28.4007 205.591 28.665 205.177 28.8564C204.767 29.0433 204.302 29.1367 203.782 29.1367C203.263 29.1367 202.796 29.0433 202.381 28.8564C201.966 28.665 201.611 28.4007 201.314 28.0635C201.023 27.7217 200.799 27.3229 200.645 26.8672C200.49 26.4115 200.412 25.917 200.412 25.3838ZM201.677 25.2266V25.3838C201.677 25.7529 201.72 26.1016 201.807 26.4297C201.893 26.7533 202.023 27.0404 202.196 27.291C202.374 27.5417 202.595 27.7399 202.859 27.8857C203.124 28.027 203.431 28.0977 203.782 28.0977C204.129 28.0977 204.432 28.027 204.691 27.8857C204.956 27.7399 205.174 27.5417 205.348 27.291C205.521 27.0404 205.651 26.7533 205.737 26.4297C205.828 26.1016 205.874 25.7529 205.874 25.3838V25.2266C205.874 24.862 205.828 24.5179 205.737 24.1943C205.651 23.8662 205.519 23.5768 205.341 23.3262C205.168 23.071 204.949 22.8704 204.685 22.7246C204.425 22.5788 204.119 22.5059 203.769 22.5059C203.422 22.5059 203.117 22.5788 202.853 22.7246C202.593 22.8704 202.374 23.071 202.196 23.3262C202.023 23.5768 201.893 23.8662 201.807 24.1943C201.72 24.5179 201.677 24.862 201.677 25.2266ZM209.996 23.1826V29H208.731V21.6035H209.928L209.996 23.1826ZM209.695 25.0215L209.169 25.001C209.174 24.4951 209.249 24.028 209.395 23.5996C209.54 23.1667 209.745 22.7907 210.01 22.4717C210.274 22.1527 210.589 21.9066 210.953 21.7334C211.322 21.5557 211.73 21.4668 212.177 21.4668C212.541 21.4668 212.869 21.5169 213.161 21.6172C213.453 21.7129 213.701 21.8678 213.906 22.082C214.116 22.2962 214.275 22.5742 214.385 22.916C214.494 23.2533 214.549 23.6657 214.549 24.1533V29H213.277V24.1396C213.277 23.7523 213.22 23.4424 213.106 23.21C212.993 22.973 212.826 22.8021 212.607 22.6973C212.389 22.5879 212.12 22.5332 211.801 22.5332C211.486 22.5332 211.199 22.5993 210.939 22.7314C210.684 22.8636 210.463 23.0459 210.276 23.2783C210.094 23.5107 209.951 23.7773 209.846 24.0781C209.745 24.3743 209.695 24.6888 209.695 25.0215Z" fill="#F5EFF7"/>
<g clip-path="url(#clip0_56029_2814)">
<path d="M291.105 22.373L288.132 31H286.334L290.08 21.0469H291.229L291.105 22.373ZM293.594 31L290.613 22.373L290.483 21.0469H291.639L295.398 31H293.594ZM293.45 27.3086V28.6689H288.036V27.3086H293.45ZM299.37 29.8242C299.639 29.8242 299.881 29.7718 300.095 29.667C300.313 29.5576 300.489 29.4072 300.621 29.2158C300.758 29.0244 300.833 28.8034 300.847 28.5527H302.398C302.389 29.0312 302.248 29.4665 301.975 29.8584C301.701 30.2503 301.339 30.5625 300.888 30.7949C300.437 31.0228 299.938 31.1367 299.391 31.1367C298.826 31.1367 298.333 31.041 297.914 30.8496C297.495 30.6536 297.146 30.3848 296.868 30.043C296.59 29.7012 296.381 29.307 296.239 28.8604C296.103 28.4137 296.034 27.9352 296.034 27.4248V27.1855C296.034 26.6751 296.103 26.1966 296.239 25.75C296.381 25.2988 296.59 24.9023 296.868 24.5605C297.146 24.2188 297.495 23.9521 297.914 23.7607C298.333 23.5648 298.823 23.4668 299.384 23.4668C299.976 23.4668 300.496 23.5853 300.942 23.8223C301.389 24.0547 301.74 24.3805 301.995 24.7998C302.255 25.2145 302.389 25.6976 302.398 26.249H300.847C300.833 25.9756 300.765 25.7295 300.642 25.5107C300.523 25.2874 300.354 25.1097 300.136 24.9775C299.922 24.8454 299.664 24.7793 299.363 24.7793C299.031 24.7793 298.755 24.8477 298.536 24.9844C298.317 25.1165 298.146 25.2988 298.023 25.5312C297.9 25.7591 297.812 26.0166 297.757 26.3037C297.707 26.5863 297.682 26.8802 297.682 27.1855V27.4248C297.682 27.7301 297.707 28.0264 297.757 28.3135C297.807 28.6006 297.894 28.8581 298.017 29.0859C298.144 29.3092 298.317 29.4893 298.536 29.626C298.755 29.7581 299.033 29.8242 299.37 29.8242ZM307.054 23.6035V24.8066H302.884V23.6035H307.054ZM304.087 21.792H305.734V28.9561C305.734 29.1839 305.766 29.3594 305.83 29.4824C305.898 29.6009 305.992 29.6807 306.11 29.7217C306.229 29.7627 306.368 29.7832 306.527 29.7832C306.641 29.7832 306.751 29.7764 306.855 29.7627C306.96 29.749 307.045 29.7354 307.108 29.7217L307.115 30.9795C306.979 31.0205 306.819 31.057 306.637 31.0889C306.459 31.1208 306.254 31.1367 306.021 31.1367C305.643 31.1367 305.308 31.0706 305.017 30.9385C304.725 30.8018 304.497 30.5807 304.333 30.2754C304.169 29.9701 304.087 29.5645 304.087 29.0586V21.792ZM310.089 23.6035V31H308.435V23.6035H310.089ZM308.325 21.6621C308.325 21.4115 308.407 21.2041 308.571 21.04C308.74 20.8714 308.972 20.7871 309.269 20.7871C309.56 20.7871 309.79 20.8714 309.959 21.04C310.128 21.2041 310.212 21.4115 310.212 21.6621C310.212 21.9082 310.128 22.1133 309.959 22.2773C309.79 22.4414 309.56 22.5234 309.269 22.5234C308.972 22.5234 308.74 22.4414 308.571 22.2773C308.407 22.1133 308.325 21.9082 308.325 21.6621ZM311.579 27.3838V27.2266C311.579 26.6934 311.657 26.1989 311.812 25.7432C311.966 25.2829 312.19 24.8841 312.481 24.5469C312.778 24.2051 313.138 23.9408 313.562 23.7539C313.99 23.5625 314.473 23.4668 315.011 23.4668C315.553 23.4668 316.036 23.5625 316.46 23.7539C316.888 23.9408 317.251 24.2051 317.547 24.5469C317.843 24.8841 318.069 25.2829 318.224 25.7432C318.379 26.1989 318.456 26.6934 318.456 27.2266V27.3838C318.456 27.917 318.379 28.4115 318.224 28.8672C318.069 29.3229 317.843 29.7217 317.547 30.0635C317.251 30.4007 316.891 30.665 316.467 30.8564C316.043 31.0433 315.562 31.1367 315.024 31.1367C314.482 31.1367 313.997 31.0433 313.568 30.8564C313.145 30.665 312.785 30.4007 312.488 30.0635C312.192 29.7217 311.966 29.3229 311.812 28.8672C311.657 28.4115 311.579 27.917 311.579 27.3838ZM313.227 27.2266V27.3838C313.227 27.7165 313.261 28.0309 313.329 28.3271C313.397 28.6234 313.505 28.8831 313.65 29.1064C313.796 29.3298 313.983 29.5052 314.211 29.6328C314.439 29.7604 314.71 29.8242 315.024 29.8242C315.33 29.8242 315.594 29.7604 315.817 29.6328C316.045 29.5052 316.232 29.3298 316.378 29.1064C316.524 28.8831 316.631 28.6234 316.699 28.3271C316.772 28.0309 316.809 27.7165 316.809 27.3838V27.2266C316.809 26.8984 316.772 26.5885 316.699 26.2969C316.631 26.0007 316.521 25.7386 316.371 25.5107C316.225 25.2829 316.038 25.1051 315.811 24.9775C315.587 24.8454 315.321 24.7793 315.011 24.7793C314.701 24.7793 314.432 24.8454 314.204 24.9775C313.981 25.1051 313.796 25.2829 313.65 25.5107C313.505 25.7386 313.397 26.0007 313.329 26.2969C313.261 26.5885 313.227 26.8984 313.227 27.2266ZM321.471 25.1826V31H319.823V23.6035H321.375L321.471 25.1826ZM321.177 27.0283L320.644 27.0215C320.648 26.4974 320.721 26.0166 320.862 25.5791C321.008 25.1416 321.209 24.7656 321.464 24.4512C321.724 24.1367 322.034 23.8952 322.394 23.7266C322.754 23.5534 323.155 23.4668 323.597 23.4668C323.952 23.4668 324.273 23.5169 324.561 23.6172C324.852 23.7129 325.101 23.8701 325.306 24.0889C325.515 24.3076 325.675 24.5924 325.784 24.9434C325.894 25.2897 325.948 25.7158 325.948 26.2217V31H324.294V26.2148C324.294 25.8594 324.242 25.5791 324.137 25.374C324.036 25.1644 323.888 25.0163 323.692 24.9297C323.501 24.8385 323.262 24.793 322.975 24.793C322.692 24.793 322.439 24.8522 322.216 24.9707C321.993 25.0892 321.803 25.251 321.648 25.4561C321.498 25.6611 321.382 25.8981 321.3 26.167C321.218 26.4359 321.177 26.723 321.177 27.0283Z" fill="#D0BCFF"/>
</g>
</g>
<defs>
<filter id="filter0_d_56029_2814" x="0" y="0" width="350" height="54" filterUnits="userSpaceOnUse" color-interpolation-filters="sRGB">
<feFlood flood-opacity="0" result="BackgroundImageFix"/>
<feColorMatrix in="SourceAlpha" type="matrix" values="0 0 0 0 0 0 0 0 0 0 0 0 0 0 0 0 0 0 127 0" result="hardAlpha"/>
<feOffset dy="1"/>
<feGaussianBlur stdDeviation="1.5"/>
<feColorMatrix type="matrix" values="0 0 0 0 0 0 0 0 0 0 0 0 0 0 0 0 0 0 0.3 0"/>
<feBlend mode="normal" in2="BackgroundImageFix" result="effect1_dropShadow_56029_2814"/>
<feBlend mode="normal" in="SourceGraphic" in2="effect1_dropShadow_56029_2814" result="shape"/>
</filter>
<clipPath id="clip0_56029_2814">
<rect x="274" y="6" width="65" height="40" rx="20" fill="white"/>
</clipPath>
</defs>
</svg>
