<svg width="366" height="70" viewBox="0 0 366 70" fill="none" xmlns="http://www.w3.org/2000/svg">
<g filter="url(#filter0_dd_56029_2816)">
<rect x="11" y="7" width="344" height="48" rx="4" fill="#E6E0E9"/>
<path d="M33.46 31.4844C33.46 31.252 33.4235 31.0469 33.3506 30.8691C33.2822 30.6868 33.1592 30.5228 32.9814 30.377C32.8083 30.2311 32.5667 30.0921 32.2568 29.96C31.9515 29.8278 31.5641 29.6934 31.0947 29.5566C30.6025 29.4108 30.1582 29.249 29.7617 29.0713C29.3652 28.889 29.0257 28.6816 28.7432 28.4492C28.4606 28.2168 28.2441 27.9502 28.0938 27.6494C27.9434 27.3486 27.8682 27.0046 27.8682 26.6172C27.8682 26.2298 27.9479 25.8721 28.1074 25.5439C28.2669 25.2158 28.4948 24.931 28.791 24.6895C29.0918 24.4434 29.4495 24.252 29.8643 24.1152C30.279 23.9785 30.7415 23.9102 31.252 23.9102C31.9993 23.9102 32.6328 24.0537 33.1523 24.3408C33.6764 24.6234 34.0752 24.9948 34.3486 25.4551C34.6221 25.9108 34.7588 26.3984 34.7588 26.918H33.4463C33.4463 26.5443 33.3665 26.2139 33.207 25.9268C33.0475 25.6351 32.806 25.4072 32.4824 25.2432C32.1589 25.0745 31.7487 24.9902 31.252 24.9902C30.7826 24.9902 30.3952 25.0609 30.0898 25.2021C29.7845 25.3434 29.5566 25.5348 29.4062 25.7764C29.2604 26.0179 29.1875 26.2936 29.1875 26.6035C29.1875 26.8132 29.2308 27.0046 29.3174 27.1777C29.4085 27.3464 29.5475 27.5036 29.7344 27.6494C29.9258 27.7952 30.1673 27.9297 30.459 28.0527C30.7552 28.1758 31.1084 28.2943 31.5186 28.4082C32.0837 28.5677 32.5713 28.7454 32.9814 28.9414C33.3916 29.1374 33.7288 29.3584 33.9932 29.6045C34.262 29.846 34.4603 30.1217 34.5879 30.4316C34.7201 30.737 34.7861 31.0833 34.7861 31.4707C34.7861 31.8763 34.7041 32.2432 34.54 32.5713C34.376 32.8994 34.1413 33.1797 33.8359 33.4121C33.5306 33.6445 33.1637 33.8245 32.7354 33.9521C32.3115 34.0752 31.8376 34.1367 31.3135 34.1367C30.8532 34.1367 30.3997 34.0729 29.9531 33.9453C29.5111 33.8177 29.1077 33.6263 28.7432 33.3711C28.3831 33.1159 28.0938 32.8014 27.875 32.4277C27.6608 32.0495 27.5537 31.612 27.5537 31.1152H28.8662C28.8662 31.457 28.9323 31.751 29.0645 31.9971C29.1966 32.2386 29.3766 32.4391 29.6045 32.5986C29.8369 32.7581 30.099 32.8766 30.3906 32.9541C30.6868 33.027 30.9945 33.0635 31.3135 33.0635C31.7738 33.0635 32.1634 32.9997 32.4824 32.8721C32.8014 32.7445 33.043 32.5622 33.207 32.3252C33.3757 32.0882 33.46 31.8079 33.46 31.4844ZM37.6504 26.6035V34H36.3789V26.6035H37.6504ZM36.2832 24.6416C36.2832 24.4365 36.3447 24.2633 36.4678 24.1221C36.5954 23.9808 36.7822 23.9102 37.0283 23.9102C37.2699 23.9102 37.4544 23.9808 37.582 24.1221C37.7142 24.2633 37.7803 24.4365 37.7803 24.6416C37.7803 24.8376 37.7142 25.0062 37.582 25.1475C37.4544 25.2842 37.2699 25.3525 37.0283 25.3525C36.7822 25.3525 36.5954 25.2842 36.4678 25.1475C36.3447 25.0062 36.2832 24.8376 36.2832 24.6416ZM40.9453 28.1826V34H39.6807V26.6035H40.877L40.9453 28.1826ZM40.6445 30.0215L40.1182 30.001C40.1227 29.4951 40.1979 29.028 40.3438 28.5996C40.4896 28.1667 40.6947 27.7907 40.959 27.4717C41.2233 27.1527 41.5378 26.9066 41.9023 26.7334C42.2715 26.5557 42.6794 26.4668 43.126 26.4668C43.4906 26.4668 43.8187 26.5169 44.1104 26.6172C44.402 26.7129 44.6504 26.8678 44.8555 27.082C45.0651 27.2962 45.2246 27.5742 45.334 27.916C45.4434 28.2533 45.498 28.6657 45.498 29.1533V34H44.2266V29.1396C44.2266 28.7523 44.1696 28.4424 44.0557 28.21C43.9417 27.973 43.7754 27.8021 43.5566 27.6973C43.3379 27.5879 43.069 27.5332 42.75 27.5332C42.4355 27.5332 42.1484 27.5993 41.8887 27.7314C41.6335 27.8636 41.4124 28.0459 41.2256 28.2783C41.0433 28.5107 40.8997 28.7773 40.7949 29.0781C40.6947 29.3743 40.6445 29.6888 40.6445 30.0215ZM52.2109 26.6035H53.3594V33.8428C53.3594 34.4945 53.2272 35.0505 52.9629 35.5107C52.6986 35.971 52.3294 36.3197 51.8555 36.5566C51.3861 36.7982 50.8438 36.9189 50.2285 36.9189C49.9733 36.9189 49.6725 36.8779 49.3262 36.7959C48.9844 36.7184 48.6471 36.584 48.3145 36.3926C47.9863 36.2057 47.7106 35.9528 47.4873 35.6338L48.1504 34.8818C48.4603 35.2555 48.7839 35.5153 49.1211 35.6611C49.4629 35.807 49.8001 35.8799 50.1328 35.8799C50.5339 35.8799 50.8802 35.8047 51.1719 35.6543C51.4635 35.5039 51.6891 35.2806 51.8486 34.9844C52.0127 34.6927 52.0947 34.3327 52.0947 33.9043V28.2305L52.2109 26.6035ZM47.1182 30.3838V30.2402C47.1182 29.6751 47.1842 29.1624 47.3164 28.7021C47.4531 28.2373 47.6468 27.8385 47.8975 27.5059C48.1527 27.1732 48.4603 26.918 48.8203 26.7402C49.1803 26.5579 49.5859 26.4668 50.0371 26.4668C50.502 26.4668 50.9076 26.5488 51.2539 26.7129C51.6048 26.8724 51.901 27.1071 52.1426 27.417C52.3887 27.7223 52.5824 28.0915 52.7236 28.5244C52.8649 28.9574 52.9629 29.4473 53.0176 29.9941V30.623C52.9674 31.1654 52.8695 31.653 52.7236 32.0859C52.5824 32.5189 52.3887 32.888 52.1426 33.1934C51.901 33.4987 51.6048 33.7334 51.2539 33.8975C50.903 34.057 50.4928 34.1367 50.0234 34.1367C49.5814 34.1367 49.1803 34.0433 48.8203 33.8564C48.4648 33.6696 48.1595 33.4076 47.9043 33.0703C47.6491 32.7331 47.4531 32.3366 47.3164 31.8809C47.1842 31.4206 47.1182 30.9215 47.1182 30.3838ZM48.3828 30.2402V30.3838C48.3828 30.7529 48.4193 31.0993 48.4922 31.4229C48.5697 31.7464 48.6859 32.0312 48.8408 32.2773C49.0003 32.5234 49.2031 32.7171 49.4492 32.8584C49.6953 32.9951 49.9893 33.0635 50.3311 33.0635C50.7503 33.0635 51.0967 32.9746 51.3701 32.7969C51.6436 32.6191 51.86 32.3844 52.0195 32.0928C52.1836 31.8011 52.3112 31.4844 52.4023 31.1426V29.4951C52.3522 29.2445 52.2747 29.0029 52.1699 28.7705C52.0697 28.5335 51.9375 28.3239 51.7734 28.1416C51.6139 27.9548 51.4157 27.8066 51.1787 27.6973C50.9417 27.5879 50.6637 27.5332 50.3447 27.5332C49.9984 27.5332 49.6999 27.6061 49.4492 27.752C49.2031 27.8932 49.0003 28.0892 48.8408 28.3398C48.6859 28.5859 48.5697 28.873 48.4922 29.2012C48.4193 29.5247 48.3828 29.8711 48.3828 30.2402ZM56.6543 23.5V34H55.3828V23.5H56.6543ZM61.7539 34.1367C61.2389 34.1367 60.7718 34.0501 60.3525 33.877C59.9378 33.6992 59.5801 33.4508 59.2793 33.1318C58.9831 32.8128 58.7552 32.4346 58.5957 31.9971C58.4362 31.5596 58.3564 31.0811 58.3564 30.5615V30.2744C58.3564 29.6729 58.4453 29.1374 58.623 28.668C58.8008 28.194 59.0423 27.793 59.3477 27.4648C59.653 27.1367 59.9993 26.8883 60.3867 26.7197C60.7741 26.5511 61.1751 26.4668 61.5898 26.4668C62.1185 26.4668 62.5742 26.5579 62.957 26.7402C63.3444 26.9225 63.6611 27.1777 63.9072 27.5059C64.1533 27.8294 64.3356 28.2122 64.4541 28.6543C64.5726 29.0918 64.6318 29.5703 64.6318 30.0898V30.6572H59.1084V29.625H63.3672V29.5293C63.349 29.2012 63.2806 28.8822 63.1621 28.5723C63.0482 28.2624 62.8659 28.0072 62.6152 27.8066C62.3646 27.6061 62.0228 27.5059 61.5898 27.5059C61.3027 27.5059 61.0384 27.5674 60.7969 27.6904C60.5553 27.8089 60.348 27.9867 60.1748 28.2236C60.0016 28.4606 59.8672 28.75 59.7715 29.0918C59.6758 29.4336 59.6279 29.8278 59.6279 30.2744V30.5615C59.6279 30.9124 59.6758 31.2428 59.7715 31.5527C59.8717 31.8581 60.0153 32.127 60.2021 32.3594C60.3936 32.5918 60.6237 32.7741 60.8926 32.9062C61.166 33.0384 61.4759 33.1045 61.8223 33.1045C62.2689 33.1045 62.6471 33.0133 62.957 32.8311C63.2669 32.6488 63.5381 32.4049 63.7705 32.0996L64.5361 32.708C64.3766 32.9495 64.1738 33.1797 63.9277 33.3984C63.6816 33.6172 63.3786 33.7949 63.0186 33.9316C62.6631 34.0684 62.2415 34.1367 61.7539 34.1367ZM68.7402 29.249V30.2881H65.4043V29.249H68.7402ZM71.3516 23.5V34H70.0801V23.5H71.3516ZM74.7559 26.6035V34H73.4844V26.6035H74.7559ZM73.3887 24.6416C73.3887 24.4365 73.4502 24.2633 73.5732 24.1221C73.7008 23.9808 73.8877 23.9102 74.1338 23.9102C74.3753 23.9102 74.5599 23.9808 74.6875 24.1221C74.8197 24.2633 74.8857 24.4365 74.8857 24.6416C74.8857 24.8376 74.8197 25.0062 74.6875 25.1475C74.5599 25.2842 74.3753 25.3525 74.1338 25.3525C73.8877 25.3525 73.7008 25.2842 73.5732 25.1475C73.4502 25.0062 73.3887 24.8376 73.3887 24.6416ZM78.0508 28.1826V34H76.7861V26.6035H77.9824L78.0508 28.1826ZM77.75 30.0215L77.2236 30.001C77.2282 29.4951 77.3034 29.028 77.4492 28.5996C77.5951 28.1667 77.8001 27.7907 78.0645 27.4717C78.3288 27.1527 78.6432 26.9066 79.0078 26.7334C79.377 26.5557 79.7848 26.4668 80.2314 26.4668C80.596 26.4668 80.9242 26.5169 81.2158 26.6172C81.5075 26.7129 81.7559 26.8678 81.9609 27.082C82.1706 27.2962 82.3301 27.5742 82.4395 27.916C82.5488 28.2533 82.6035 28.6657 82.6035 29.1533V34H81.332V29.1396C81.332 28.7523 81.2751 28.4424 81.1611 28.21C81.0472 27.973 80.8809 27.8021 80.6621 27.6973C80.4434 27.5879 80.1745 27.5332 79.8555 27.5332C79.541 27.5332 79.2539 27.5993 78.9941 27.7314C78.7389 27.8636 78.5179 28.0459 78.3311 28.2783C78.1488 28.5107 78.0052 28.7773 77.9004 29.0781C77.8001 29.3743 77.75 29.6888 77.75 30.0215ZM87.5938 34.1367C87.0788 34.1367 86.6117 34.0501 86.1924 33.877C85.7777 33.6992 85.4199 33.4508 85.1191 33.1318C84.8229 32.8128 84.5951 32.4346 84.4355 31.9971C84.276 31.5596 84.1963 31.0811 84.1963 30.5615V30.2744C84.1963 29.6729 84.2852 29.1374 84.4629 28.668C84.6406 28.194 84.8822 27.793 85.1875 27.4648C85.4928 27.1367 85.8392 26.8883 86.2266 26.7197C86.6139 26.5511 87.015 26.4668 87.4297 26.4668C87.9583 26.4668 88.4141 26.5579 88.7969 26.7402C89.1842 26.9225 89.501 27.1777 89.7471 27.5059C89.9932 27.8294 90.1755 28.2122 90.2939 28.6543C90.4124 29.0918 90.4717 29.5703 90.4717 30.0898V30.6572H84.9482V29.625H89.207V29.5293C89.1888 29.2012 89.1204 28.8822 89.002 28.5723C88.888 28.2624 88.7057 28.0072 88.4551 27.8066C88.2044 27.6061 87.8626 27.5059 87.4297 27.5059C87.1426 27.5059 86.8783 27.5674 86.6367 27.6904C86.3952 27.8089 86.1878 27.9867 86.0146 28.2236C85.8415 28.4606 85.707 28.75 85.6113 29.0918C85.5156 29.4336 85.4678 29.8278 85.4678 30.2744V30.5615C85.4678 30.9124 85.5156 31.2428 85.6113 31.5527C85.7116 31.8581 85.8551 32.127 86.042 32.3594C86.2334 32.5918 86.4635 32.7741 86.7324 32.9062C87.0059 33.0384 87.3158 33.1045 87.6621 33.1045C88.1087 33.1045 88.487 33.0133 88.7969 32.8311C89.1068 32.6488 89.3779 32.4049 89.6104 32.0996L90.376 32.708C90.2165 32.9495 90.0137 33.1797 89.7676 33.3984C89.5215 33.6172 89.2184 33.7949 88.8584 33.9316C88.5029 34.0684 88.0814 34.1367 87.5938 34.1367ZM99.7275 32.0381C99.7275 31.8558 99.6865 31.6872 99.6045 31.5322C99.527 31.3727 99.3652 31.2292 99.1191 31.1016C98.8776 30.9694 98.513 30.8555 98.0254 30.7598C97.6152 30.6732 97.2438 30.5706 96.9111 30.4521C96.583 30.3337 96.3027 30.1901 96.0703 30.0215C95.8424 29.8529 95.667 29.6546 95.5439 29.4268C95.4209 29.1989 95.3594 28.9323 95.3594 28.627C95.3594 28.3353 95.4232 28.0596 95.5508 27.7998C95.6829 27.54 95.8675 27.3099 96.1045 27.1094C96.346 26.9089 96.6354 26.7516 96.9727 26.6377C97.3099 26.5238 97.6859 26.4668 98.1006 26.4668C98.693 26.4668 99.1989 26.5716 99.6182 26.7812C100.037 26.9909 100.359 27.2712 100.582 27.6221C100.805 27.9684 100.917 28.3535 100.917 28.7773H99.6523C99.6523 28.5723 99.5908 28.374 99.4678 28.1826C99.3493 27.9867 99.1738 27.8249 98.9414 27.6973C98.7135 27.5697 98.4333 27.5059 98.1006 27.5059C97.7497 27.5059 97.4648 27.5605 97.2461 27.6699C97.0319 27.7747 96.8747 27.9092 96.7744 28.0732C96.6787 28.2373 96.6309 28.4105 96.6309 28.5928C96.6309 28.7295 96.6536 28.8525 96.6992 28.9619C96.7493 29.0667 96.8359 29.1647 96.959 29.2559C97.082 29.3424 97.2552 29.4245 97.4785 29.502C97.7018 29.5794 97.9867 29.6569 98.333 29.7344C98.9391 29.8711 99.4382 30.0352 99.8301 30.2266C100.222 30.418 100.514 30.6527 100.705 30.9307C100.896 31.2087 100.992 31.5459 100.992 31.9424C100.992 32.266 100.924 32.5622 100.787 32.8311C100.655 33.0999 100.461 33.3324 100.206 33.5283C99.9554 33.7197 99.6546 33.8701 99.3037 33.9795C98.9574 34.0843 98.5677 34.1367 98.1348 34.1367C97.4831 34.1367 96.9316 34.0205 96.4805 33.7881C96.0293 33.5557 95.6875 33.2549 95.4551 32.8857C95.2227 32.5166 95.1064 32.127 95.1064 31.7168H96.3779C96.3962 32.0632 96.4964 32.3389 96.6787 32.5439C96.861 32.7445 97.0843 32.888 97.3486 32.9746C97.613 33.0566 97.875 33.0977 98.1348 33.0977C98.4811 33.0977 98.7705 33.0521 99.0029 32.9609C99.2399 32.8698 99.4199 32.7445 99.543 32.585C99.666 32.4255 99.7275 32.2432 99.7275 32.0381ZM103.918 28.1826V34H102.653V26.6035H103.85L103.918 28.1826ZM103.617 30.0215L103.091 30.001C103.095 29.4951 103.171 29.028 103.316 28.5996C103.462 28.1667 103.667 27.7907 103.932 27.4717C104.196 27.1527 104.51 26.9066 104.875 26.7334C105.244 26.5557 105.652 26.4668 106.099 26.4668C106.463 26.4668 106.791 26.5169 107.083 26.6172C107.375 26.7129 107.623 26.8678 107.828 27.082C108.038 27.2962 108.197 27.5742 108.307 27.916C108.416 28.2533 108.471 28.6657 108.471 29.1533V34H107.199V29.1396C107.199 28.7523 107.142 28.4424 107.028 28.21C106.914 27.973 106.748 27.8021 106.529 27.6973C106.311 27.5879 106.042 27.5332 105.723 27.5332C105.408 27.5332 105.121 27.5993 104.861 27.7314C104.606 27.8636 104.385 28.0459 104.198 28.2783C104.016 28.5107 103.872 28.7773 103.768 29.0781C103.667 29.3743 103.617 29.6888 103.617 30.0215ZM114.753 32.7354V28.9277C114.753 28.6361 114.694 28.3831 114.575 28.1689C114.461 27.9502 114.288 27.7816 114.056 27.6631C113.823 27.5446 113.536 27.4854 113.194 27.4854C112.875 27.4854 112.595 27.54 112.354 27.6494C112.117 27.7588 111.93 27.9023 111.793 28.0801C111.661 28.2578 111.595 28.4492 111.595 28.6543H110.33C110.33 28.39 110.398 28.1279 110.535 27.8682C110.672 27.6084 110.868 27.3737 111.123 27.1641C111.383 26.9499 111.693 26.7812 112.053 26.6582C112.417 26.5306 112.823 26.4668 113.27 26.4668C113.807 26.4668 114.281 26.5579 114.691 26.7402C115.106 26.9225 115.43 27.1982 115.662 27.5674C115.899 27.932 116.018 28.39 116.018 28.9414V32.3867C116.018 32.6328 116.038 32.8949 116.079 33.1729C116.125 33.4508 116.191 33.6901 116.277 33.8906V34H114.958C114.894 33.8542 114.844 33.6605 114.808 33.4189C114.771 33.1729 114.753 32.945 114.753 32.7354ZM114.972 29.5156L114.985 30.4043H113.707C113.347 30.4043 113.026 30.4339 112.743 30.4932C112.461 30.5479 112.224 30.6322 112.032 30.7461C111.841 30.86 111.695 31.0036 111.595 31.1768C111.494 31.3454 111.444 31.5436 111.444 31.7715C111.444 32.0039 111.497 32.2158 111.602 32.4072C111.706 32.5986 111.864 32.7513 112.073 32.8652C112.287 32.9746 112.549 33.0293 112.859 33.0293C113.247 33.0293 113.589 32.9473 113.885 32.7832C114.181 32.6191 114.416 32.4186 114.589 32.1816C114.767 31.9447 114.862 31.7145 114.876 31.4912L115.416 32.0996C115.384 32.291 115.298 32.5029 115.156 32.7354C115.015 32.9678 114.826 33.1911 114.589 33.4053C114.356 33.6149 114.078 33.7904 113.755 33.9316C113.436 34.0684 113.076 34.1367 112.675 34.1367C112.174 34.1367 111.734 34.0387 111.355 33.8428C110.982 33.6468 110.69 33.3848 110.48 33.0566C110.275 32.724 110.173 32.3525 110.173 31.9424C110.173 31.5459 110.25 31.1973 110.405 30.8965C110.56 30.5911 110.784 30.3382 111.075 30.1377C111.367 29.9326 111.718 29.7777 112.128 29.6729C112.538 29.568 112.996 29.5156 113.502 29.5156H114.972ZM120.967 33.0977C121.268 33.0977 121.546 33.0361 121.801 32.9131C122.056 32.79 122.266 32.6214 122.43 32.4072C122.594 32.1885 122.687 31.9401 122.71 31.6621H123.913C123.89 32.0996 123.742 32.5075 123.469 32.8857C123.2 33.2594 122.847 33.5625 122.409 33.7949C121.972 34.0228 121.491 34.1367 120.967 34.1367C120.411 34.1367 119.925 34.0387 119.511 33.8428C119.101 33.6468 118.759 33.3779 118.485 33.0361C118.216 32.6943 118.014 32.3024 117.877 31.8604C117.745 31.4137 117.679 30.9421 117.679 30.4453V30.1582C117.679 29.6615 117.745 29.1921 117.877 28.75C118.014 28.3034 118.216 27.9092 118.485 27.5674C118.759 27.2256 119.101 26.9567 119.511 26.7607C119.925 26.5648 120.411 26.4668 120.967 26.4668C121.546 26.4668 122.051 26.5853 122.484 26.8223C122.917 27.0547 123.257 27.3737 123.503 27.7793C123.754 28.1803 123.89 28.6361 123.913 29.1465H122.71C122.687 28.8411 122.601 28.5654 122.45 28.3193C122.304 28.0732 122.104 27.8773 121.849 27.7314C121.598 27.5811 121.304 27.5059 120.967 27.5059C120.579 27.5059 120.254 27.5833 119.989 27.7383C119.729 27.8887 119.522 28.0938 119.367 28.3535C119.217 28.6087 119.107 28.8936 119.039 29.208C118.975 29.5179 118.943 29.8346 118.943 30.1582V30.4453C118.943 30.7689 118.975 31.0879 119.039 31.4023C119.103 31.7168 119.21 32.0016 119.36 32.2568C119.515 32.512 119.723 32.7171 119.982 32.8721C120.247 33.0225 120.575 33.0977 120.967 33.0977ZM126.606 23.5V34H125.335V23.5H126.606ZM131.125 26.6035L127.898 30.0557L126.094 31.9287L125.991 30.582L127.283 29.0371L129.58 26.6035H131.125ZM129.97 34L127.331 30.4727L127.987 29.3447L131.46 34H129.97ZM132.424 23.5H133.695V32.5645L133.586 34H132.424V23.5ZM138.692 30.2402V30.3838C138.692 30.9215 138.629 31.4206 138.501 31.8809C138.373 32.3366 138.187 32.7331 137.94 33.0703C137.694 33.4076 137.394 33.6696 137.038 33.8564C136.683 34.0433 136.275 34.1367 135.814 34.1367C135.345 34.1367 134.933 34.057 134.577 33.8975C134.226 33.7334 133.93 33.4987 133.688 33.1934C133.447 32.888 133.253 32.5189 133.107 32.0859C132.966 31.653 132.868 31.1654 132.813 30.623V29.9941C132.868 29.4473 132.966 28.9574 133.107 28.5244C133.253 28.0915 133.447 27.7223 133.688 27.417C133.93 27.1071 134.226 26.8724 134.577 26.7129C134.928 26.5488 135.336 26.4668 135.801 26.4668C136.266 26.4668 136.678 26.5579 137.038 26.7402C137.398 26.918 137.699 27.1732 137.94 27.5059C138.187 27.8385 138.373 28.2373 138.501 28.7021C138.629 29.1624 138.692 29.6751 138.692 30.2402ZM137.421 30.3838V30.2402C137.421 29.8711 137.387 29.5247 137.318 29.2012C137.25 28.873 137.141 28.5859 136.99 28.3398C136.84 28.0892 136.642 27.8932 136.396 27.752C136.149 27.6061 135.846 27.5332 135.486 27.5332C135.167 27.5332 134.889 27.5879 134.652 27.6973C134.42 27.8066 134.222 27.9548 134.058 28.1416C133.894 28.3239 133.759 28.5335 133.654 28.7705C133.554 29.0029 133.479 29.2445 133.429 29.4951V31.1426C133.502 31.4616 133.62 31.7692 133.784 32.0654C133.953 32.3571 134.176 32.5964 134.454 32.7832C134.737 32.9701 135.085 33.0635 135.5 33.0635C135.842 33.0635 136.133 32.9951 136.375 32.8584C136.621 32.7171 136.819 32.5234 136.97 32.2773C137.125 32.0312 137.239 31.7464 137.312 31.4229C137.384 31.0993 137.421 30.7529 137.421 30.3838ZM144.653 32.7354V28.9277C144.653 28.6361 144.594 28.3831 144.476 28.1689C144.362 27.9502 144.188 27.7816 143.956 27.6631C143.724 27.5446 143.437 27.4854 143.095 27.4854C142.776 27.4854 142.495 27.54 142.254 27.6494C142.017 27.7588 141.83 27.9023 141.693 28.0801C141.561 28.2578 141.495 28.4492 141.495 28.6543H140.23C140.23 28.39 140.299 28.1279 140.436 27.8682C140.572 27.6084 140.768 27.3737 141.023 27.1641C141.283 26.9499 141.593 26.7812 141.953 26.6582C142.318 26.5306 142.723 26.4668 143.17 26.4668C143.708 26.4668 144.182 26.5579 144.592 26.7402C145.007 26.9225 145.33 27.1982 145.562 27.5674C145.799 27.932 145.918 28.39 145.918 28.9414V32.3867C145.918 32.6328 145.938 32.8949 145.979 33.1729C146.025 33.4508 146.091 33.6901 146.178 33.8906V34H144.858C144.795 33.8542 144.744 33.6605 144.708 33.4189C144.672 33.1729 144.653 32.945 144.653 32.7354ZM144.872 29.5156L144.886 30.4043H143.607C143.247 30.4043 142.926 30.4339 142.644 30.4932C142.361 30.5479 142.124 30.6322 141.933 30.7461C141.741 30.86 141.595 31.0036 141.495 31.1768C141.395 31.3454 141.345 31.5436 141.345 31.7715C141.345 32.0039 141.397 32.2158 141.502 32.4072C141.607 32.5986 141.764 32.7513 141.974 32.8652C142.188 32.9746 142.45 33.0293 142.76 33.0293C143.147 33.0293 143.489 32.9473 143.785 32.7832C144.081 32.6191 144.316 32.4186 144.489 32.1816C144.667 31.9447 144.763 31.7145 144.776 31.4912L145.316 32.0996C145.285 32.291 145.198 32.5029 145.057 32.7354C144.915 32.9678 144.726 33.1911 144.489 33.4053C144.257 33.6149 143.979 33.7904 143.655 33.9316C143.336 34.0684 142.976 34.1367 142.575 34.1367C142.074 34.1367 141.634 34.0387 141.256 33.8428C140.882 33.6468 140.59 33.3848 140.381 33.0566C140.176 32.724 140.073 32.3525 140.073 31.9424C140.073 31.5459 140.151 31.1973 140.306 30.8965C140.461 30.5911 140.684 30.3382 140.976 30.1377C141.267 29.9326 141.618 29.7777 142.028 29.6729C142.438 29.568 142.896 29.5156 143.402 29.5156H144.872ZM149.172 27.7656V34H147.907V26.6035H149.138L149.172 27.7656ZM151.482 26.5625L151.476 27.7383C151.371 27.7155 151.271 27.7018 151.175 27.6973C151.084 27.6882 150.979 27.6836 150.86 27.6836C150.569 27.6836 150.311 27.7292 150.088 27.8203C149.865 27.9115 149.675 28.0391 149.521 28.2031C149.366 28.3672 149.243 28.5632 149.151 28.791C149.065 29.0143 149.008 29.2604 148.98 29.5293L148.625 29.7344C148.625 29.2878 148.668 28.8685 148.755 28.4766C148.846 28.0846 148.985 27.7383 149.172 27.4375C149.359 27.1322 149.596 26.8952 149.883 26.7266C150.174 26.5534 150.521 26.4668 150.922 26.4668C151.013 26.4668 151.118 26.4782 151.236 26.501C151.355 26.5192 151.437 26.5397 151.482 26.5625ZM157.997 32.6875L159.897 26.6035H160.731L160.567 27.8135L158.633 34H157.819L157.997 32.6875ZM156.719 26.6035L158.339 32.7559L158.455 34H157.601L155.454 26.6035H156.719ZM162.55 32.708L164.095 26.6035H165.353L163.206 34H162.358L162.55 32.708ZM160.916 26.6035L162.775 32.585L162.987 34H162.181L160.191 27.7998L160.027 26.6035H160.916ZM168.025 26.6035V34H166.754V26.6035H168.025ZM166.658 24.6416C166.658 24.4365 166.72 24.2633 166.843 24.1221C166.97 23.9808 167.157 23.9102 167.403 23.9102C167.645 23.9102 167.829 23.9808 167.957 24.1221C168.089 24.2633 168.155 24.4365 168.155 24.6416C168.155 24.8376 168.089 25.0062 167.957 25.1475C167.829 25.2842 167.645 25.3525 167.403 25.3525C167.157 25.3525 166.97 25.2842 166.843 25.1475C166.72 25.0062 166.658 24.8376 166.658 24.6416ZM173.152 26.6035V27.5742H169.153V26.6035H173.152ZM170.507 24.8057H171.771V32.168C171.771 32.4186 171.81 32.6077 171.888 32.7354C171.965 32.863 172.065 32.9473 172.188 32.9883C172.312 33.0293 172.444 33.0498 172.585 33.0498C172.69 33.0498 172.799 33.0407 172.913 33.0225C173.032 32.9997 173.12 32.9814 173.18 32.9678L173.187 34C173.086 34.0319 172.954 34.0615 172.79 34.0889C172.631 34.1208 172.437 34.1367 172.209 34.1367C171.899 34.1367 171.614 34.0752 171.354 33.9521C171.095 33.8291 170.887 33.624 170.732 33.3369C170.582 33.0452 170.507 32.6533 170.507 32.1611V24.8057ZM175.9 23.5V34H174.636V23.5H175.9ZM175.6 30.0215L175.073 30.001C175.078 29.4951 175.153 29.028 175.299 28.5996C175.445 28.1667 175.65 27.7907 175.914 27.4717C176.178 27.1527 176.493 26.9066 176.857 26.7334C177.227 26.5557 177.634 26.4668 178.081 26.4668C178.446 26.4668 178.774 26.5169 179.065 26.6172C179.357 26.7129 179.605 26.8678 179.811 27.082C180.02 27.2962 180.18 27.5742 180.289 27.916C180.398 28.2533 180.453 28.6657 180.453 29.1533V34H179.182V29.1396C179.182 28.7523 179.125 28.4424 179.011 28.21C178.897 27.973 178.73 27.8021 178.512 27.6973C178.293 27.5879 178.024 27.5332 177.705 27.5332C177.391 27.5332 177.104 27.5993 176.844 27.7314C176.589 27.8636 176.368 28.0459 176.181 28.2783C175.998 28.5107 175.855 28.7773 175.75 29.0781C175.65 29.3743 175.6 29.6888 175.6 30.0215ZM190.181 32.7354V28.9277C190.181 28.6361 190.121 28.3831 190.003 28.1689C189.889 27.9502 189.716 27.7816 189.483 27.6631C189.251 27.5446 188.964 27.4854 188.622 27.4854C188.303 27.4854 188.023 27.54 187.781 27.6494C187.544 27.7588 187.357 27.9023 187.221 28.0801C187.089 28.2578 187.022 28.4492 187.022 28.6543H185.758C185.758 28.39 185.826 28.1279 185.963 27.8682C186.1 27.6084 186.296 27.3737 186.551 27.1641C186.811 26.9499 187.12 26.7812 187.48 26.6582C187.845 26.5306 188.251 26.4668 188.697 26.4668C189.235 26.4668 189.709 26.5579 190.119 26.7402C190.534 26.9225 190.857 27.1982 191.09 27.5674C191.327 27.932 191.445 28.39 191.445 28.9414V32.3867C191.445 32.6328 191.466 32.8949 191.507 33.1729C191.552 33.4508 191.618 33.6901 191.705 33.8906V34H190.386C190.322 33.8542 190.272 33.6605 190.235 33.4189C190.199 33.1729 190.181 32.945 190.181 32.7354ZM190.399 29.5156L190.413 30.4043H189.135C188.775 30.4043 188.453 30.4339 188.171 30.4932C187.888 30.5479 187.651 30.6322 187.46 30.7461C187.269 30.86 187.123 31.0036 187.022 31.1768C186.922 31.3454 186.872 31.5436 186.872 31.7715C186.872 32.0039 186.924 32.2158 187.029 32.4072C187.134 32.5986 187.291 32.7513 187.501 32.8652C187.715 32.9746 187.977 33.0293 188.287 33.0293C188.674 33.0293 189.016 32.9473 189.312 32.7832C189.609 32.6191 189.843 32.4186 190.017 32.1816C190.194 31.9447 190.29 31.7145 190.304 31.4912L190.844 32.0996C190.812 32.291 190.725 32.5029 190.584 32.7354C190.443 32.9678 190.254 33.1911 190.017 33.4053C189.784 33.6149 189.506 33.7904 189.183 33.9316C188.864 34.0684 188.504 34.1367 188.103 34.1367C187.601 34.1367 187.161 34.0387 186.783 33.8428C186.41 33.6468 186.118 33.3848 185.908 33.0566C185.703 32.724 185.601 32.3525 185.601 31.9424C185.601 31.5459 185.678 31.1973 185.833 30.8965C185.988 30.5911 186.211 30.3382 186.503 30.1377C186.795 29.9326 187.146 29.7777 187.556 29.6729C187.966 29.568 188.424 29.5156 188.93 29.5156H190.399ZM196.395 33.0977C196.695 33.0977 196.973 33.0361 197.229 32.9131C197.484 32.79 197.693 32.6214 197.857 32.4072C198.021 32.1885 198.115 31.9401 198.138 31.6621H199.341C199.318 32.0996 199.17 32.5075 198.896 32.8857C198.628 33.2594 198.274 33.5625 197.837 33.7949C197.399 34.0228 196.919 34.1367 196.395 34.1367C195.839 34.1367 195.353 34.0387 194.938 33.8428C194.528 33.6468 194.187 33.3779 193.913 33.0361C193.644 32.6943 193.441 32.3024 193.305 31.8604C193.173 31.4137 193.106 30.9421 193.106 30.4453V30.1582C193.106 29.6615 193.173 29.1921 193.305 28.75C193.441 28.3034 193.644 27.9092 193.913 27.5674C194.187 27.2256 194.528 26.9567 194.938 26.7607C195.353 26.5648 195.839 26.4668 196.395 26.4668C196.973 26.4668 197.479 26.5853 197.912 26.8223C198.345 27.0547 198.685 27.3737 198.931 27.7793C199.181 28.1803 199.318 28.6361 199.341 29.1465H198.138C198.115 28.8411 198.028 28.5654 197.878 28.3193C197.732 28.0732 197.532 27.8773 197.276 27.7314C197.026 27.5811 196.732 27.5059 196.395 27.5059C196.007 27.5059 195.681 27.5833 195.417 27.7383C195.157 27.8887 194.95 28.0938 194.795 28.3535C194.645 28.6087 194.535 28.8936 194.467 29.208C194.403 29.5179 194.371 29.8346 194.371 30.1582V30.4453C194.371 30.7689 194.403 31.0879 194.467 31.4023C194.531 31.7168 194.638 32.0016 194.788 32.2568C194.943 32.512 195.15 32.7171 195.41 32.8721C195.674 33.0225 196.003 33.0977 196.395 33.0977ZM203.859 26.6035V27.5742H199.86V26.6035H203.859ZM201.214 24.8057H202.479V32.168C202.479 32.4186 202.517 32.6077 202.595 32.7354C202.672 32.863 202.772 32.9473 202.896 32.9883C203.019 33.0293 203.151 33.0498 203.292 33.0498C203.397 33.0498 203.506 33.0407 203.62 33.0225C203.739 32.9997 203.827 32.9814 203.887 32.9678L203.894 34C203.793 34.0319 203.661 34.0615 203.497 34.0889C203.338 34.1208 203.144 34.1367 202.916 34.1367C202.606 34.1367 202.321 34.0752 202.062 33.9521C201.802 33.8291 201.594 33.624 201.439 33.3369C201.289 33.0452 201.214 32.6533 201.214 32.1611V24.8057ZM206.717 26.6035V34H205.445V26.6035H206.717ZM205.35 24.6416C205.35 24.4365 205.411 24.2633 205.534 24.1221C205.662 23.9808 205.849 23.9102 206.095 23.9102C206.336 23.9102 206.521 23.9808 206.648 24.1221C206.781 24.2633 206.847 24.4365 206.847 24.6416C206.847 24.8376 206.781 25.0062 206.648 25.1475C206.521 25.2842 206.336 25.3525 206.095 25.3525C205.849 25.3525 205.662 25.2842 205.534 25.1475C205.411 25.0062 205.35 24.8376 205.35 24.6416ZM208.412 30.3838V30.2266C208.412 29.6934 208.49 29.1989 208.645 28.7432C208.799 28.2829 209.023 27.8841 209.314 27.5469C209.606 27.2051 209.959 26.9408 210.374 26.7539C210.789 26.5625 211.254 26.4668 211.769 26.4668C212.288 26.4668 212.755 26.5625 213.17 26.7539C213.589 26.9408 213.945 27.2051 214.236 27.5469C214.533 27.8841 214.758 28.2829 214.913 28.7432C215.068 29.1989 215.146 29.6934 215.146 30.2266V30.3838C215.146 30.917 215.068 31.4115 214.913 31.8672C214.758 32.3229 214.533 32.7217 214.236 33.0635C213.945 33.4007 213.591 33.665 213.177 33.8564C212.767 34.0433 212.302 34.1367 211.782 34.1367C211.263 34.1367 210.796 34.0433 210.381 33.8564C209.966 33.665 209.611 33.4007 209.314 33.0635C209.023 32.7217 208.799 32.3229 208.645 31.8672C208.49 31.4115 208.412 30.917 208.412 30.3838ZM209.677 30.2266V30.3838C209.677 30.7529 209.72 31.1016 209.807 31.4297C209.893 31.7533 210.023 32.0404 210.196 32.291C210.374 32.5417 210.595 32.7399 210.859 32.8857C211.124 33.027 211.431 33.0977 211.782 33.0977C212.129 33.0977 212.432 33.027 212.691 32.8857C212.956 32.7399 213.174 32.5417 213.348 32.291C213.521 32.0404 213.651 31.7533 213.737 31.4297C213.828 31.1016 213.874 30.7529 213.874 30.3838V30.2266C213.874 29.862 213.828 29.5179 213.737 29.1943C213.651 28.8662 213.519 28.5768 213.341 28.3262C213.168 28.071 212.949 27.8704 212.685 27.7246C212.425 27.5788 212.119 27.5059 211.769 27.5059C211.422 27.5059 211.117 27.5788 210.853 27.7246C210.593 27.8704 210.374 28.071 210.196 28.3262C210.023 28.5768 209.893 28.8662 209.807 29.1943C209.72 29.5179 209.677 29.862 209.677 30.2266ZM217.996 28.1826V34H216.731V26.6035H217.928L217.996 28.1826ZM217.695 30.0215L217.169 30.001C217.174 29.4951 217.249 29.028 217.395 28.5996C217.54 28.1667 217.745 27.7907 218.01 27.4717C218.274 27.1527 218.589 26.9066 218.953 26.7334C219.322 26.5557 219.73 26.4668 220.177 26.4668C220.541 26.4668 220.869 26.5169 221.161 26.6172C221.453 26.7129 221.701 26.8678 221.906 27.082C222.116 27.2962 222.275 27.5742 222.385 27.916C222.494 28.2533 222.549 28.6657 222.549 29.1533V34H221.277V29.1396C221.277 28.7523 221.22 28.4424 221.106 28.21C220.993 27.973 220.826 27.8021 220.607 27.6973C220.389 27.5879 220.12 27.5332 219.801 27.5332C219.486 27.5332 219.199 27.5993 218.939 27.7314C218.684 27.8636 218.463 28.0459 218.276 28.2783C218.094 28.5107 217.951 28.7773 217.846 29.0781C217.745 29.3743 217.695 29.6888 217.695 30.0215Z" fill="#322F35"/>
<g clip-path="url(#clip0_56029_2816)">
<path d="M299.105 27.373L296.132 36H294.334L298.08 26.0469H299.229L299.105 27.373ZM301.594 36L298.613 27.373L298.483 26.0469H299.639L303.398 36H301.594ZM301.45 32.3086V33.6689H296.036V32.3086H301.45ZM307.37 34.8242C307.639 34.8242 307.881 34.7718 308.095 34.667C308.313 34.5576 308.489 34.4072 308.621 34.2158C308.758 34.0244 308.833 33.8034 308.847 33.5527H310.398C310.389 34.0312 310.248 34.4665 309.975 34.8584C309.701 35.2503 309.339 35.5625 308.888 35.7949C308.437 36.0228 307.938 36.1367 307.391 36.1367C306.826 36.1367 306.333 36.041 305.914 35.8496C305.495 35.6536 305.146 35.3848 304.868 35.043C304.59 34.7012 304.381 34.307 304.239 33.8604C304.103 33.4137 304.034 32.9352 304.034 32.4248V32.1855C304.034 31.6751 304.103 31.1966 304.239 30.75C304.381 30.2988 304.59 29.9023 304.868 29.5605C305.146 29.2188 305.495 28.9521 305.914 28.7607C306.333 28.5648 306.823 28.4668 307.384 28.4668C307.976 28.4668 308.496 28.5853 308.942 28.8223C309.389 29.0547 309.74 29.3805 309.995 29.7998C310.255 30.2145 310.389 30.6976 310.398 31.249H308.847C308.833 30.9756 308.765 30.7295 308.642 30.5107C308.523 30.2874 308.354 30.1097 308.136 29.9775C307.922 29.8454 307.664 29.7793 307.363 29.7793C307.031 29.7793 306.755 29.8477 306.536 29.9844C306.317 30.1165 306.146 30.2988 306.023 30.5312C305.9 30.7591 305.812 31.0166 305.757 31.3037C305.707 31.5863 305.682 31.8802 305.682 32.1855V32.4248C305.682 32.7301 305.707 33.0264 305.757 33.3135C305.807 33.6006 305.894 33.8581 306.017 34.0859C306.144 34.3092 306.317 34.4893 306.536 34.626C306.755 34.7581 307.033 34.8242 307.37 34.8242ZM315.054 28.6035V29.8066H310.884V28.6035H315.054ZM312.087 26.792H313.734V33.9561C313.734 34.1839 313.766 34.3594 313.83 34.4824C313.898 34.6009 313.992 34.6807 314.11 34.7217C314.229 34.7627 314.368 34.7832 314.527 34.7832C314.641 34.7832 314.751 34.7764 314.855 34.7627C314.96 34.749 315.045 34.7354 315.108 34.7217L315.115 35.9795C314.979 36.0205 314.819 36.057 314.637 36.0889C314.459 36.1208 314.254 36.1367 314.021 36.1367C313.643 36.1367 313.308 36.0706 313.017 35.9385C312.725 35.8018 312.497 35.5807 312.333 35.2754C312.169 34.9701 312.087 34.5645 312.087 34.0586V26.792ZM318.089 28.6035V36H316.435V28.6035H318.089ZM316.325 26.6621C316.325 26.4115 316.407 26.2041 316.571 26.04C316.74 25.8714 316.972 25.7871 317.269 25.7871C317.56 25.7871 317.79 25.8714 317.959 26.04C318.128 26.2041 318.212 26.4115 318.212 26.6621C318.212 26.9082 318.128 27.1133 317.959 27.2773C317.79 27.4414 317.56 27.5234 317.269 27.5234C316.972 27.5234 316.74 27.4414 316.571 27.2773C316.407 27.1133 316.325 26.9082 316.325 26.6621ZM319.579 32.3838V32.2266C319.579 31.6934 319.657 31.1989 319.812 30.7432C319.966 30.2829 320.19 29.8841 320.481 29.5469C320.778 29.2051 321.138 28.9408 321.562 28.7539C321.99 28.5625 322.473 28.4668 323.011 28.4668C323.553 28.4668 324.036 28.5625 324.46 28.7539C324.888 28.9408 325.251 29.2051 325.547 29.5469C325.843 29.8841 326.069 30.2829 326.224 30.7432C326.379 31.1989 326.456 31.6934 326.456 32.2266V32.3838C326.456 32.917 326.379 33.4115 326.224 33.8672C326.069 34.3229 325.843 34.7217 325.547 35.0635C325.251 35.4007 324.891 35.665 324.467 35.8564C324.043 36.0433 323.562 36.1367 323.024 36.1367C322.482 36.1367 321.997 36.0433 321.568 35.8564C321.145 35.665 320.785 35.4007 320.488 35.0635C320.192 34.7217 319.966 34.3229 319.812 33.8672C319.657 33.4115 319.579 32.917 319.579 32.3838ZM321.227 32.2266V32.3838C321.227 32.7165 321.261 33.0309 321.329 33.3271C321.397 33.6234 321.505 33.8831 321.65 34.1064C321.796 34.3298 321.983 34.5052 322.211 34.6328C322.439 34.7604 322.71 34.8242 323.024 34.8242C323.33 34.8242 323.594 34.7604 323.817 34.6328C324.045 34.5052 324.232 34.3298 324.378 34.1064C324.524 33.8831 324.631 33.6234 324.699 33.3271C324.772 33.0309 324.809 32.7165 324.809 32.3838V32.2266C324.809 31.8984 324.772 31.5885 324.699 31.2969C324.631 31.0007 324.521 30.7386 324.371 30.5107C324.225 30.2829 324.038 30.1051 323.811 29.9775C323.587 29.8454 323.321 29.7793 323.011 29.7793C322.701 29.7793 322.432 29.8454 322.204 29.9775C321.981 30.1051 321.796 30.2829 321.65 30.5107C321.505 30.7386 321.397 31.0007 321.329 31.2969C321.261 31.5885 321.227 31.8984 321.227 32.2266ZM329.471 30.1826V36H327.823V28.6035H329.375L329.471 30.1826ZM329.177 32.0283L328.644 32.0215C328.648 31.4974 328.721 31.0166 328.862 30.5791C329.008 30.1416 329.209 29.7656 329.464 29.4512C329.724 29.1367 330.034 28.8952 330.394 28.7266C330.754 28.5534 331.155 28.4668 331.597 28.4668C331.952 28.4668 332.273 28.5169 332.561 28.6172C332.852 28.7129 333.101 28.8701 333.306 29.0889C333.515 29.3076 333.675 29.5924 333.784 29.9434C333.894 30.2897 333.948 30.7158 333.948 31.2217V36H332.294V31.2148C332.294 30.8594 332.242 30.5791 332.137 30.374C332.036 30.1644 331.888 30.0163 331.692 29.9297C331.501 29.8385 331.262 29.793 330.975 29.793C330.692 29.793 330.439 29.8522 330.216 29.9707C329.993 30.0892 329.803 30.251 329.648 30.4561C329.498 30.6611 329.382 30.8981 329.3 31.167C329.218 31.4359 329.177 31.723 329.177 32.0283Z" fill="#6750A4"/>
</g>
</g>
<defs>
<filter id="filter0_dd_56029_2816" x="0" y="0" width="366" height="70" filterUnits="userSpaceOnUse" color-interpolation-filters="sRGB">
<feFlood flood-opacity="0" result="BackgroundImageFix"/>
<feColorMatrix in="SourceAlpha" type="matrix" values="0 0 0 0 0 0 0 0 0 0 0 0 0 0 0 0 0 0 127 0" result="hardAlpha"/>
<feOffset dy="1"/>
<feGaussianBlur stdDeviation="1.5"/>
<feColorMatrix type="matrix" values="0 0 0 0 0 0 0 0 0 0 0 0 0 0 0 0 0 0 0.3 0"/>
<feBlend mode="normal" in2="BackgroundImageFix" result="effect1_dropShadow_56029_2816"/>
<feColorMatrix in="SourceAlpha" type="matrix" values="0 0 0 0 0 0 0 0 0 0 0 0 0 0 0 0 0 0 127 0" result="hardAlpha"/>
<feMorphology radius="3" operator="dilate" in="SourceAlpha" result="effect2_dropShadow_56029_2816"/>
<feOffset dy="4"/>
<feGaussianBlur stdDeviation="4"/>
<feColorMatrix type="matrix" values="0 0 0 0 0 0 0 0 0 0 0 0 0 0 0 0 0 0 0.15 0"/>
<feBlend mode="normal" in2="effect1_dropShadow_56029_2816" result="effect2_dropShadow_56029_2816"/>
<feBlend mode="normal" in="SourceGraphic" in2="effect2_dropShadow_56029_2816" result="shape"/>
</filter>
<clipPath id="clip0_56029_2816">
<rect x="282" y="11" width="65" height="40" rx="20" fill="white"/>
</clipPath>
</defs>
</svg>
