<svg width="359" height="160" viewBox="0 0 359 160" fill="none" xmlns="http://www.w3.org/2000/svg">
<g clip-path="url(#clip0_56031_2784)">
<rect width="359" height="160" fill="url(#paint0_linear_56031_2784)"/>
<g opacity="0.2" clip-path="url(#clip1_56031_2784)">
<path d="M387.462 106.533C390.265 153.104 349.488 157.211 312.197 165.229C295.006 168.951 242.023 175.787 254.68 141.597C259.305 129.167 278.289 117.816 292.547 108.501C303.275 101.555 296.012 102.146 291.187 103.002C270.04 106.786 237.043 112.585 239.982 83.3544C241.942 63.6743 266.157 46.0612 285.112 36.7425C294.349 32.1907 288.331 31.943 284.913 31.6312C272.64 30.5676 260.181 30.5146 254.327 19.182C247.77 6.57617 252.076 -9.10249 258.589 -17.0317C274.558 -36.4633 318.503 -53.6035 342.871 -42.7992C362.129 -34.2516 367.473 -7.16644 372.186 10.911C380.297 42.1346 385.544 74.3078 387.53 106.612L387.462 106.533Z" fill="url(#paint1_linear_56031_2784)"/>
</g>
<path opacity="0.2" d="M93.8581 216.711C107.562 210.324 120.657 199.73 124.481 182.865C126.566 173.661 125.691 167.311 122.511 159.31C115.491 141.238 102.056 134.864 86.8359 132.4C82.9129 131.743 83.5999 130.781 85.965 129.178C96.376 122.303 105.423 112.629 103.835 97.6499C101.426 75.5078 87.8367 65.2055 66.2684 61.5322C63.338 61.0351 62.2659 60.9528 64.8879 58.8436C84.3194 43.523 74.4304 14.327 59.5609 2.47091C36.4658 -15.9891 -0.171016 -10.6657 -27.482 -1.84734C-52.0398 6.09278 -87.1344 26.2508 -75.5646 58.0926C-70.5266 71.9183 -56.3889 82.629 -40.7958 83.9657C-37.8319 84.24 -35.1623 83.9188 -38.6359 85.9815C-77.8422 108.989 -50.183 159.298 -16.0901 159.772C-11.1996 159.856 -11.8726 161.025 -14.9999 163.189C-30.7652 174.264 -35.6107 197.766 -25.5803 214.454C-4.54084 249.586 47.8806 238.166 93.8734 216.759L93.8581 216.711Z" fill="url(#paint2_linear_56031_2784)"/>
<rect x="83.5" y="40" width="80" height="80" rx="20" fill="url(#paint3_linear_56031_2784)"/>
<path d="M123.5 56C136.753 56 147.5 66.7472 147.5 80C147.5 93.2528 136.753 104 123.5 104C110.247 104 99.5 93.2528 99.5 80C99.5 66.7472 110.247 56 123.5 56Z" fill="#621EE5"/>
<path d="M106.523 81.7759C106.427 81.6751 106.311 81.5935 106.182 81.5359C106.052 81.4783 105.913 81.4495 105.774 81.4495C105.635 81.4495 105.495 81.4783 105.366 81.5311C105.236 81.5887 105.121 81.6703 105.025 81.7711C104.924 81.8719 104.847 81.9871 104.795 82.1167C104.742 82.2511 104.718 82.3855 104.718 82.5247C104.718 82.6639 104.742 82.8031 104.795 82.9327C104.847 83.0623 104.929 83.1775 105.025 83.2783C105.222 83.4847 105.491 83.5999 105.779 83.5951C106.062 83.5951 106.335 83.4847 106.532 83.2783C106.633 83.1823 106.715 83.0671 106.767 82.9375C106.82 82.8079 106.849 82.6687 106.849 82.5295C106.849 82.3903 106.82 82.2511 106.767 82.1215C106.71 81.9871 106.633 81.8719 106.532 81.7759H106.523ZM119.103 79.3375C119.089 80.0095 119.123 80.6863 119.199 81.3583H119.161C119.075 81.1951 118.892 80.8879 118.604 80.4367L111.75 69.6799H109.671V83.4127H111.27V73.4863C111.289 72.8575 111.26 72.2287 111.193 71.5999H111.255C111.371 71.9023 111.515 72.1903 111.692 72.4591L118.734 83.4127H120.702V69.6799H119.103V79.3375ZM131.545 81.9055H125.895V77.1487H130.839V75.6991H125.895V71.1343H131.199V69.6799H124.254V83.4127H131.535L131.545 81.9055ZM132.769 69.6799V71.1343H136.705V83.4127H138.303V71.1343H142.287V69.6799H132.769Z" fill="white"/>
<path d="M118.484 90.9872C118.484 89.8448 118.499 88.6256 118.523 87.9536H118.494C118.201 89.1152 117.299 91.8032 116.67 93.5984H115.873C115.403 92.0912 114.471 89.1536 114.179 87.9392H114.145C114.193 88.6688 114.217 90.0656 114.217 91.1456V93.5984H113.396V87.3104H114.711C115.326 89.096 116.118 91.592 116.324 92.4752H116.339C116.463 91.832 117.423 89.1104 118.067 87.3104H119.343V93.5984H118.489V90.9824L118.484 90.9872Z" fill="white"/>
<path d="M121.82 91.7696L121.24 93.6032H120.366C120.74 92.4944 121.969 88.5728 122.387 87.3152H123.5L125.612 93.6032H124.681L124.081 91.7696H121.816H121.82ZM123.884 91.0208C123.38 89.4656 123.054 88.5392 122.929 88.0208H122.915C122.742 88.7552 122.425 89.7248 122.012 91.0208H123.889H123.884Z" fill="white"/>
<path d="M127.359 87.3152V91.3184C127.359 92.2592 127.695 92.9648 128.78 92.9648C129.865 92.9648 130.172 92.2928 130.172 91.3136V87.3152H131.065V91.3424C131.065 92.6672 130.513 93.6896 128.761 93.6896C127.115 93.6896 126.481 92.816 126.481 91.3808V87.3104H127.364L127.359 87.3152Z" fill="white"/>
<path d="M133.609 87.3152V93.6032H132.735V87.3152H133.609Z" fill="white"/>
<rect x="195.5" y="40" width="80" height="80" rx="20" fill="url(#paint4_linear_56031_2784)"/>
<path d="M224.093 56C222.637 56 221.213 56.8307 220.479 58.0931L209.07 77.9069C208.347 79.1693 208.347 80.8254 209.07 82.0931L220.479 101.907C221.213 103.169 222.637 103.995 224.093 104H246.907C248.363 104 249.787 103.169 250.521 101.907L261.93 82.0931C262.653 80.8308 262.653 79.1746 261.93 77.9069L250.521 58.0931C249.787 56.8307 248.363 56.0054 246.907 56H224.093ZM224.298 67.5927C224.331 67.5927 224.363 67.5927 224.395 67.5927H228.328C228.506 67.5981 228.668 67.6952 228.76 67.8463L235.433 79.7411C235.465 79.8004 235.486 79.8651 235.497 79.9353C235.508 79.8705 235.53 79.8004 235.562 79.7411L242.219 67.8463C242.31 67.6898 242.483 67.5927 242.666 67.5927H246.599C246.95 67.5927 247.209 68.0351 247.047 68.3425L240.53 80L247.047 91.6413C247.225 91.9488 246.96 92.4127 246.599 92.4073H242.666C242.478 92.4073 242.31 92.2994 242.219 92.1376L235.562 80.2428C235.53 80.1834 235.508 80.1187 235.497 80.0486C235.486 80.1187 235.465 80.1834 235.433 80.2428L228.76 92.1376C228.673 92.294 228.511 92.4019 228.328 92.4073H224.39C224.034 92.4073 223.764 91.9488 223.942 91.6413L230.459 80L223.942 68.3425C223.786 68.062 223.975 67.6521 224.293 67.5927H224.298Z" fill="#3498DB"/>
<path d="M224.304 67.5927C224.336 67.5927 224.369 67.5927 224.401 67.5927H228.334C228.512 67.598 228.673 67.6951 228.765 67.8462L235.438 79.741C235.47 79.8003 235.492 79.8651 235.503 79.9352C235.514 79.8705 235.535 79.8003 235.568 79.741L242.224 67.8462C242.316 67.6898 242.489 67.5927 242.672 67.5927H246.605C246.955 67.5927 247.214 68.035 247.052 68.3425L240.536 79.9999L247.052 91.6412C247.23 91.9487 246.966 92.4126 246.605 92.4072H242.672C242.483 92.4072 242.316 92.2993 242.224 92.1375L235.568 80.2427C235.535 80.1833 235.514 80.1186 235.503 80.0485C235.492 80.1186 235.47 80.1833 235.438 80.2427L228.765 92.1375C228.679 92.2939 228.517 92.4018 228.334 92.4072H224.396C224.04 92.4072 223.77 91.9487 223.948 91.6412L230.464 79.9999L223.948 68.3425C223.791 68.062 223.98 67.652 224.298 67.5927H224.304Z" fill="white"/>
</g>
<defs>
<linearGradient id="paint0_linear_56031_2784" x1="359" y1="80" x2="5.25946e-07" y2="80" gradientUnits="userSpaceOnUse">
<stop stop-color="#99CEFF"/>
<stop offset="1" stop-color="#BD99FF"/>
</linearGradient>
<linearGradient id="paint1_linear_56031_2784" x1="259.5" y1="80" x2="335.5" y2="70" gradientUnits="userSpaceOnUse">
<stop stop-color="white"/>
<stop offset="1" stop-color="white" stop-opacity="0"/>
</linearGradient>
<linearGradient id="paint2_linear_56031_2784" x1="92.4999" y1="80" x2="39.4999" y2="104.5" gradientUnits="userSpaceOnUse">
<stop stop-color="white"/>
<stop offset="1" stop-color="white" stop-opacity="0"/>
</linearGradient>
<linearGradient id="paint3_linear_56031_2784" x1="163.5" y1="40" x2="83.5" y2="120" gradientUnits="userSpaceOnUse">
<stop stop-color="#F8F4FF"/>
<stop offset="1" stop-color="#E5D7FF"/>
</linearGradient>
<linearGradient id="paint4_linear_56031_2784" x1="275.5" y1="40" x2="195.5" y2="120" gradientUnits="userSpaceOnUse">
<stop stop-color="#F4FBFF"/>
<stop offset="1" stop-color="#D7EFFF"/>
</linearGradient>
<clipPath id="clip0_56031_2784">
<rect width="359" height="160" fill="white"/>
</clipPath>
<clipPath id="clip1_56031_2784">
<rect width="206" height="152" fill="white" transform="matrix(0.240126 0.970742 0.970742 -0.240126 209 -20.5009)"/>
</clipPath>
</defs>
</svg>
