<svg width="40" height="40" viewBox="0 0 40 40" fill="none" xmlns="http://www.w3.org/2000/svg">
<path d="M38.3391 12.7084C37.8309 11.4012 37.1868 10.1519 36.4177 8.98126L33.5368 11.8835L24.0704 21.42L18.4517 15.7721L15.6423 12.9296L12.8355 15.7721L4.51597 24.1384C3.80073 21.4273 3.80504 18.5745 4.52845 15.8657C5.25187 13.1569 6.66901 10.687 8.63798 8.70346C10.6069 6.71991 13.0586 5.29227 15.7476 4.56349C18.4365 3.83472 21.2683 3.83038 23.9594 4.55091L18.4517 10.0994L21.261 12.9296L27.9206 6.22068L30.8014 3.31847C26.9842 0.774886 22.4118 -0.361739 17.8581 0.101004C13.3045 0.563747 9.04953 2.59743 5.81344 5.85778C2.57736 9.11812 0.559015 13.4048 0.100083 17.9922C-0.358849 22.5796 0.769829 27.1858 3.29505 31.0311L6.17592 28.1289L15.6423 18.5899L24.0704 27.0803L25.4738 25.6665L26.8797 24.2502L35.1968 15.8715C35.9117 18.5826 35.9073 21.4354 35.1838 24.1442C34.4603 26.8531 33.0433 29.3229 31.0744 31.3066C29.1056 33.2903 26.654 34.7182 23.9652 35.4474C21.2764 36.1765 18.4446 36.1814 15.7533 35.4614L21.261 29.9105L18.4517 27.0803L11.7921 33.7892L8.91373 36.6914C10.0755 37.4661 11.3157 38.1141 12.6135 38.6246C16.2085 40.0418 20.1356 40.3725 23.9142 39.5763C27.6929 38.78 31.1592 36.8914 33.8889 34.1414C36.6186 31.3915 38.4934 27.8995 39.2838 24.0929C40.0742 20.2862 39.7459 16.33 38.3391 12.7084Z" fill="#FF3131"/>
</svg>
