<svg width="92" height="32" viewBox="0 0 92 32" fill="none" xmlns="http://www.w3.org/2000/svg">
<path d="M43.7918 4.30224C44.2168 4.29165 44.6393 4.37029 45.0323 4.53314C45.4253 4.69598 45.7802 4.93946 46.0743 5.24802C46.6861 5.87853 46.9914 6.75024 46.9902 7.86313V13.1449H44.4248V8.24179C44.4388 8.0295 44.4087 7.8166 44.3362 7.6167C44.2638 7.4168 44.1506 7.23431 44.004 7.0809C43.8625 6.94632 43.6959 6.84122 43.5139 6.77165C43.3318 6.70209 43.1379 6.66943 42.9432 6.67557C42.7289 6.66431 42.5147 6.69837 42.3143 6.77554C42.1139 6.8527 41.9318 6.97127 41.7799 7.12357C41.4934 7.42224 41.352 7.86313 41.352 8.44802V13.1449H38.7778V1.6889H41.3449V5.35113C41.8576 4.65305 42.6733 4.30342 43.7918 4.30224Z" fill="#071018"/>
<path d="M55.8337 12.0693C54.9745 12.9157 53.8196 13.3898 52.6168 13.3898C51.414 13.3898 50.2591 12.9157 49.3999 12.0693C48.9732 11.651 48.6366 11.1488 48.4112 10.594C48.1858 10.0391 48.0764 9.44361 48.0898 8.84444C48.0775 8.24452 48.1881 7.64846 48.4147 7.09336C48.6413 6.53825 48.9791 6.03597 49.407 5.61777C50.0409 4.97668 50.8499 4.5395 51.7314 4.36177C52.6129 4.18403 53.5271 4.27377 54.3577 4.61957C55.1884 4.96537 55.8981 5.55163 56.3967 6.30389C56.8953 7.05614 57.1603 7.94043 57.158 8.84444C57.1692 9.44458 57.0574 10.0406 56.8295 10.5954C56.6017 11.1502 56.2627 11.6519 55.8337 12.0693ZM51.2139 10.3111C51.5908 10.676 52.0936 10.8799 52.6168 10.8799C53.14 10.8799 53.6429 10.676 54.0198 10.3111C54.2079 10.1191 54.355 9.89036 54.4519 9.63905C54.5489 9.38775 54.5938 9.11915 54.5837 8.84977C54.5939 8.58011 54.5491 8.31121 54.4522 8.0596C54.3552 7.80798 54.208 7.57898 54.0198 7.38666C53.6425 7.02258 53.1398 6.81928 52.6168 6.81928C52.0939 6.81928 51.5912 7.02258 51.2139 7.38666C51.0257 7.57898 50.8785 7.80798 50.7815 8.0596C50.6845 8.31121 50.6397 8.58011 50.6499 8.84977C50.6399 9.11915 50.6847 9.38775 50.7817 9.63905C50.8787 9.89036 51.0258 10.1191 51.2139 10.3111Z" fill="#071018"/>
<path d="M60.9291 6.07468C61.0738 5.54193 61.4212 5.08786 61.8962 4.81068C62.3789 4.51823 62.9328 4.36622 63.4963 4.37157V7.2889C62.8926 7.18161 62.2707 7.29445 61.7424 7.60712C61.1991 7.92238 60.928 8.46994 60.9291 9.24979V13.1449H58.362V4.54223H60.9291V6.07468Z" fill="#071018"/>
<path d="M70.2201 4.54224H72.7854V13.1449H70.2201V12.336C69.705 13.0365 68.8893 13.3867 67.7731 13.3867C67.3481 13.398 66.9255 13.32 66.5322 13.1578C66.1389 12.9955 65.7835 12.7526 65.4889 12.4445C64.8783 11.8151 64.573 10.9434 64.573 9.82935V4.54224H67.1402V9.44713C67.1264 9.65924 67.1566 9.87191 67.2287 10.0717C67.3008 10.2715 67.4134 10.4541 67.5592 10.608C67.7021 10.743 67.8702 10.8482 68.0538 10.9175C68.2374 10.9868 68.4329 11.0187 68.6288 11.0116C68.8429 11.0224 69.0569 10.9883 69.2572 10.9115C69.4575 10.8347 69.6397 10.7168 69.7922 10.5653C70.0774 10.2667 70.2201 9.82461 70.2201 9.23913V4.54224Z" fill="#071018"/>
<path d="M76.7705 7.05421C76.7705 7.22607 76.9155 7.36651 77.2054 7.47555C77.5504 7.60224 77.9015 7.71141 78.2574 7.80266C78.6788 7.91536 79.0922 8.05611 79.495 8.22399C79.9167 8.40551 80.2806 8.70009 80.547 9.07555C80.8472 9.51201 80.9974 10.0351 80.9748 10.5653C80.9748 11.4933 80.633 12.1955 79.9494 12.672C79.2658 13.1484 78.4212 13.3855 77.4158 13.3831C75.6148 13.3831 74.389 12.7004 73.7384 11.3351L75.9625 10.0622C76.19 10.7401 76.6744 11.0785 77.4158 11.0773C78.0335 11.0773 78.3417 10.8995 78.3405 10.544C78.3405 10.3662 78.1955 10.2275 77.9038 10.1138C77.5609 9.98201 77.2109 9.86983 76.8554 9.77777C76.4327 9.66576 76.019 9.52195 75.6178 9.34755C75.1984 9.1665 74.8329 8.87923 74.557 8.51377C74.2582 8.11255 74.1041 7.62098 74.1203 7.11999C74.1203 6.22518 74.4426 5.53125 75.0874 5.03821C75.7784 4.53029 76.6187 4.26991 77.4742 4.29866C78.1481 4.29092 78.8132 4.45353 79.4084 4.77155C79.9915 5.08938 80.4766 5.56232 80.8104 6.13866L78.6198 7.32621C78.3546 6.82725 77.9775 6.57777 77.4883 6.57777C77.0092 6.57777 76.7705 6.73421 76.7705 7.05421Z" fill="#071018"/>
<path d="M41.207 21.3867C41.207 21.5644 41.3537 21.6996 41.6437 21.808C41.9916 21.935 42.3456 22.0441 42.7045 22.1351C43.1258 22.2481 43.5392 22.3888 43.9421 22.5564C44.3638 22.738 44.7277 23.0325 44.9941 23.408C45.2972 23.8428 45.4505 24.3654 45.4308 24.896C45.4308 25.8264 45.0884 26.5292 44.4036 27.0044C43.7187 27.4797 42.8748 27.7167 41.8718 27.7156C40.0708 27.7156 38.8443 27.0335 38.1925 25.6693L40.4167 24.3964C40.6442 25.0744 41.1292 25.4127 41.8718 25.4116C42.487 25.4116 42.7964 25.2338 42.7964 24.8782C42.7964 24.7004 42.6497 24.5618 42.3597 24.448C42.0159 24.3156 41.6646 24.2034 41.3078 24.112C40.885 24.0003 40.4713 23.8565 40.0702 23.6818C39.6505 23.5012 39.2849 23.2139 39.0094 22.848C38.7106 22.4468 38.5565 21.9552 38.5727 21.4542C38.5727 20.5594 38.895 19.8655 39.5398 19.3724C40.2308 18.8645 41.0711 18.6041 41.9266 18.6329C42.6 18.6249 43.2645 18.7875 43.859 19.1058C44.4427 19.4236 44.9283 19.8965 45.2628 20.4729L43.0722 21.6604C42.7976 21.1556 42.4157 20.9031 41.9266 20.9031C41.4474 20.9049 41.207 21.0667 41.207 21.3867Z" fill="#FF3131"/>
<path d="M51.4491 21.3529H49.6811V24.3982C49.6811 24.7413 49.819 24.96 50.0913 25.0507C50.3635 25.1413 50.8162 25.1715 51.4438 25.1378V27.4773C49.8208 27.648 48.6957 27.4904 48.0687 27.0044C47.4416 26.5185 47.1281 25.6498 47.1281 24.3982V21.3529H45.7579V18.8747H47.1281V17.2444L49.6935 16.4711V18.8782H51.4615L51.4491 21.3529Z" fill="#FF3131"/>
<path d="M58.6077 18.8747H61.1731V27.4773H58.6077V26.6667C58.095 27.3671 57.2794 27.7167 56.1608 27.7156C55.7356 27.7265 55.3127 27.648 54.9194 27.4852C54.526 27.3223 54.1708 27.0786 53.8766 26.7698C53.266 26.1381 52.9607 25.2664 52.9607 24.1547V18.8747H55.5279V23.7778C55.5139 23.9902 55.5439 24.2032 55.616 24.4033C55.6882 24.6035 55.8008 24.7864 55.9469 24.9404C56.0899 25.0753 56.2581 25.1804 56.4416 25.2496C56.6252 25.3189 56.8206 25.351 57.0165 25.344C57.2308 25.3551 57.445 25.321 57.6454 25.2439C57.8458 25.1667 58.0278 25.0482 58.1799 24.896C58.4645 24.5991 58.6077 24.1564 58.6077 23.5716V18.8747Z" fill="#FF3131"/>
<path d="M69.0249 16.0213H71.5903V27.4773H69.0249V26.6667C68.4202 27.3671 67.5704 27.7167 66.4754 27.7156C65.9272 27.7204 65.3846 27.6052 64.8851 27.3781C64.3856 27.1509 63.9413 26.8171 63.5829 26.4C62.7843 25.5211 62.3553 24.3652 62.386 23.1751C62.3556 21.9845 62.7846 20.8282 63.5829 19.9484C63.9415 19.5316 64.3859 19.198 64.8853 18.9709C65.3847 18.7437 65.9273 18.6284 66.4754 18.6329C67.5692 18.6329 68.419 18.9825 69.0249 19.6818V16.0213ZM65.5171 24.7111C65.921 25.0764 66.4449 25.2785 66.9881 25.2785C67.5313 25.2785 68.0553 25.0764 68.4591 24.7111C68.824 24.2852 69.0247 23.7417 69.0247 23.1796C69.0247 22.6174 68.824 22.0739 68.4591 21.648C68.0553 21.2827 67.5313 21.0806 66.9881 21.0806C66.4449 21.0806 65.921 21.2827 65.5171 21.648C65.1533 22.0744 64.9533 22.6177 64.9533 23.1796C64.9533 23.7414 65.1533 24.2847 65.5171 24.7111Z" fill="#FF3131"/>
<path d="M75.8476 17.6622C75.5963 17.913 75.2664 18.0684 74.9139 18.1021C74.5615 18.1358 74.2083 18.0456 73.9146 17.8469C73.6208 17.6482 73.4046 17.3533 73.3028 17.0124C73.2009 16.6714 73.2197 16.3055 73.3559 15.977C73.4922 15.6484 73.7375 15.3775 74.05 15.2103C74.3626 15.0431 74.7231 14.9899 75.0702 15.0599C75.4173 15.1299 75.7296 15.3187 75.9538 15.5942C76.1781 15.8696 76.3005 16.2147 76.3002 16.5707C76.3028 16.774 76.2639 16.9758 76.1861 17.1635C76.1083 17.3512 75.9931 17.5209 75.8476 17.6622ZM73.4785 27.4773V18.8747H76.0439V27.4773H73.4785Z" fill="#FF3131"/>
<path d="M85.0024 26.4018C84.1417 27.2452 82.9873 27.7173 81.7855 27.7173C80.5836 27.7173 79.4293 27.2452 78.5686 26.4018C77.7246 25.5426 77.2513 24.3836 77.2513 23.176C77.2513 21.9684 77.7246 20.8094 78.5686 19.9502C79.2025 19.3091 80.0115 18.872 80.893 18.6942C81.7745 18.5165 82.6887 18.6062 83.5193 18.952C84.35 19.2978 85.0597 19.8841 85.5583 20.6363C86.0569 21.3886 86.3219 22.2729 86.3196 23.1769C86.3317 23.7765 86.221 24.3722 85.9944 24.927C85.7678 25.4818 85.4301 25.9838 85.0024 26.4018ZM80.3826 24.6382C80.7595 25.0031 81.2623 25.207 81.7855 25.207C82.3087 25.207 82.8115 25.0031 83.1884 24.6382C83.5512 24.2386 83.7523 23.7171 83.7523 23.176C83.7523 22.6349 83.5512 22.1134 83.1884 21.7138C82.8111 21.3497 82.3084 21.1464 81.7855 21.1464C81.2626 21.1464 80.7599 21.3497 80.3826 21.7138C80.0187 22.1128 79.8168 22.6346 79.8168 23.176C79.8168 23.7174 80.0187 24.2392 80.3826 24.6382Z" fill="#FF3131"/>
<path d="M89.6894 27.2355C89.4247 27.498 89.0778 27.6602 88.7076 27.6946C88.3375 27.729 87.9669 27.6335 87.6589 27.4242C87.3508 27.2149 87.1244 26.9049 87.018 26.5467C86.9116 26.1885 86.9319 25.8044 87.0753 25.4595C87.2187 25.1147 87.4765 24.8304 87.8048 24.655C88.1331 24.4797 88.5116 24.424 88.8761 24.4976C89.2406 24.5711 89.5685 24.7693 89.8041 25.0584C90.0397 25.3475 90.1685 25.7098 90.1685 26.0836C90.1712 26.2983 90.13 26.5113 90.0476 26.7095C89.9652 26.9076 89.8433 27.0866 89.6894 27.2355Z" fill="#FF3131"/>
<path d="M29.2429 10.7858C28.8786 9.85054 28.4169 8.95668 27.8656 8.11912L25.8006 10.1956L19.0149 17.0187L14.9874 12.9778L12.9737 10.944L10.9617 12.9778L4.99816 18.9636C4.48548 17.0239 4.48856 14.9828 5.00712 13.0447C5.52567 11.1066 6.54149 9.33953 7.95286 7.92036C9.36423 6.50119 11.1216 5.47976 13.0491 4.95834C14.9765 4.43692 17.0064 4.43382 18.9354 4.94934L14.9874 8.91912L17.0012 10.944L21.7748 6.14401L23.8398 4.06756C21.1036 2.24771 17.826 1.43448 14.562 1.76556C11.2979 2.09664 8.24787 3.55168 5.92821 5.88436C3.60855 8.21704 2.16178 11.284 1.83282 14.5662C1.50385 17.8483 2.3129 21.1439 4.123 23.8951L6.18804 21.8187L12.9737 14.9938L19.0149 21.0685L20.0209 20.0569L21.0287 19.0436L26.9904 13.0489C27.5029 14.9886 27.4997 17.0297 26.9812 18.9678C26.4626 20.9059 25.4468 22.673 24.0355 24.0922C22.6242 25.5115 20.8669 26.5331 18.9396 27.0548C17.0122 27.5765 14.9823 27.58 13.0532 27.0649L17.0012 23.0933L14.9874 21.0685L10.2138 25.8684L8.15053 27.9449C8.98327 28.4992 9.87227 28.9628 10.8025 29.328C13.3795 30.342 16.1944 30.5786 18.903 30.0089C21.6116 29.4393 24.0963 28.088 26.053 26.1205C28.0097 24.153 29.3535 21.6546 29.9201 18.931C30.4866 16.2075 30.2513 13.3769 29.2429 10.7858Z" fill="#FF3131"/>
</svg>
