<svg width="93" height="32" viewBox="0 0 93 32" fill="none" xmlns="http://www.w3.org/2000/svg">
	<path d="M44.5111 4.3023C44.9361 4.29171 45.3586 4.37035 45.7516 4.5332C46.1446 4.69605 46.4995 4.93952 46.7936 5.24808C47.4054 5.87859 47.7107 6.7503 47.7095 7.86319V13.145H45.1441V8.24185C45.1581 8.02956 45.128 7.81666 45.0555 7.61676C44.9831 7.41687 44.8699 7.23438 44.7233 7.08097C44.5818 6.94638 44.4152 6.84128 44.2332 6.77171C44.0511 6.70215 43.8572 6.66949 43.6625 6.67563C43.4482 6.66438 43.234 6.69843 43.0336 6.7756C42.8332 6.85276 42.6511 6.97133 42.4992 7.12363C42.2127 7.4223 42.0713 7.86319 42.0713 8.44808V13.145H39.4971V1.68896H42.0642V5.35119C42.5769 4.65311 43.3926 4.30348 44.5111 4.3023Z" fill="white"/>
	<path d="M56.5531 12.0693C55.6939 12.9156 54.539 13.3897 53.3362 13.3897C52.1334 13.3897 50.9785 12.9156 50.1193 12.0693C49.6925 11.6509 49.3559 11.1487 49.1306 10.5939C48.9052 10.0391 48.7958 9.44355 48.8092 8.84438C48.7969 8.24446 48.9074 7.6484 49.134 7.0933C49.3606 6.53819 49.6984 6.03591 50.1264 5.61771C50.7602 4.97662 51.5693 4.53944 52.4508 4.36171C53.3323 4.18397 54.2464 4.27371 55.0771 4.61951C55.9078 4.96531 56.6175 5.55157 57.1161 6.30382C57.6147 7.05608 57.8796 7.94037 57.8773 8.84438C57.8885 9.44452 57.7767 10.0405 57.5489 10.5954C57.3211 11.1502 56.9821 11.6519 56.5531 12.0693ZM51.9333 10.311C52.3102 10.6759 52.813 10.8798 53.3362 10.8798C53.8594 10.8798 54.3622 10.6759 54.7391 10.311C54.9272 10.119 55.0743 9.8903 55.1713 9.63899C55.2683 9.38769 55.3132 9.11909 55.3031 8.84971C55.3133 8.58005 55.2685 8.31115 55.1715 8.05954C55.0745 7.80792 54.9274 7.57892 54.7391 7.3866C54.3618 7.02252 53.8591 6.81922 53.3362 6.81922C52.8133 6.81922 52.3106 7.02252 51.9333 7.3866C51.745 7.57892 51.5979 7.80792 51.5009 8.05954C51.4039 8.31115 51.3591 8.58005 51.3693 8.84971C51.3592 9.11909 51.4041 9.38769 51.5011 9.63899C51.5981 9.8903 51.7452 10.119 51.9333 10.311Z" fill="white"/>
	<path d="M61.6482 6.07459C61.7929 5.54184 62.1403 5.08777 62.6153 4.81059C63.098 4.51814 63.6519 4.36613 64.2154 4.37147V7.28881C63.6117 7.18152 62.9898 7.29436 62.4615 7.60703C61.9181 7.92229 61.647 8.46984 61.6482 9.2497V13.1448H59.0811V4.54214H61.6482V6.07459Z" fill="white"/>
	<path d="M70.9395 4.54224H73.5049V13.1449H70.9395V12.336C70.4244 13.0365 69.6088 13.3867 68.4926 13.3867C68.0676 13.398 67.6449 13.32 67.2516 13.1578C66.8583 12.9955 66.503 12.7526 66.2083 12.4445C65.5978 11.8151 65.2925 10.9434 65.2925 9.82935V4.54224H67.8596V9.44713C67.8459 9.65924 67.876 9.87191 67.9481 10.0717C68.0203 10.2715 68.1328 10.4541 68.2786 10.608C68.4216 10.743 68.5897 10.8482 68.7733 10.9175C68.9569 10.9868 69.1523 11.0187 69.3483 11.0116C69.5624 11.0224 69.7764 10.9883 69.9766 10.9115C70.1769 10.8347 70.3591 10.7168 70.5116 10.5653C70.7969 10.2667 70.9395 9.82461 70.9395 9.23913V4.54224Z" fill="white"/>
	<path d="M77.4897 7.05434C77.4897 7.22619 77.6346 7.36663 77.9246 7.47567C78.2696 7.60236 78.6207 7.71153 78.9766 7.80278C79.3979 7.91548 79.8114 8.05623 80.2142 8.22411C80.6358 8.40563 80.9997 8.70022 81.2661 9.07567C81.5663 9.51213 81.7166 10.0352 81.694 10.5654C81.694 11.4934 81.3522 12.1957 80.6685 12.6721C79.9849 13.1486 79.1404 13.3856 78.135 13.3832C76.334 13.3832 75.1081 12.7006 74.4575 11.3352L76.6817 10.0623C76.9092 10.7403 77.3936 11.0786 78.135 11.0774C78.7526 11.0774 79.0608 10.8997 79.0596 10.5441C79.0596 10.3663 78.9147 10.2277 78.623 10.1139C78.28 9.98213 77.93 9.86995 77.5745 9.77789C77.1518 9.66588 76.7381 9.52207 76.3369 9.34767C75.9176 9.16662 75.5521 8.87935 75.2761 8.51389C74.9773 8.11267 74.8233 7.6211 74.8394 7.12011C74.8394 6.2253 75.1618 5.53137 75.8065 5.03834C76.4975 4.53041 77.3379 4.27003 78.1933 4.29878C78.8673 4.29105 79.5324 4.45365 80.1275 4.77167C80.7107 5.0895 81.1957 5.56244 81.5296 6.13878L79.339 7.32634C79.0738 6.82737 78.6966 6.57789 78.2075 6.57789C77.7283 6.57789 77.4897 6.73434 77.4897 7.05434Z" fill="white"/>
	<path d="M41.9261 21.3868C41.9261 21.5646 42.0728 21.6997 42.3628 21.8081C42.7107 21.9351 43.0647 22.0443 43.4236 22.1352C43.8449 22.2482 44.2583 22.389 44.6612 22.5566C45.0828 22.7381 45.4468 23.0327 45.7132 23.4081C46.0163 23.8429 46.1696 24.3655 46.1499 24.8961C46.1499 25.8265 45.8074 26.5293 45.1226 27.0046C44.4378 27.4798 43.5939 27.7169 42.5908 27.7157C40.7898 27.7157 39.5634 27.0336 38.9116 25.6695L41.1358 24.3966C41.3633 25.0745 41.8483 25.4129 42.5908 25.4117C43.2061 25.4117 43.5155 25.2339 43.5155 24.8783C43.5155 24.7006 43.3688 24.5619 43.0788 24.4481C42.7349 24.3157 42.3837 24.2035 42.0269 24.1121C41.6041 24.0004 41.1904 23.8566 40.7892 23.6819C40.3696 23.5013 40.004 23.214 39.7284 22.8481C39.4296 22.4469 39.2756 21.9553 39.2917 21.4543C39.2917 20.5595 39.6141 19.8656 40.2588 19.3726C40.9498 18.8646 41.7902 18.6043 42.6457 18.633C43.3191 18.625 43.9836 18.7877 44.5781 19.1059C45.1617 19.4237 45.6473 19.8966 45.9819 20.473L43.7913 21.6606C43.5167 21.1557 43.1348 20.9032 42.6457 20.9032C42.1665 20.905 41.9261 21.0668 41.9261 21.3868Z" fill="#FF3131"/>
	<path d="M52.1683 21.353H50.4003V24.3983C50.4003 24.7414 50.5382 24.9601 50.8104 25.0507C51.0827 25.1414 51.5353 25.1716 52.163 25.1379V27.4774C50.5399 27.6481 49.4149 27.4904 48.7878 27.0045C48.1608 26.5186 47.8473 25.6499 47.8473 24.3983V21.353H46.4771V18.8747H47.8473V17.2445L50.4126 16.4712V18.8783H52.1807L52.1683 21.353Z" fill="#FF3131"/>
	<path d="M59.3272 18.8748H61.8926V27.4774H59.3272V26.6668C58.8145 27.3672 57.9988 27.7168 56.8803 27.7156C56.455 27.7266 56.0322 27.6481 55.6388 27.4853C55.2455 27.3224 54.8903 27.0787 54.596 26.7699C53.9855 26.1382 53.6802 25.2665 53.6802 24.1548V18.8748H56.2473V23.7779C56.2333 23.9903 56.2634 24.2033 56.3355 24.4034C56.4076 24.6036 56.5203 24.7865 56.6663 24.9405C56.8094 25.0754 56.9775 25.1805 57.1611 25.2497C57.3447 25.319 57.54 25.3511 57.736 25.3441C57.9503 25.3552 58.1645 25.3211 58.3649 25.244C58.5652 25.1668 58.7473 25.0483 58.8993 24.8961C59.184 24.5992 59.3272 24.1565 59.3272 23.5716V18.8748Z" fill="#FF3131"/>
	<path d="M69.7439 16.0212H72.3093V27.4772H69.7439V26.6666C69.1393 27.367 68.2894 27.7166 67.1945 27.7155C66.6463 27.7203 66.1036 27.6051 65.6042 27.378C65.1047 27.1508 64.6603 26.8171 64.302 26.3999C63.5034 25.521 63.0744 24.3652 63.1051 23.175C63.0747 21.9844 63.5036 20.8281 64.302 19.9484C64.6606 19.5315 65.1049 19.1979 65.6044 18.9708C66.1038 18.7436 66.6463 18.6283 67.1945 18.6328C68.2883 18.6328 69.1381 18.9824 69.7439 19.6817V16.0212ZM66.2362 24.711C66.64 25.0763 67.164 25.2784 67.7072 25.2784C68.2504 25.2784 68.7743 25.0763 69.1782 24.711C69.543 24.2851 69.7437 23.7416 69.7437 23.1795C69.7437 22.6173 69.543 22.0738 69.1782 21.6479C68.7743 21.2826 68.2504 21.0805 67.7072 21.0805C67.164 21.0805 66.64 21.2826 66.2362 21.6479C65.8723 22.0743 65.6723 22.6176 65.6723 23.1795C65.6723 23.7413 65.8723 24.2846 66.2362 24.711Z" fill="#FF3131"/>
	<path d="M76.5666 17.6621C76.3153 17.9129 75.9854 18.0683 75.6329 18.102C75.2805 18.1357 74.9273 18.0455 74.6336 17.8468C74.3398 17.6481 74.1236 17.3532 74.0218 17.0123C73.9199 16.6713 73.9387 16.3054 74.0749 15.9769C74.2112 15.6483 74.4565 15.3774 74.769 15.2102C75.0816 15.043 75.4421 14.9898 75.7892 15.0598C76.1363 15.1298 76.4486 15.3186 76.6728 15.5941C76.8971 15.8695 77.0195 16.2146 77.0192 16.5706C77.0218 16.7739 76.9829 16.9757 76.9051 17.1634C76.8273 17.3511 76.7121 17.5208 76.5666 17.6621ZM74.1975 27.4773V18.8746H76.7629V27.4773H74.1975Z" fill="#FF3131"/>
	<path d="M85.7218 26.4018C84.8611 27.2452 83.7067 27.7173 82.5049 27.7173C81.303 27.7173 80.1487 27.2452 79.288 26.4018C78.444 25.5426 77.9707 24.3836 77.9707 23.176C77.9707 21.9684 78.444 20.8094 79.288 19.9502C79.9219 19.3091 80.7309 18.872 81.6124 18.6942C82.4939 18.5165 83.4081 18.6062 84.2387 18.952C85.0694 19.2978 85.7791 19.8841 86.2777 20.6363C86.7763 21.3886 87.0413 22.2729 87.039 23.1769C87.051 23.7765 86.9404 24.3722 86.7138 24.927C86.4872 25.4818 86.1495 25.9838 85.7218 26.4018ZM81.102 24.6382C81.4789 25.0031 81.9817 25.207 82.5049 25.207C83.0281 25.207 83.5309 25.0031 83.9078 24.6382C84.2706 24.2386 84.4717 23.7171 84.4717 23.176C84.4717 22.6349 84.2706 22.1134 83.9078 21.7138C83.5305 21.3497 83.0278 21.1464 82.5049 21.1464C81.982 21.1464 81.4793 21.3497 81.102 21.7138C80.7381 22.1128 80.5362 22.6346 80.5362 23.176C80.5362 23.7174 80.7381 24.2392 81.102 24.6382Z" fill="#FF3131"/>
	<path d="M90.4086 27.2357C90.1439 27.4981 89.797 27.6604 89.4268 27.6948C89.0567 27.7291 88.6861 27.6336 88.3781 27.4243C88.07 27.215 87.8436 26.905 87.7372 26.5468C87.6308 26.1887 87.6511 25.8045 87.7945 25.4597C87.9379 25.1148 88.1957 24.8305 88.524 24.6552C88.8523 24.4798 89.2308 24.4241 89.5953 24.4977C89.9598 24.5712 90.2877 24.7694 90.5233 25.0585C90.7589 25.3476 90.8877 25.7099 90.8877 26.0837C90.8904 26.2984 90.8492 26.5114 90.7668 26.7096C90.6844 26.9077 90.5625 27.0868 90.4086 27.2357Z" fill="#FF3131"/>
	<path d="M29.9623 10.7858C29.598 9.8506 29.1363 8.95674 28.585 8.11918L26.52 10.1956L19.7343 17.0187L15.7068 12.9778L13.693 10.9441L11.6811 12.9778L5.71756 18.9636C5.20487 17.024 5.20795 14.9829 5.72651 13.0448C6.24506 11.1067 7.26088 9.33959 8.67225 7.92042C10.0836 6.50125 11.841 5.47982 13.7685 4.9584C15.6959 4.43698 17.7258 4.43388 19.6548 4.9494L15.7068 8.91918L17.7206 10.9441L22.4942 6.14407L24.5592 4.06762C21.823 2.24777 18.5454 1.43455 15.2814 1.76562C12.0173 2.0967 8.96726 3.55174 6.6476 5.88442C4.32795 8.2171 2.88118 11.2841 2.55221 14.5662C2.22324 17.8484 3.03229 21.144 4.84239 23.8952L6.90743 21.8187L13.693 14.9938L19.7343 21.0685L20.7403 20.057L21.7481 19.0436L27.7098 13.049C28.2223 14.9887 28.2191 17.0297 27.7006 18.9678C27.182 20.9059 26.1662 22.673 24.7549 24.0923C23.3436 25.5116 21.5863 26.5332 19.659 27.0549C17.7316 27.5766 15.7017 27.58 13.7726 27.065L17.7206 23.0934L15.7068 21.0685L10.9332 25.8685L8.86992 27.945C9.70266 28.4992 10.5917 28.9629 11.5219 29.3281C14.0988 30.342 16.9138 30.5787 19.6224 30.009C22.331 29.4393 24.8157 28.088 26.7724 26.1205C28.7291 24.153 30.0729 21.6546 30.6395 18.9311C31.206 16.2075 30.9707 13.377 29.9623 10.7858Z" fill="#FF3131"/>
</svg>
