<svg width="40" height="40" viewBox="0 0 40 40" fill="none" xmlns="http://www.w3.org/2000/svg">
<g clip-path="url(#clip0_55738_642)">
<g clip-path="url(#clip1_55738_642)">
<path d="M27 11H13C11.89 11 11 11.9 11 13V27C11 28.1 11.89 29 13 29H27C28.1 29 29 28.1 29 27V13C29 11.9 28.11 11 27 11ZM27 27H13V15H27V27ZM20 18.5C21.84 18.5 23.48 19.46 24.34 21C23.48 22.54 21.84 23.5 20 23.5C18.16 23.5 16.52 22.54 15.66 21C16.52 19.46 18.16 18.5 20 18.5ZM20 17C17.27 17 14.94 18.66 14 21C14.94 23.34 17.27 25 20 25C22.73 25 25.06 23.34 26 21C25.06 18.66 22.73 17 20 17ZM20 22.5C19.17 22.5 18.5 21.83 18.5 21C18.5 20.17 19.17 19.5 20 19.5C20.83 19.5 21.5 20.17 21.5 21C21.5 21.83 20.83 22.5 20 22.5Z" fill="#49454F"/>
</g>
</g>
<defs>
<clipPath id="clip0_55738_642">
<rect width="40" height="40" rx="20" fill="white"/>
</clipPath>
<clipPath id="clip1_55738_642">
<rect width="24" height="24" fill="white" transform="translate(8 8)"/>
</clipPath>
</defs>
</svg>
