<svg width="40" height="40" viewBox="0 0 40 40" fill="none" xmlns="http://www.w3.org/2000/svg">
<g clip-path="url(#clip0_55738_1121)">
<path d="M28.95 30.375L26 27.425V29.65H24V24H29.65V26H27.4L30.35 28.95L28.95 30.375ZM20 30C18.6167 30 17.3167 29.7375 16.1 29.2125C14.8833 28.6875 13.825 27.975 12.925 27.075C12.025 26.175 11.3125 25.1167 10.7875 23.9C10.2625 22.6833 10 21.3833 10 20C10 18.6167 10.2625 17.3167 10.7875 16.1C11.3125 14.8833 12.025 13.825 12.925 12.925C13.825 12.025 14.8833 11.3125 16.1 10.7875C17.3167 10.2625 18.6167 10 20 10C21.3833 10 22.6833 10.2625 23.9 10.7875C25.1167 11.3125 26.175 12.025 27.075 12.925C27.975 13.825 28.6875 14.8833 29.2125 16.1C29.7375 17.3167 30 18.6167 30 20C30 20.3333 29.9833 20.6667 29.95 21C29.9167 21.3333 29.8667 21.6667 29.8 22H27.75C27.8333 21.6667 27.8958 21.3333 27.9375 21C27.9792 20.6667 28 20.3333 28 20C28 19.6667 27.9792 19.3333 27.9375 19C27.8958 18.6667 27.8333 18.3333 27.75 18H24.35C24.4 18.3333 24.4375 18.6667 24.4625 19C24.4875 19.3333 24.5 19.6667 24.5 20C24.5 20.3333 24.4875 20.6667 24.4625 21C24.4375 21.3333 24.4 21.6667 24.35 22H22.35C22.4 21.6667 22.4375 21.3333 22.4625 21C22.4875 20.6667 22.5 20.3333 22.5 20C22.5 19.6667 22.4875 19.3333 22.4625 19C22.4375 18.6667 22.4 18.3333 22.35 18H17.65C17.6 18.3333 17.5625 18.6667 17.5375 19C17.5125 19.3333 17.5 19.6667 17.5 20C17.5 20.3333 17.5125 20.6667 17.5375 21C17.5625 21.3333 17.6 21.6667 17.65 22H21V24H18.1C18.3 24.7167 18.5583 25.4042 18.875 26.0625C19.1917 26.7208 19.5667 27.35 20 27.95C20.3333 27.95 20.6667 27.9292 21 27.8875C21.3333 27.8458 21.6667 27.8083 22 27.775V29.825C21.6667 29.8583 21.3333 29.8958 21 29.9375C20.6667 29.9792 20.3333 30 20 30ZM12.25 22H15.65C15.6 21.6667 15.5625 21.3333 15.5375 21C15.5125 20.6667 15.5 20.3333 15.5 20C15.5 19.6667 15.5125 19.3333 15.5375 19C15.5625 18.6667 15.6 18.3333 15.65 18H12.25C12.1667 18.3333 12.1042 18.6667 12.0625 19C12.0208 19.3333 12 19.6667 12 20C12 20.3333 12.0208 20.6667 12.0625 21C12.1042 21.3333 12.1667 21.6667 12.25 22ZM13.1 16H16.05C16.2 15.3833 16.3875 14.7792 16.6125 14.1875C16.8375 13.5958 17.1 13.0167 17.4 12.45C16.4833 12.75 15.6583 13.2042 14.925 13.8125C14.1917 14.4208 13.5833 15.15 13.1 16ZM17.4 27.55C17.1 26.9833 16.8375 26.4042 16.6125 25.8125C16.3875 25.2208 16.2 24.6167 16.05 24H13.1C13.5833 24.85 14.1917 25.5792 14.925 26.1875C15.6583 26.7958 16.4833 27.25 17.4 27.55ZM18.1 16H21.9C21.7 15.2833 21.4417 14.5958 21.125 13.9375C20.8083 13.2792 20.4333 12.65 20 12.05C19.5667 12.65 19.1917 13.2792 18.875 13.9375C18.5583 14.5958 18.3 15.2833 18.1 16ZM23.95 16H26.9C26.4167 15.15 25.8083 14.4208 25.075 13.8125C24.3417 13.2042 23.5167 12.75 22.6 12.45C22.9 13.0167 23.1625 13.5958 23.3875 14.1875C23.6125 14.7792 23.8 15.3833 23.95 16Z" fill="#49454F"/>
</g>
<defs>
<clipPath id="clip0_55738_1121">
<rect width="40" height="40" rx="20" fill="white"/>
</clipPath>
</defs>
</svg>
