<svg width="40" height="40" viewBox="0 0 40 40" fill="none" xmlns="http://www.w3.org/2000/svg">
	<g clip-path="url(#clip0_55487_68)">
		<path d="M19 15H21V17H19V15ZM19 19H21V25H19V19ZM20 10C14.48 10 10 14.48 10 20C10 25.52 14.48 30 20 30C25.52 30 30 25.52 30 20C30 14.48 25.52 10 20 10ZM20 28C15.59 28 12 24.41 12 20C12 15.59 15.59 12 20 12C24.41 12 28 15.59 28 20C28 24.41 24.41 28 20 28Z" fill="#49454F"/>
	</g>
	<defs>
		<clipPath id="clip0_55487_68">
			<rect width="24" height="24" fill="white" transform="translate(8 8)"/>
		</clipPath>
	</defs>
</svg>
