<svg width="209" height="140" viewBox="0 0 209 140" fill="none" xmlns="http://www.w3.org/2000/svg">
<path d="M104.002 3.20508C135.485 3.2051 161.006 28.725 161.006 60.2061C161.006 91.6873 135.485 117.208 104.002 117.208C72.5202 117.208 46.9985 91.6873 46.9985 60.2061C46.9988 28.725 72.5203 3.20508 104.002 3.20508ZM104.002 11.6494C77.1843 11.6494 55.4441 33.3889 55.4438 60.2061C55.4438 87.0234 77.1842 108.764 104.002 108.764C130.821 108.764 152.561 87.0234 152.561 60.2061C152.561 33.3889 130.821 11.6494 104.002 11.6494ZM134.616 90.8193H73.3892V82.374H134.616V90.8193ZM81.8345 29.5947L104.002 65.4844L126.17 29.5947H134.617V73.9287H126.171V45.5742L108.225 73.9287H99.7798L81.8345 45.5762V73.9287H73.3892V29.5947H81.8345Z" fill="url(#paint0_linear_333_46)"/>
<defs>
<linearGradient id="paint0_linear_333_46" x1="40.5308" y1="7.27661" x2="164.395" y2="113.82" gradientUnits="userSpaceOnUse">
<stop stop-color="#FFFFFF"/>
<stop offset="1" stop-color="#FFFFFF"/>
</linearGradient>
</defs>
</svg>
