<svg width="40" height="40" viewBox="0 0 40 40" fill="none" xmlns="http://www.w3.org/2000/svg">
	<g clip-path="url(#clip0_1460_88)">
		<path d="M20 0C31.044 0 40 8.956 40 20C40 31.044 31.044 40 20 40C8.956 40 0 31.044 0 20C0 8.956 8.956 0 20 0Z" fill="#621EE5"/>
		<path d="M5.85214 21.48C5.77214 21.396 5.67614 21.328 5.56814 21.28C5.46014 21.232 5.34414 21.208 5.22814 21.208C5.11214 21.208 4.99614 21.232 4.88814 21.276C4.78014 21.324 4.68414 21.392 4.60414 21.476C4.52014 21.56 4.45614 21.656 4.41214 21.764C4.36814 21.876 4.34814 21.988 4.34814 22.104C4.34814 22.22 4.36814 22.336 4.41214 22.444C4.45614 22.552 4.52414 22.648 4.60414 22.732C4.76814 22.904 4.99214 23 5.23214 22.996C5.46814 22.996 5.69614 22.904 5.86014 22.732C5.94414 22.652 6.01214 22.556 6.05614 22.448C6.10014 22.34 6.12414 22.224 6.12414 22.108C6.12414 21.992 6.10014 21.876 6.05614 21.768C6.00814 21.656 5.94414 21.56 5.86014 21.48H5.85214ZM16.3361 19.448C16.3241 20.008 16.3521 20.572 16.4161 21.132H16.3841C16.3121 20.996 16.1601 20.74 15.9201 20.364L10.2081 11.4H8.47614V22.844H9.80814V14.572C9.82414 14.048 9.80014 13.524 9.74414 13H9.79614C9.89214 13.252 10.0121 13.492 10.1601 13.716L16.0281 22.844H17.6681V11.4H16.3361V19.448ZM26.7041 21.588H21.9961V17.624H26.1161V16.416H21.9961V12.612H26.4161V11.4H20.6281V22.844H26.6961L26.7041 21.588ZM27.7241 11.4V12.612H31.0041V22.844H32.3361V12.612H35.6561V11.4H27.7241Z" fill="white"/>
		<path d="M15.8201 29.156C15.8201 28.204 15.8321 27.188 15.8521 26.628H15.8281C15.5841 27.596 14.8321 29.836 14.3081 31.332H13.6441C13.2521 30.076 12.4761 27.628 12.2321 26.616H12.2041C12.2441 27.224 12.2641 28.388 12.2641 29.288V31.332H11.5801V26.092H12.6761C13.1881 27.58 13.8481 29.66 14.0201 30.396H14.0321C14.1361 29.86 14.9361 27.592 15.4721 26.092H16.5361V31.332H15.8241V29.152L15.8201 29.156Z" fill="white"/>
		<path d="M18.6002 29.808L18.1162 31.336H17.3882C17.7002 30.412 18.7242 27.144 19.0722 26.096H20.0002L21.7602 31.336H20.9842L20.4842 29.808H18.5962H18.6002ZM20.3202 29.184C19.9002 27.888 19.6282 27.116 19.5242 26.684H19.5122C19.3682 27.296 19.1042 28.104 18.7602 29.184H20.3242H20.3202Z" fill="white"/>
		<path d="M23.2159 26.096V29.432C23.2159 30.216 23.4959 30.804 24.3999 30.804C25.3039 30.804 25.5599 30.244 25.5599 29.428V26.096H26.3039V29.452C26.3039 30.556 25.8439 31.408 24.3839 31.408C23.0119 31.408 22.4839 30.68 22.4839 29.484V26.092H23.2199L23.2159 26.096Z" fill="white"/>
		<path d="M28.4243 26.096V31.336H27.6963V26.096H28.4243Z" fill="white"/>
	</g>
	<defs>
		<clipPath id="clip0_1460_88">
			<rect width="40" height="40" fill="white"/>
		</clipPath>
	</defs>
</svg>
