<svg width="24" height="24" viewBox="0 0 24 24" fill="none" xmlns="http://www.w3.org/2000/svg">
<circle cx="12" cy="12" r="10" fill="#84C534"/>
<path d="M15.5004 11C15.9171 11 16.2712 10.8542 16.5629 10.5625C16.8546 10.2708 17.0004 9.91667 17.0004 9.5C17.0004 9.08333 16.8546 8.72917 16.5629 8.4375C16.2712 8.14583 15.9171 8 15.5004 8C15.0837 8 14.7296 8.14583 14.4379 8.4375C14.1462 8.72917 14.0004 9.08333 14.0004 9.5C14.0004 9.91667 14.1462 10.2708 14.4379 10.5625C14.7296 10.8542 15.0837 11 15.5004 11ZM8.50039 11C8.91706 11 9.27122 10.8542 9.56289 10.5625C9.85456 10.2708 10.0004 9.91667 10.0004 9.5C10.0004 9.08333 9.85456 8.72917 9.56289 8.4375C9.27122 8.14583 8.91706 8 8.50039 8C8.08372 8 7.72956 8.14583 7.43789 8.4375C7.14622 8.72917 7.00039 9.08333 7.00039 9.5C7.00039 9.91667 7.14622 10.2708 7.43789 10.5625C7.72956 10.8542 8.08372 11 8.50039 11ZM12.0004 17.5C13.1337 17.5 14.1629 17.1792 15.0879 16.5375C16.0129 15.8958 16.6837 15.05 17.1004 14H6.90039C7.31706 15.05 7.98789 15.8958 8.91289 16.5375C9.83789 17.1792 10.8671 17.5 12.0004 17.5Z" fill="#141218"/>
</svg>
