<svg width="24" height="24" viewBox="0 0 24 24" fill="none" xmlns="http://www.w3.org/2000/svg">
<circle cx="12" cy="12" r="10" fill="#FFD123"/>
<path d="M15.5 11C15.9167 11 16.2708 10.8542 16.5625 10.5625C16.8542 10.2708 17 9.91667 17 9.5C17 9.08333 16.8542 8.72917 16.5625 8.4375C16.2708 8.14583 15.9167 8 15.5 8C15.0833 8 14.7292 8.14583 14.4375 8.4375C14.1458 8.72917 14 9.08333 14 9.5C14 9.91667 14.1458 10.2708 14.4375 10.5625C14.7292 10.8542 15.0833 11 15.5 11ZM8.5 11C8.91667 11 9.27083 10.8542 9.5625 10.5625C9.85417 10.2708 10 9.91667 10 9.5C10 9.08333 9.85417 8.72917 9.5625 8.4375C9.27083 8.14583 8.91667 8 8.5 8C8.08333 8 7.72917 8.14583 7.4375 8.4375C7.14583 8.72917 7 9.08333 7 9.5C7 9.91667 7.14583 10.2708 7.4375 10.5625C7.72917 10.8542 8.08333 11 8.5 11ZM9 15.5H15V14H9V15.5Z" fill="#141218"/>
</svg>
