<svg width="25" height="24" viewBox="0 0 25 24" fill="none" xmlns="http://www.w3.org/2000/svg">
<mask id="mask0_55670_27925" style="mask-type:alpha" maskUnits="userSpaceOnUse" x="0" y="0" width="25" height="24">
<rect x="0.333313" width="24" height="24" fill="#D9D9D9"/>
</mask>
<g mask="url(#mask0_55670_27925)">
<path d="M12.3333 22C10.95 22 9.64998 21.7375 8.43331 21.2125C7.21665 20.6875 6.15831 19.975 5.25831 19.075C4.35831 18.175 3.64581 17.1167 3.12081 15.9C2.59581 14.6833 2.33331 13.3833 2.33331 12C2.33331 10.6167 2.59581 9.31667 3.12081 8.1C3.64581 6.88333 4.35831 5.825 5.25831 4.925C6.15831 4.025 7.21665 3.3125 8.43331 2.7875C9.64998 2.2625 10.95 2 12.3333 2C13.7166 2 15.0166 2.2625 16.2333 2.7875C17.45 3.3125 18.5083 4.025 19.4083 4.925C20.3083 5.825 21.0208 6.88333 21.5458 8.1C22.0708 9.31667 22.3333 10.6167 22.3333 12C22.3333 13.3833 22.0708 14.6833 21.5458 15.9C21.0208 17.1167 20.3083 18.175 19.4083 19.075C18.5083 19.975 17.45 20.6875 16.2333 21.2125C15.0166 21.7375 13.7166 22 12.3333 22ZM13.3333 19.925C15.3166 19.675 16.9791 18.8042 18.3208 17.3125C19.6625 15.8208 20.3333 14.05 20.3333 12C20.3333 9.95 19.6625 8.17917 18.3208 6.6875C16.9791 5.19583 15.3166 4.325 13.3333 4.075V19.925Z" fill="#49454F"/>
</g>
</svg>
