<?xml version="1.0" encoding="utf-8"?><!-- Uploaded to: SVG Repo, www.svgrepo.com, Generator: SVG Repo Mixer Tools -->
<svg width="800px" height="800px" viewBox="0 0 24 24" fill="none" xmlns="http://www.w3.org/2000/svg">
<path fill-rule="evenodd" clip-rule="evenodd" d="M10.8141 4.63965L5.75965 8.24995H3.75L3 8.99995V14.9999L3.75 15.7499H5.75965L10.8141 19.3602L12 18.7499V5.24995L10.8141 4.63965ZM6.75 9.38591L10.5 6.70734V17.2926L6.75 14.614V9.38591ZM5.25 9.74995H4.5V14.2499H5.25V9.74995ZM13.5698 8.98353C15.2652 10.6789 15.2652 13.4276 13.5698 15.1229L14.6305 16.1835C16.9116 13.9024 16.9116 10.204 14.6305 7.92287L13.5698 8.98353ZM15.9696 17.5229C18.9904 14.5021 18.9904 9.60439 15.9696 6.58356L17.0303 5.5229C20.6369 9.12952 20.6369 14.977 17.0303 18.5836L15.9696 17.5229Z" fill="#080341"/>
</svg>