<?xml version="1.0" encoding="utf-8"?><!-- Uploaded to: SVG Repo, www.svgrepo.com, Generator: SVG Repo Mixer Tools -->
<svg width="800px" height="800px" viewBox="0 0 24 24" fill="none" xmlns="http://www.w3.org/2000/svg">
<path fill-rule="evenodd" clip-rule="evenodd" d="M3.96973 5.03039L18.9697 20.0304L20.0304 18.9697L5.03039 3.96973L3.96973 5.03039ZM5.75965 8.2501L6.07809 8.02264L7.15338 9.09794L6.75 9.38606V14.6141L10.5 17.2927V12.4446L12 13.9446V18.7501L10.8141 19.3604L5.75965 15.7501H3.75L3 15.0001V9.0001L3.75 8.2501H5.75965ZM10.5 6.70749V8.55547L12 10.0555V5.2501L10.8141 4.6398L8.34672 6.40219L9.42202 7.47748L10.5 6.70749ZM14.772 12.8275L15.9918 14.0473C16.7402 11.9819 16.2864 9.579 14.6304 7.92302L13.5697 8.98368C14.6151 10.0291 15.0159 11.475 14.772 12.8275ZM17.4331 15.4885L18.5425 16.5979C20.5352 13.076 20.0311 8.52387 17.0303 5.52305L15.9697 6.58371C18.3789 8.99291 18.8667 12.5959 17.4331 15.4885ZM5.25 9.7501H4.5V14.2501H5.25V9.7501Z" fill="#080341"/>
</svg>