<svg width="1024" height="1024" viewBox="0 0 1024 1024" fill="none" xmlns="http://www.w3.org/2000/svg">
	<path d="M376.061 748.197H364.555V743.553H376.061C378.289 743.553 380.093 743.198 381.474 742.489C382.854 741.779 383.86 740.793 384.491 739.531C385.141 738.269 385.467 736.829 385.467 735.212C385.467 733.734 385.141 732.343 384.491 731.042C383.86 729.741 382.854 728.695 381.474 727.907C380.093 727.098 378.289 726.694 376.061 726.694H365.886V765.086H360.178V722.021H376.061C379.314 722.021 382.065 722.583 384.313 723.707C386.561 724.831 388.267 726.388 389.43 728.38C390.593 730.352 391.175 732.61 391.175 735.153C391.175 737.914 390.593 740.27 389.43 742.222C388.267 744.174 386.561 745.663 384.313 746.689C382.065 747.694 379.314 748.197 376.061 748.197ZM395.7 749.439V748.759C395.7 746.452 396.036 744.312 396.706 742.341C397.377 740.349 398.343 738.624 399.605 737.165C400.867 735.686 402.395 734.542 404.189 733.734C405.984 732.905 407.995 732.491 410.223 732.491C412.471 732.491 414.492 732.905 416.287 733.734C418.101 734.542 419.639 735.686 420.901 737.165C422.182 738.624 423.158 740.349 423.829 742.341C424.499 744.312 424.834 746.452 424.834 748.759V749.439C424.834 751.746 424.499 753.886 423.829 755.858C423.158 757.829 422.182 759.555 420.901 761.034C419.639 762.493 418.11 763.637 416.316 764.465C414.541 765.273 412.53 765.677 410.282 765.677C408.034 765.677 406.013 765.273 404.219 764.465C402.424 763.637 400.886 762.493 399.605 761.034C398.343 759.555 397.377 757.829 396.706 755.858C396.036 753.886 395.7 751.746 395.7 749.439ZM401.172 748.759V749.439C401.172 751.036 401.36 752.545 401.734 753.965C402.109 755.365 402.671 756.607 403.42 757.691C404.189 758.776 405.146 759.634 406.289 760.265C407.433 760.876 408.764 761.182 410.282 761.182C411.781 761.182 413.092 760.876 414.216 760.265C415.36 759.634 416.306 758.776 417.056 757.691C417.805 756.607 418.367 755.365 418.741 753.965C419.136 752.545 419.333 751.036 419.333 749.439V748.759C419.333 747.182 419.136 745.693 418.741 744.293C418.367 742.873 417.795 741.621 417.026 740.536C416.277 739.432 415.33 738.565 414.186 737.934C413.063 737.303 411.741 736.987 410.223 736.987C408.724 736.987 407.403 737.303 406.26 737.934C405.136 738.565 404.189 739.432 403.42 740.536C402.671 741.621 402.109 742.873 401.734 744.293C401.36 745.693 401.172 747.182 401.172 748.759ZM439.801 759.407L448.023 733.083H451.632L450.922 738.318L442.551 765.086H439.032L439.801 759.407ZM434.27 733.083L441.28 759.703L441.782 765.086H438.085L428.798 733.083H434.27ZM459.499 759.496L466.184 733.083H471.626L462.339 765.086H458.671L459.499 759.496ZM452.43 733.083L460.476 758.963L461.392 765.086H457.902L449.295 738.259L448.585 733.083H452.43ZM490.526 765.677C488.298 765.677 486.277 765.303 484.463 764.553C482.669 763.784 481.121 762.71 479.819 761.33C478.538 759.949 477.552 758.313 476.862 756.42C476.171 754.527 475.826 752.456 475.826 750.208V748.966C475.826 746.363 476.211 744.046 476.98 742.015C477.749 739.965 478.794 738.229 480.115 736.81C481.436 735.39 482.935 734.315 484.611 733.586C486.287 732.856 488.022 732.491 489.817 732.491C492.104 732.491 494.076 732.886 495.732 733.674C497.408 734.463 498.779 735.567 499.843 736.987C500.908 738.387 501.697 740.043 502.21 741.956C502.722 743.849 502.979 745.92 502.979 748.167V750.622H479.08V746.156H497.507V745.742C497.428 744.322 497.132 742.942 496.619 741.601C496.127 740.26 495.338 739.156 494.253 738.289C493.169 737.421 491.69 736.987 489.817 736.987C488.574 736.987 487.431 737.253 486.386 737.786C485.341 738.298 484.443 739.067 483.694 740.093C482.945 741.118 482.363 742.37 481.949 743.849C481.535 745.328 481.328 747.034 481.328 748.966V750.208C481.328 751.727 481.535 753.156 481.949 754.497C482.383 755.818 483.004 756.982 483.812 757.987C484.641 758.993 485.636 759.782 486.8 760.353C487.983 760.925 489.324 761.211 490.822 761.211C492.755 761.211 494.391 760.817 495.732 760.028C497.073 759.239 498.246 758.184 499.252 756.863L502.565 759.496C501.874 760.541 500.997 761.537 499.932 762.483C498.867 763.43 497.556 764.199 495.998 764.79C494.46 765.382 492.636 765.677 490.526 765.677ZM514.839 738.111V765.086H509.367V733.083H514.691L514.839 738.111ZM524.837 732.905L524.807 737.993C524.353 737.894 523.92 737.835 523.506 737.815C523.111 737.776 522.658 737.756 522.145 737.756C520.883 737.756 519.769 737.953 518.803 738.348C517.837 738.742 517.018 739.294 516.348 740.004C515.677 740.714 515.145 741.562 514.751 742.548C514.376 743.514 514.129 744.579 514.011 745.742L512.473 746.629C512.473 744.697 512.66 742.883 513.035 741.187C513.429 739.491 514.031 737.993 514.839 736.691C515.648 735.37 516.673 734.345 517.915 733.615C519.177 732.866 520.676 732.491 522.411 732.491C522.806 732.491 523.259 732.541 523.772 732.639C524.284 732.718 524.639 732.807 524.837 732.905ZM542.583 765.677C540.355 765.677 538.334 765.303 536.52 764.553C534.725 763.784 533.177 762.71 531.876 761.33C530.594 759.949 529.608 758.313 528.918 756.42C528.228 754.527 527.883 752.456 527.883 750.208V748.966C527.883 746.363 528.268 744.046 529.037 742.015C529.806 739.965 530.851 738.229 532.172 736.81C533.493 735.39 534.992 734.315 536.668 733.586C538.344 732.856 540.079 732.491 541.873 732.491C544.161 732.491 546.133 732.886 547.789 733.674C549.465 734.463 550.835 735.567 551.9 736.987C552.965 738.387 553.754 740.043 554.266 741.956C554.779 743.849 555.035 745.92 555.035 748.167V750.622H531.137V746.156H549.564V745.742C549.485 744.322 549.189 742.942 548.676 741.601C548.183 740.26 547.394 739.156 546.31 738.289C545.225 737.421 543.747 736.987 541.873 736.987C540.631 736.987 539.487 737.253 538.442 737.786C537.397 738.298 536.5 739.067 535.751 740.093C535.001 741.118 534.42 742.37 534.006 743.849C533.592 745.328 533.385 747.034 533.385 748.966V750.208C533.385 751.727 533.592 753.156 534.006 754.497C534.439 755.818 535.061 756.982 535.869 757.987C536.697 758.993 537.693 759.782 538.856 760.353C540.04 760.925 541.38 761.211 542.879 761.211C544.811 761.211 546.448 760.817 547.789 760.028C549.13 759.239 550.303 758.184 551.309 756.863L554.621 759.496C553.931 760.541 553.054 761.537 551.989 762.483C550.924 763.43 549.613 764.199 548.055 764.79C546.517 765.382 544.693 765.677 542.583 765.677ZM581.596 758.875V719.655H587.098V765.086H582.069L581.596 758.875ZM560.064 749.439V748.818C560.064 746.373 560.359 744.155 560.951 742.163C561.562 740.152 562.42 738.427 563.524 736.987C564.648 735.548 565.979 734.443 567.517 733.674C569.075 732.886 570.81 732.491 572.723 732.491C574.734 732.491 576.489 732.846 577.988 733.556C579.506 734.246 580.788 735.262 581.833 736.603C582.898 737.924 583.736 739.521 584.347 741.394C584.958 743.267 585.382 745.387 585.619 747.753V750.475C585.402 752.821 584.978 754.931 584.347 756.804C583.736 758.677 582.898 760.275 581.833 761.596C580.788 762.917 579.506 763.932 577.988 764.642C576.469 765.332 574.695 765.677 572.664 765.677C570.79 765.677 569.075 765.273 567.517 764.465C565.979 763.656 564.648 762.522 563.524 761.063C562.42 759.604 561.562 757.889 560.951 755.917C560.359 753.925 560.064 751.766 560.064 749.439ZM565.565 748.818V749.439C565.565 751.036 565.723 752.535 566.038 753.935C566.374 755.335 566.886 756.568 567.576 757.632C568.266 758.697 569.144 759.535 570.209 760.146C571.274 760.738 572.545 761.034 574.024 761.034C575.838 761.034 577.327 760.649 578.49 759.88C579.674 759.111 580.62 758.096 581.33 756.834C582.04 755.572 582.592 754.201 582.986 752.722V745.594C582.75 744.51 582.405 743.465 581.951 742.459C581.517 741.434 580.945 740.527 580.236 739.738C579.545 738.929 578.688 738.289 577.662 737.815C576.657 737.342 575.464 737.105 574.083 737.105C572.585 737.105 571.293 737.421 570.209 738.052C569.144 738.663 568.266 739.511 567.576 740.596C566.886 741.66 566.374 742.903 566.038 744.322C565.723 745.722 565.565 747.221 565.565 748.818ZM610.612 719.655H616.113V758.875L615.64 765.086H610.612V719.655ZM637.735 748.818V749.439C637.735 751.766 637.459 753.925 636.906 755.917C636.354 757.889 635.546 759.604 634.481 761.063C633.416 762.522 632.115 763.656 630.577 764.465C629.039 765.273 627.274 765.677 625.282 765.677C623.251 765.677 621.467 765.332 619.929 764.642C618.41 763.932 617.129 762.917 616.084 761.596C615.039 760.275 614.201 758.677 613.57 756.804C612.958 754.931 612.534 752.821 612.298 750.475V747.753C612.534 745.387 612.958 743.267 613.57 741.394C614.201 739.521 615.039 737.924 616.084 736.603C617.129 735.262 618.41 734.246 619.929 733.556C621.447 732.846 623.212 732.491 625.223 732.491C627.235 732.491 629.019 732.886 630.577 733.674C632.135 734.443 633.436 735.548 634.481 736.987C635.546 738.427 636.354 740.152 636.906 742.163C637.459 744.155 637.735 746.373 637.735 748.818ZM632.233 749.439V748.818C632.233 747.221 632.085 745.722 631.789 744.322C631.494 742.903 631.02 741.66 630.37 740.596C629.719 739.511 628.861 738.663 627.796 738.052C626.732 737.421 625.42 737.105 623.863 737.105C622.482 737.105 621.28 737.342 620.254 737.815C619.249 738.289 618.391 738.929 617.681 739.738C616.971 740.527 616.389 741.434 615.936 742.459C615.502 743.465 615.177 744.51 614.96 745.594V752.722C615.275 754.103 615.788 755.434 616.498 756.715C617.227 757.977 618.194 759.013 619.396 759.821C620.619 760.63 622.127 761.034 623.922 761.034C625.401 761.034 626.663 760.738 627.708 760.146C628.773 759.535 629.63 758.697 630.281 757.632C630.951 756.568 631.444 755.335 631.76 753.935C632.075 752.535 632.233 751.036 632.233 749.439ZM653.292 761.773L662.195 733.083H668.052L655.215 770.025C654.919 770.814 654.525 771.662 654.032 772.569C653.559 773.496 652.947 774.373 652.198 775.201C651.449 776.03 650.542 776.7 649.477 777.213C648.432 777.745 647.18 778.011 645.721 778.011C645.287 778.011 644.735 777.952 644.064 777.834C643.394 777.716 642.921 777.617 642.644 777.538L642.615 773.101C642.773 773.121 643.019 773.141 643.354 773.161C643.709 773.2 643.956 773.22 644.094 773.22C645.336 773.22 646.391 773.052 647.259 772.717C648.126 772.401 648.856 771.859 649.447 771.09C650.059 770.341 650.581 769.306 651.015 767.984L653.292 761.773ZM646.756 733.083L655.067 757.928L656.487 763.696L652.553 765.707L640.781 733.083H646.756Z" fill="#49454F"/>
	<path d="M501.404 854.272C503.476 854.221 505.536 854.605 507.453 855.399C509.369 856.194 511.1 857.382 512.534 858.887C515.517 861.964 517.005 866.217 516.999 871.648V897.42H504.491V873.495C504.559 872.459 504.412 871.421 504.059 870.445C503.706 869.47 503.154 868.579 502.439 867.831C501.749 867.174 500.937 866.661 500.049 866.322C499.161 865.982 498.216 865.823 497.266 865.853C496.222 865.798 495.177 865.964 494.2 866.341C493.223 866.717 492.335 867.296 491.594 868.039C490.197 869.496 489.508 871.648 489.508 874.501V897.42H476.956V841.521H489.473V859.39C491.973 855.984 495.95 854.278 501.404 854.272Z" fill="#071018"/>
	<path d="M560.12 892.172C555.93 896.302 550.299 898.615 544.434 898.615C538.569 898.615 532.938 896.302 528.749 892.172C526.668 890.13 525.027 887.68 523.928 884.973C522.829 882.266 522.295 879.36 522.361 876.436C522.301 873.509 522.84 870.6 523.945 867.892C525.05 865.183 526.697 862.732 528.783 860.692C531.874 857.564 535.819 855.43 540.117 854.563C544.415 853.696 548.873 854.134 552.923 855.821C556.973 857.508 560.434 860.369 562.865 864.04C565.296 867.71 566.588 872.025 566.577 876.436C566.631 879.364 566.086 882.273 564.975 884.98C563.864 887.687 562.211 890.135 560.12 892.172ZM537.594 883.593C539.431 885.373 541.883 886.368 544.434 886.368C546.985 886.368 549.437 885.373 551.275 883.593C552.192 882.656 552.909 881.54 553.382 880.313C553.855 879.087 554.074 877.777 554.025 876.462C554.074 875.146 553.856 873.834 553.383 872.606C552.91 871.379 552.193 870.261 551.275 869.323C549.435 867.546 546.984 866.554 544.434 866.554C541.884 866.554 539.433 867.546 537.594 869.323C536.676 870.261 535.958 871.379 535.485 872.606C535.012 873.834 534.794 875.146 534.844 876.462C534.795 877.777 535.013 879.087 535.486 880.313C535.959 881.54 536.676 882.656 537.594 883.593Z" fill="#071018"/>
	<path d="M584.966 862.921C585.671 860.322 587.365 858.106 589.681 856.753C592.035 855.326 594.736 854.585 597.483 854.611V868.846C594.54 868.322 591.507 868.873 588.931 870.399C586.282 871.937 584.96 874.609 584.966 878.414V897.42H572.448V855.444H584.966V862.921Z" fill="#071018"/>
	<path d="M630.267 855.444H642.775V897.42H630.267V893.473C627.755 896.891 623.778 898.6 618.336 898.6C616.264 898.655 614.203 898.274 612.285 897.483C610.367 896.691 608.634 895.506 607.198 894.002C604.221 890.931 602.732 886.678 602.732 881.242V855.444H615.249V879.377C615.182 880.412 615.329 881.449 615.681 882.424C616.033 883.399 616.581 884.29 617.293 885.041C617.989 885.7 618.809 886.213 619.704 886.551C620.6 886.889 621.553 887.045 622.508 887.01C623.552 887.063 624.595 886.897 625.572 886.522C626.548 886.147 627.437 885.572 628.181 884.833C629.571 883.376 630.267 881.219 630.267 878.362V855.444Z" fill="#071018"/>
	<path d="M662.208 867.701C662.208 868.539 662.915 869.225 664.328 869.757C666.01 870.375 667.722 870.908 669.458 871.353C671.512 871.903 673.528 872.59 675.492 873.409C677.548 874.294 679.323 875.732 680.622 877.564C682.085 879.694 682.818 882.246 682.708 884.833C682.708 889.361 681.041 892.788 677.708 895.112C674.374 897.437 670.257 898.594 665.354 898.582C656.573 898.582 650.596 895.251 647.423 888.589L658.268 882.378C659.377 885.686 661.739 887.337 665.354 887.331C668.366 887.331 669.869 886.464 669.863 884.729C669.863 883.862 669.156 883.185 667.734 882.63C666.062 881.987 664.355 881.44 662.621 880.99C660.56 880.444 658.543 879.742 656.587 878.891C654.542 878.008 652.76 876.606 651.414 874.823C649.958 872.865 649.207 870.466 649.285 868.022C649.285 863.656 650.857 860.27 654.001 857.864C657.37 855.386 661.468 854.115 665.639 854.255C668.925 854.218 672.168 855.011 675.07 856.563C677.913 858.114 680.278 860.421 681.906 863.234L671.225 869.028C669.932 866.593 668.093 865.376 665.708 865.376C663.371 865.376 662.208 866.139 662.208 867.701Z" fill="#071018"/>
	<path d="M488.801 937.635C488.801 938.503 489.516 939.162 490.93 939.691C492.626 940.31 494.353 940.843 496.103 941.287C498.157 941.838 500.173 942.525 502.137 943.343C504.193 944.229 505.968 945.666 507.267 947.498C508.744 949.62 509.492 952.169 509.396 954.759C509.396 959.298 507.726 962.728 504.387 965.047C501.048 967.366 496.933 968.522 492.042 968.516C483.261 968.516 477.281 965.188 474.103 958.532L484.947 952.321C486.057 955.629 488.422 957.28 492.042 957.274C495.042 957.274 496.551 956.407 496.551 954.672C496.551 953.804 495.835 953.128 494.422 952.573C492.745 951.926 491.032 951.379 489.292 950.933C487.231 950.388 485.214 949.686 483.258 948.834C481.212 947.953 479.429 946.551 478.085 944.766C476.628 942.808 475.877 940.409 475.956 937.965C475.956 933.598 477.528 930.213 480.672 927.807C484.041 925.328 488.138 924.058 492.31 924.198C495.593 924.159 498.833 924.953 501.732 926.506C504.578 928.056 506.946 930.364 508.577 933.176L497.896 938.971C496.557 936.507 494.695 935.276 492.31 935.276C489.973 935.284 488.801 936.074 488.801 937.635Z" fill="#FF3131"/>
	<path d="M538.741 937.47H530.12V952.33C530.12 954.004 530.793 955.071 532.12 955.513C533.448 955.955 535.655 956.103 538.715 955.938V967.354C530.801 968.187 525.316 967.417 522.258 965.046C519.201 962.675 517.672 958.436 517.672 952.33V937.47H510.991V925.378H517.672V917.423L530.18 913.65V925.395H538.801L538.741 937.47Z" fill="#FF3131"/>
	<path d="M573.646 925.378H586.155V967.354H573.646V963.399C571.146 966.816 567.169 968.522 561.715 968.517C559.642 968.57 557.58 968.187 555.662 967.392C553.744 966.598 552.012 965.409 550.577 963.902C547.6 960.819 546.112 956.566 546.112 951.141V925.378H558.629V949.302C558.561 950.339 558.707 951.378 559.059 952.355C559.411 953.331 559.96 954.224 560.672 954.976C561.37 955.634 562.189 956.146 563.085 956.484C563.98 956.822 564.932 956.979 565.888 956.945C566.933 956.999 567.977 956.833 568.954 956.456C569.931 956.08 570.819 955.501 571.56 954.759C572.948 953.31 573.646 951.15 573.646 948.296V925.378Z" fill="#FF3131"/>
	<path d="M624.439 911.456H636.948V967.354H624.439V963.399C621.491 966.816 617.347 968.522 612.008 968.517C609.335 968.54 606.689 967.978 604.254 966.87C601.818 965.761 599.652 964.133 597.905 962.098C594.011 957.809 591.919 952.169 592.068 946.362C591.92 940.552 594.012 934.91 597.905 930.618C599.653 928.583 601.82 926.956 604.255 925.848C606.69 924.739 609.335 924.177 612.008 924.198C617.341 924.198 621.485 925.904 624.439 929.316V911.456ZM607.336 953.857C609.305 955.639 611.86 956.625 614.508 956.625C617.157 956.625 619.711 955.639 621.681 953.857C623.46 951.778 624.438 949.127 624.438 946.384C624.438 943.641 623.46 940.989 621.681 938.91C619.711 937.128 617.157 936.142 614.508 936.142C611.86 936.142 609.305 937.128 607.336 938.91C605.561 940.991 604.586 943.642 604.586 946.384C604.586 949.125 605.561 951.776 607.336 953.857Z" fill="#FF3131"/>
	<path d="M657.708 919.462C656.482 920.685 654.874 921.444 653.155 921.608C651.437 921.772 649.715 921.332 648.282 920.363C646.85 919.393 645.796 917.955 645.299 916.291C644.802 914.627 644.894 912.842 645.558 911.239C646.223 909.636 647.419 908.314 648.943 907.498C650.467 906.682 652.224 906.423 653.917 906.764C655.609 907.106 657.132 908.027 658.226 909.371C659.319 910.715 659.916 912.399 659.915 914.136C659.927 915.128 659.738 916.112 659.358 917.028C658.979 917.944 658.417 918.772 657.708 919.462ZM646.156 967.354V925.378H658.664V967.354H646.156Z" fill="#FF3131"/>
	<path d="M702.345 962.106C698.149 966.222 692.52 968.525 686.66 968.525C680.8 968.525 675.171 966.222 670.975 962.106C666.859 957.914 664.552 952.259 664.552 946.366C664.552 940.474 666.859 934.818 670.975 930.626C674.065 927.498 678.01 925.365 682.308 924.498C686.606 923.63 691.064 924.068 695.114 925.755C699.164 927.443 702.625 930.303 705.056 933.974C707.487 937.645 708.779 941.959 708.768 946.37C708.827 949.296 708.287 952.203 707.182 954.91C706.077 957.617 704.431 960.066 702.345 962.106ZM679.819 953.501C681.657 955.281 684.109 956.276 686.66 956.276C689.211 956.276 691.663 955.281 693.501 953.501C695.269 951.551 696.25 949.006 696.25 946.366C696.25 943.726 695.269 941.181 693.501 939.231C691.661 937.455 689.21 936.463 686.66 936.463C684.11 936.463 681.659 937.455 679.819 939.231C678.045 941.178 677.061 943.724 677.061 946.366C677.061 949.008 678.045 951.554 679.819 953.501Z" fill="#FF3131"/>
	<path d="M725.199 966.174C723.908 967.455 722.217 968.246 720.412 968.414C718.607 968.582 716.8 968.116 715.298 967.095C713.796 966.074 712.692 964.561 712.173 962.813C711.655 961.065 711.753 959.191 712.453 957.508C713.152 955.826 714.409 954.439 716.01 953.583C717.61 952.727 719.456 952.456 721.233 952.814C723.01 953.173 724.609 954.14 725.758 955.551C726.907 956.962 727.535 958.729 727.535 960.553C727.548 961.601 727.347 962.64 726.945 963.607C726.544 964.574 725.949 965.448 725.199 966.174Z" fill="#FF3131"/>
	<path d="M430.464 885.909C428.688 881.346 426.437 876.984 423.749 872.897L413.68 883.029L380.593 916.322L360.955 896.605L351.136 886.681L341.326 896.605L312.248 925.812C309.748 916.348 309.763 906.388 312.292 896.931C314.82 887.475 319.773 878.852 326.655 871.927C333.537 865.003 342.106 860.019 351.504 857.475C360.902 854.93 370.799 854.915 380.205 857.431L360.955 876.801L370.774 886.681L394.05 863.26L404.119 853.128C390.777 844.248 374.796 840.28 358.881 841.896C342.965 843.511 328.093 850.611 316.783 861.993C305.472 873.375 298.418 888.34 296.814 904.355C295.21 920.37 299.155 936.451 307.981 949.875L318.05 939.743L351.136 906.442L380.593 936.083L385.498 931.147L390.412 926.202L419.481 896.952C421.98 906.417 421.965 916.376 419.436 925.833C416.907 935.289 411.955 943.912 405.073 950.837C398.192 957.762 389.623 962.747 380.226 965.293C370.828 967.838 360.93 967.855 351.524 965.342L370.774 945.963L360.955 936.083L337.679 959.504L327.619 969.636C331.679 972.34 336.014 974.603 340.55 976.385C353.115 981.332 366.841 982.487 380.047 979.707C393.254 976.927 405.369 970.334 414.91 960.734C424.451 951.133 431.004 938.943 433.766 925.653C436.529 912.364 435.381 898.552 430.464 885.909Z" fill="#FF3131"/>
	<path d="M514.614 8.02695C647.056 8.64153 753.071 117.115 752.457 251.709C752.15 382.922 642.447 489.859 509.39 488.937C376.947 488.015 270.625 379.234 271.547 245.255C272.469 113.428 381.25 7.41237 514.614 8.02695ZM512.155 303.333C539.197 249.558 564.702 198.547 590.207 147.844C594.509 139.547 588.364 139.855 583.14 139.855C535.51 139.855 488.187 139.855 440.557 139.855C431.338 139.855 431.645 143.235 435.025 149.995C460.223 199.469 485.421 249.865 512.155 303.333ZM620.936 189.943C620.014 189.636 619.093 189.636 618.171 189.329C591.744 242.183 565.624 295.037 538.89 347.583C533.973 357.109 538.275 357.417 545.957 357.417C567.468 357.109 588.978 356.802 610.181 357.417C619.4 357.724 620.936 353.729 620.936 345.432C620.629 293.807 620.936 241.875 620.936 189.943ZM405.833 190.558C404.911 190.865 403.989 190.865 403.067 191.172C403.067 243.719 403.067 296.266 403.067 348.505C403.067 356.802 407.369 357.417 413.822 357.417C434.411 357.109 454.692 356.802 475.281 357.417C486.958 357.724 489.723 355.573 483.885 344.203C465.447 308.557 447.624 272.297 429.494 236.037C421.197 220.979 413.515 205.922 405.833 190.558ZM393.541 93.7611C416.588 96.2194 617.249 95.6048 628.926 93.1465C574.228 42.1362 461.145 35.3758 393.541 93.7611ZM357.895 366.943C357.895 287.047 357.895 209.302 357.895 130.329C302.583 187.177 302.276 308.557 357.895 366.943ZM666.415 130.636C666.415 209.917 666.415 287.969 666.415 366.943C721.728 305.484 721.728 189.636 666.415 130.636ZM392.312 402.588C466.062 464.047 578.838 452.369 629.54 402.588C550.874 402.588 473.129 402.588 392.312 402.588Z" fill="#1D1B20"/>
</svg>
