<svg width="81" height="81" viewBox="0 0 81 81" fill="none" xmlns="http://www.w3.org/2000/svg">
	<path d="M41.3217 0.432022C63.3533 0.534256 80.9888 18.5787 80.8865 40.968C80.8354 62.7951 62.5865 80.584 40.4527 80.4306C18.4212 80.2772 0.734601 62.1817 0.887953 39.8946C1.0413 17.9653 19.1368 0.329787 41.3217 0.432022ZM40.9128 49.5557C45.4111 40.6102 49.6539 32.1247 53.8966 23.6904C54.6122 22.3102 53.5899 22.3613 52.7209 22.3613C44.7977 22.3613 36.9256 22.3613 29.0025 22.3613C27.4689 22.3613 27.5201 22.9236 28.0824 24.0482C32.274 32.2781 36.4656 40.6613 40.9128 49.5557ZM59.0083 30.6935C58.855 30.6423 58.7016 30.6423 58.5483 30.5912C54.1522 39.3834 49.8072 48.1756 45.36 56.9166C44.5421 58.5013 45.2578 58.5524 46.5357 58.5524C50.1139 58.5013 53.6921 58.4502 57.2192 58.5524C58.7527 58.6035 59.0083 57.939 59.0083 56.5588C58.9572 47.9711 59.0083 39.3323 59.0083 30.6935ZM23.2262 30.7957C23.0729 30.8468 22.9195 30.8468 22.7662 30.8979C22.7662 39.639 22.7662 48.3801 22.7662 57.07C22.7662 58.4502 23.4818 58.5524 24.5553 58.5524C27.9801 58.5013 31.3539 58.4502 34.7787 58.5524C36.7212 58.6035 37.1812 58.2457 36.21 56.3543C33.143 50.4247 30.1782 44.3929 27.1622 38.3611C25.7821 35.8563 24.5041 33.3516 23.2262 30.7957ZM21.1815 14.6937C25.0153 15.1027 58.3949 15.0005 60.3374 14.5915C51.2385 6.10604 32.4273 4.98146 21.1815 14.6937ZM15.2519 60.137C15.2519 46.8465 15.2519 33.9139 15.2519 20.7767C6.0508 30.2334 5.99968 50.4247 15.2519 60.137ZM66.5737 20.8278C66.5737 34.0161 66.5737 46.9999 66.5737 60.137C75.7748 49.9136 75.7748 30.6423 66.5737 20.8278ZM20.9771 66.0666C33.2452 76.2901 52.0052 74.3476 60.4396 66.0666C47.3536 66.0666 34.4209 66.0666 20.9771 66.0666Z" fill="#1D1B20"/>
</svg>
