<svg width="209" height="209" viewBox="0 0 209 209" fill="none" xmlns="http://www.w3.org/2000/svg">
<path d="M101.525 177.221C101.916 177.211 102.304 177.283 102.666 177.433C103.027 177.583 103.354 177.807 103.624 178.091C104.187 178.671 104.468 179.474 104.467 180.498V185.359H102.107V180.846C102.12 180.651 102.092 180.455 102.026 180.271C101.959 180.087 101.855 179.919 101.72 179.778C101.59 179.654 101.437 179.557 101.269 179.493C101.102 179.429 100.924 179.399 100.745 179.405C100.548 179.395 100.35 179.426 100.166 179.497C99.9819 179.568 99.8144 179.677 99.6746 179.817C99.4112 180.092 99.2811 180.498 99.2811 181.036V185.359H96.9136V174.815H99.2746V178.186C99.7462 177.543 100.496 177.222 101.525 177.221Z" fill="#071018"/>
<path d="M112.6 184.37C111.81 185.149 110.748 185.585 109.642 185.585C108.535 185.585 107.473 185.149 106.683 184.37C106.29 183.985 105.981 183.523 105.774 183.012C105.566 182.501 105.466 181.953 105.478 181.402C105.467 180.85 105.568 180.301 105.777 179.79C105.985 179.279 106.296 178.817 106.689 178.432C107.272 177.842 108.017 177.44 108.827 177.276C109.638 177.113 110.479 177.195 111.243 177.514C112.007 177.832 112.659 178.371 113.118 179.064C113.577 179.756 113.82 180.57 113.818 181.402C113.828 181.954 113.726 182.503 113.516 183.013C113.307 183.524 112.995 183.986 112.6 184.37ZM108.351 182.752C108.698 183.088 109.16 183.275 109.642 183.275C110.123 183.275 110.585 183.088 110.932 182.752C111.105 182.575 111.24 182.364 111.329 182.133C111.419 181.902 111.46 181.655 111.451 181.407C111.46 181.159 111.419 180.911 111.33 180.68C111.24 180.448 111.105 180.237 110.932 180.06C110.585 179.725 110.123 179.538 109.642 179.538C109.161 179.538 108.698 179.725 108.351 180.06C108.178 180.237 108.043 180.448 107.954 180.68C107.864 180.911 107.823 181.159 107.833 181.407C107.823 181.655 107.865 181.902 107.954 182.133C108.043 182.364 108.178 182.575 108.351 182.752Z" fill="#071018"/>
<path d="M117.287 178.852C117.42 178.361 117.739 177.944 118.176 177.688C118.62 177.419 119.13 177.279 119.648 177.284V179.969C119.093 179.871 118.521 179.974 118.035 180.262C117.535 180.552 117.286 181.056 117.287 181.774V185.359H114.926V177.441H117.287V178.852Z" fill="#071018"/>
<path d="M125.832 177.441H128.191V185.359H125.832V184.614C125.358 185.259 124.608 185.581 123.581 185.581C123.191 185.592 122.802 185.52 122.44 185.371C122.078 185.221 121.751 184.998 121.48 184.714C120.919 184.135 120.638 183.333 120.638 182.307V177.441H122.999V181.956C122.987 182.151 123.014 182.347 123.081 182.53C123.147 182.714 123.25 182.882 123.385 183.024C123.516 183.148 123.671 183.245 123.84 183.309C124.008 183.373 124.188 183.402 124.368 183.395C124.565 183.405 124.762 183.374 124.946 183.303C125.13 183.233 125.298 183.124 125.438 182.985C125.701 182.71 125.832 182.303 125.832 181.764V177.441Z" fill="#071018"/>
<path d="M131.856 179.753C131.856 179.911 131.989 180.04 132.256 180.141C132.573 180.257 132.896 180.358 133.224 180.442C133.611 180.545 133.991 180.675 134.362 180.829C134.75 180.997 135.084 181.268 135.329 181.613C135.605 182.015 135.744 182.496 135.723 182.984C135.723 183.838 135.409 184.485 134.78 184.923C134.151 185.362 133.374 185.58 132.45 185.578C130.793 185.578 129.666 184.949 129.067 183.693L131.113 182.521C131.322 183.145 131.768 183.457 132.45 183.456C133.018 183.456 133.301 183.292 133.3 182.965C133.3 182.801 133.167 182.673 132.898 182.569C132.583 182.447 132.261 182.344 131.934 182.259C131.545 182.156 131.165 182.024 130.796 181.864C130.41 181.697 130.074 181.433 129.82 181.096C129.545 180.727 129.404 180.274 129.419 179.813C129.419 178.99 129.715 178.351 130.308 177.897C130.944 177.43 131.716 177.19 132.503 177.217C133.123 177.21 133.735 177.359 134.282 177.652C134.819 177.945 135.265 178.38 135.572 178.91L133.557 180.003C133.313 179.544 132.966 179.314 132.516 179.314C132.076 179.314 131.856 179.458 131.856 179.753Z" fill="#071018"/>
<path d="M99.1484 192.945C99.1484 193.108 99.2834 193.233 99.5501 193.332C99.87 193.449 100.196 193.55 100.526 193.633C100.913 193.737 101.293 193.867 101.664 194.021C102.052 194.188 102.386 194.459 102.631 194.805C102.91 195.205 103.051 195.686 103.033 196.174C103.033 197.031 102.718 197.677 102.088 198.115C101.459 198.552 100.682 198.77 99.7598 198.769C98.1034 198.769 96.9755 198.142 96.376 196.886L98.4216 195.715C98.6308 196.339 99.0769 196.65 99.7598 196.649C100.326 196.649 100.61 196.485 100.61 196.158C100.61 195.994 100.475 195.867 100.209 195.762C99.8924 195.64 99.5693 195.537 99.2411 195.453C98.8523 195.35 98.4718 195.218 98.1029 195.057C97.7169 194.891 97.3807 194.626 97.1272 194.29C96.8524 193.92 96.7108 193.468 96.7256 193.007C96.7256 192.183 97.0221 191.545 97.615 191.091C98.2506 190.623 99.0235 190.384 99.8102 190.41C100.43 190.403 101.041 190.553 101.588 190.845C102.124 191.138 102.571 191.573 102.879 192.104L100.864 193.197C100.611 192.732 100.26 192.5 99.8102 192.5C99.3696 192.501 99.1484 192.65 99.1484 192.945Z" fill="#FF3131"/>
<path d="M108.568 192.913H106.942V195.716C106.942 196.031 107.069 196.233 107.319 196.316C107.569 196.399 107.986 196.427 108.563 196.396V198.549C107.07 198.706 106.035 198.561 105.459 198.114C104.882 197.667 104.594 196.867 104.594 195.716V192.913H103.333V190.632H104.594V189.132L106.953 188.42V190.635H108.579L108.568 192.913Z" fill="#FF3131"/>
<path d="M115.152 190.633H117.511V198.55H115.152V197.804C114.68 198.449 113.93 198.771 112.901 198.769C112.51 198.78 112.121 198.707 111.759 198.557C111.398 198.408 111.071 198.183 110.8 197.899C110.239 197.318 109.958 196.515 109.958 195.492V190.633H112.319V195.145C112.306 195.341 112.334 195.537 112.4 195.721C112.466 195.905 112.57 196.074 112.704 196.215C112.836 196.34 112.991 196.436 113.159 196.5C113.328 196.564 113.508 196.593 113.688 196.587C113.885 196.597 114.082 196.566 114.267 196.495C114.451 196.424 114.618 196.315 114.758 196.174C115.02 195.901 115.152 195.494 115.152 194.956V190.633Z" fill="#FF3131"/>
<path d="M124.733 188.007H127.092V198.55H124.733V197.804C124.177 198.449 123.395 198.771 122.388 198.77C121.884 198.774 121.385 198.668 120.925 198.459C120.466 198.25 120.057 197.943 119.728 197.559C118.993 196.75 118.599 195.686 118.627 194.591C118.599 193.495 118.993 192.431 119.728 191.621C120.058 191.237 120.466 190.93 120.926 190.721C121.385 190.512 121.884 190.406 122.388 190.41C123.394 190.41 124.176 190.732 124.733 191.376V188.007ZM121.507 196.004C121.878 196.341 122.36 196.527 122.86 196.527C123.359 196.527 123.841 196.341 124.212 196.004C124.548 195.612 124.733 195.112 124.733 194.595C124.733 194.077 124.548 193.577 124.212 193.185C123.841 192.849 123.359 192.663 122.86 192.663C122.36 192.663 121.878 192.849 121.507 193.185C121.172 193.578 120.988 194.078 120.988 194.595C120.988 195.112 121.172 195.612 121.507 196.004Z" fill="#FF3131"/>
<path d="M131.007 189.516C130.776 189.747 130.473 189.89 130.149 189.921C129.825 189.952 129.5 189.869 129.23 189.686C128.959 189.504 128.761 189.232 128.667 188.918C128.573 188.605 128.591 188.268 128.716 187.965C128.841 187.663 129.067 187.414 129.354 187.26C129.642 187.106 129.973 187.057 130.292 187.121C130.612 187.186 130.899 187.36 131.105 187.613C131.311 187.867 131.424 188.184 131.424 188.512C131.426 188.699 131.39 188.885 131.319 189.057C131.247 189.23 131.141 189.386 131.007 189.516ZM128.829 198.55V190.632H131.188V198.55H128.829Z" fill="#FF3131"/>
<path d="M139.427 197.559C138.636 198.336 137.574 198.77 136.469 198.77C135.363 198.77 134.302 198.336 133.51 197.559C132.734 196.769 132.298 195.702 132.298 194.59C132.298 193.479 132.734 192.412 133.51 191.622C134.093 191.032 134.837 190.629 135.648 190.466C136.458 190.302 137.299 190.385 138.063 190.703C138.827 191.021 139.48 191.561 139.938 192.253C140.397 192.945 140.641 193.759 140.639 194.591C140.65 195.143 140.548 195.691 140.339 196.202C140.131 196.713 139.821 197.175 139.427 197.559ZM135.178 195.936C135.525 196.272 135.987 196.46 136.469 196.46C136.95 196.46 137.412 196.272 137.759 195.936C138.092 195.568 138.277 195.088 138.277 194.59C138.277 194.093 138.092 193.613 137.759 193.245C137.412 192.91 136.949 192.723 136.469 192.723C135.988 192.723 135.525 192.91 135.178 193.245C134.844 193.612 134.658 194.092 134.658 194.59C134.658 195.089 134.844 195.569 135.178 195.936Z" fill="#FF3131"/>
<path d="M143.738 198.326C143.495 198.568 143.176 198.717 142.835 198.749C142.495 198.78 142.154 198.693 141.871 198.5C141.587 198.307 141.379 198.022 141.281 197.692C141.183 197.363 141.202 197.009 141.334 196.692C141.466 196.374 141.703 196.113 142.005 195.951C142.307 195.79 142.655 195.739 142.99 195.806C143.325 195.874 143.627 196.056 143.844 196.323C144.06 196.589 144.179 196.922 144.179 197.266C144.181 197.464 144.143 197.66 144.067 197.842C143.992 198.024 143.88 198.189 143.738 198.326Z" fill="#FF3131"/>
<path d="M88.1441 183.188C87.8091 182.327 87.3845 181.504 86.8774 180.733L84.9782 182.644L78.7373 188.924L75.0331 185.205L73.181 183.333L71.3306 185.205L65.8459 190.714C65.3743 188.929 65.3772 187.05 65.8541 185.267C66.331 183.483 67.2653 181.856 68.5633 180.55C69.8614 179.244 71.4777 178.304 73.2504 177.824C75.0231 177.344 76.89 177.342 78.6641 177.816L75.0331 181.47L76.8852 183.333L81.2756 178.916L83.1749 177.004C80.6583 175.33 77.6439 174.581 74.6418 174.886C71.6398 175.191 68.8347 176.53 66.7012 178.677C64.5678 180.823 63.2372 183.646 62.9346 186.667C62.6321 189.687 63.3762 192.721 65.041 195.253L66.9402 193.342L73.181 187.06L78.7373 192.651L79.6626 191.72L80.5894 190.788L86.0725 185.27C86.5439 187.056 86.5409 188.934 86.064 190.718C85.587 192.501 84.6528 194.128 83.3548 195.434C82.0568 196.74 80.4406 197.68 78.668 198.161C76.8954 198.641 75.0285 198.644 73.2542 198.17L76.8852 194.515L75.0331 192.651L70.6428 197.069L68.7451 198.98C69.511 199.49 70.3287 199.917 71.1842 200.253C73.5543 201.186 76.1433 201.404 78.6344 200.879C81.1255 200.355 83.4107 199.111 85.2103 197.301C87.0099 195.49 88.2459 193.191 88.7669 190.684C89.288 188.177 89.0716 185.572 88.1441 183.188Z" fill="#FF3131"/>
<path d="M65.9995 155.211H69.6567C70.5782 155.211 71.3509 155.531 71.9749 156.171C72.5988 156.811 72.9108 157.599 72.9108 158.534C72.9108 159.47 72.5988 160.257 71.9749 160.897C71.3509 161.537 70.5782 161.857 69.6567 161.857H67.3386V165.55H65.9995V155.211ZM67.3386 160.572H69.6567C70.223 160.572 70.6838 160.38 71.039 159.996C71.4037 159.593 71.5861 159.105 71.5861 158.534C71.5861 157.943 71.4037 157.456 71.039 157.072C70.6742 156.688 70.2134 156.496 69.6567 156.496H67.3386V160.572Z" fill="#747079"/>
<path d="M79.8905 164.619C79.161 165.368 78.2635 165.742 77.198 165.742C76.1325 165.742 75.235 165.368 74.5055 164.619C73.776 163.871 73.4112 162.95 73.4112 161.857C73.4112 160.764 73.776 159.844 74.5055 159.095C75.235 158.347 76.1325 157.973 77.198 157.973C78.2635 157.973 79.161 158.347 79.8905 159.095C80.6296 159.854 80.9992 160.774 80.9992 161.857C80.9992 162.941 80.6296 163.861 79.8905 164.619ZM77.198 164.487C77.9179 164.487 78.5226 164.235 79.0122 163.733C79.5017 163.231 79.7465 162.606 79.7465 161.857C79.7465 161.109 79.5017 160.484 79.0122 159.982C78.5226 159.479 77.9179 159.228 77.198 159.228C76.4877 159.228 75.8877 159.479 75.3982 159.982C74.9086 160.484 74.6639 161.109 74.6639 161.857C74.6639 162.606 74.9086 163.231 75.3982 163.733C75.8877 164.235 76.4877 164.487 77.198 164.487Z" fill="#747079"/>
<path d="M89.0915 163.792L90.6754 158.165H91.9856L89.7539 165.55H88.4724L86.7878 160.085L85.1032 165.55H83.8217L81.59 158.165H82.9002L84.484 163.778L86.1831 158.165H87.3925L89.0915 163.792Z" fill="#747079"/>
<path d="M99.9047 162.448H93.8718C93.9966 163.098 94.2894 163.61 94.7501 163.984C95.2109 164.349 95.7868 164.531 96.4779 164.531C97.4282 164.531 98.1193 164.171 98.5513 163.453L99.6168 164.073C98.9065 165.186 97.8506 165.742 96.4491 165.742C95.3165 165.742 94.3854 165.378 93.6558 164.649C92.9455 163.901 92.5904 162.97 92.5904 161.857C92.5904 160.735 92.9407 159.809 93.6414 159.081C94.3422 158.342 95.2493 157.973 96.3627 157.973C97.4186 157.973 98.2777 158.357 98.9401 159.125C99.612 159.873 99.9479 160.789 99.9479 161.872C99.9479 162.059 99.9335 162.251 99.9047 162.448ZM96.3627 159.184C95.7004 159.184 95.1437 159.376 94.6925 159.76C94.251 160.144 93.9774 160.666 93.8718 161.326H98.6809C98.5753 160.646 98.3113 160.12 97.889 159.745C97.4666 159.371 96.9579 159.184 96.3627 159.184Z" fill="#747079"/>
<path d="M102.641 158.165V159.406C103.053 158.49 103.802 158.032 104.887 158.032V159.376C104.272 159.347 103.744 159.514 103.303 159.878C102.861 160.243 102.641 160.828 102.641 161.636V165.55H101.388V158.165H102.641Z" fill="#747079"/>
<path d="M112.63 162.448H106.597C106.722 163.098 107.015 163.61 107.475 163.984C107.936 164.349 108.512 164.531 109.203 164.531C110.153 164.531 110.845 164.171 111.276 163.453L112.342 164.073C111.632 165.186 110.576 165.742 109.174 165.742C108.042 165.742 107.111 165.378 106.381 164.649C105.671 163.901 105.316 162.97 105.316 161.857C105.316 160.735 105.666 159.809 106.367 159.081C107.067 158.342 107.974 157.973 109.088 157.973C110.144 157.973 111.003 158.357 111.665 159.125C112.337 159.873 112.673 160.789 112.673 161.872C112.673 162.059 112.659 162.251 112.63 162.448ZM109.088 159.184C108.426 159.184 107.869 159.376 107.418 159.76C106.976 160.144 106.703 160.666 106.597 161.326H111.406C111.3 160.646 111.036 160.12 110.614 159.745C110.192 159.371 109.683 159.184 109.088 159.184Z" fill="#747079"/>
<path d="M120.06 159.435V155.211H121.313V165.55H120.06V164.28C119.446 165.255 118.539 165.742 117.339 165.742C116.321 165.742 115.462 165.368 114.761 164.619C114.051 163.861 113.696 162.941 113.696 161.857C113.696 160.784 114.051 159.868 114.761 159.11C115.472 158.352 116.331 157.973 117.339 157.973C118.539 157.973 119.446 158.46 120.06 159.435ZM117.497 164.501C118.227 164.501 118.836 164.25 119.326 163.748C119.815 163.226 120.06 162.596 120.06 161.857C120.06 161.109 119.815 160.484 119.326 159.982C118.836 159.47 118.227 159.214 117.497 159.214C116.777 159.214 116.172 159.47 115.683 159.982C115.193 160.484 114.949 161.109 114.949 161.857C114.949 162.596 115.193 163.226 115.683 163.748C116.172 164.25 116.777 164.501 117.497 164.501Z" fill="#747079"/>
<path d="M130.784 157.973C131.792 157.973 132.651 158.352 133.361 159.11C134.072 159.868 134.427 160.784 134.427 161.857C134.427 162.941 134.072 163.861 133.361 164.619C132.661 165.368 131.802 165.742 130.784 165.742C129.594 165.742 128.687 165.255 128.063 164.28V165.55H126.81V155.211H128.063V159.435C128.687 158.46 129.594 157.973 130.784 157.973ZM130.626 164.501C131.346 164.501 131.95 164.25 132.44 163.748C132.929 163.226 133.174 162.596 133.174 161.857C133.174 161.109 132.929 160.484 132.44 159.982C131.95 159.47 131.346 159.214 130.626 159.214C129.896 159.214 129.287 159.47 128.797 159.982C128.308 160.484 128.063 161.109 128.063 161.857C128.063 162.596 128.308 163.226 128.797 163.748C129.287 164.25 129.896 164.501 130.626 164.501Z" fill="#747079"/>
<path d="M138.592 163.955L140.665 158.165H142.004L139.067 166.008C138.75 166.845 138.314 167.48 137.757 167.913C137.21 168.356 136.581 168.553 135.871 168.504V167.308C136.754 167.377 137.402 166.874 137.815 165.801L137.944 165.52L134.805 158.165H136.144L138.592 163.955Z" fill="#747079"/>
<path d="M104.002 3.20508C135.485 3.2051 161.006 28.725 161.006 60.2061C161.006 91.6873 135.485 117.208 104.002 117.208C72.5202 117.208 46.9985 91.6873 46.9985 60.2061C46.9988 28.725 72.5203 3.20508 104.002 3.20508ZM104.002 11.6494C77.1843 11.6494 55.4441 33.3889 55.4438 60.2061C55.4438 87.0234 77.1842 108.764 104.002 108.764C130.821 108.764 152.561 87.0234 152.561 60.2061C152.561 33.3889 130.821 11.6494 104.002 11.6494ZM134.616 90.8193H73.3892V82.374H134.616V90.8193ZM81.8345 29.5947L104.002 65.4844L126.17 29.5947H134.617V73.9287H126.171V45.5742L108.225 73.9287H99.7798L81.8345 45.5762V73.9287H73.3892V29.5947H81.8345Z" fill="url(#paint0_linear_333_46)"/>
<defs>
<linearGradient id="paint0_linear_333_46" x1="40.5308" y1="7.27661" x2="164.395" y2="113.82" gradientUnits="userSpaceOnUse">
<stop stop-color="#8E56E9"/>
<stop offset="1" stop-color="#6A1EE5"/>
</linearGradient>
</defs>
</svg>
