<svg width="82" height="82" viewBox="0 0 82 82" fill="none" xmlns="http://www.w3.org/2000/svg">
<g clip-path="url(#clip0_54025_28520)">
<path d="M41.4444 -0.000401169C64.0272 0.104391 82.1038 18.6002 81.9991 41.5498C81.9467 63.9229 63.2412 82.1568 40.5537 81.9996C17.9709 81.8424 -0.158127 63.2942 -0.000938631 40.4494C0.15625 17.9715 18.7045 -0.105194 41.4444 -0.000401169ZM41.0253 50.3523C45.6361 41.183 49.985 32.4852 54.3339 23.8399C55.0674 22.4252 54.0195 22.4776 53.1288 22.4776C45.0074 22.4776 36.9384 22.4776 28.8169 22.4776C27.2451 22.4776 27.2975 23.0539 27.8738 24.2066C32.1703 32.6424 36.4668 41.2354 41.0253 50.3523ZM59.5735 31.0181C59.4163 30.9657 59.2591 30.9657 59.1019 30.9133C54.5959 39.9255 50.1422 48.9376 45.5837 57.8974C44.7454 59.5216 45.4789 59.574 46.7888 59.574C50.4566 59.5216 54.1243 59.4692 57.7396 59.574C59.3115 59.6264 59.5735 58.9453 59.5735 57.5306C59.5211 48.728 59.5735 39.8731 59.5735 31.0181ZM22.8962 31.1229C22.739 31.1753 22.5818 31.1753 22.4246 31.2277C22.4246 40.1875 22.4246 49.1472 22.4246 58.0546C22.4246 59.4692 23.1582 59.574 24.2585 59.574C27.769 59.5216 31.2272 59.4692 34.7377 59.574C36.7288 59.6264 37.2003 59.2597 36.2048 57.321C33.061 51.243 30.0221 45.0603 26.9307 38.8776C25.516 36.3101 24.2061 33.7427 22.8962 31.1229ZM20.8003 14.6181C24.7301 15.0373 58.9447 14.9325 60.9358 14.5133C51.6093 5.81557 32.3275 4.66286 20.8003 14.6181ZM14.7224 61.1983C14.7224 47.5753 14.7224 34.3191 14.7224 20.8533C5.29107 30.5466 5.23868 51.243 14.7224 61.1983ZM67.3281 20.9057C67.3281 34.4239 67.3281 47.7325 67.3281 61.1983C76.7594 50.7191 76.7594 30.9657 67.3281 20.9057ZM20.5908 67.2763C33.1658 77.7555 52.3952 75.7645 61.0406 67.2763C47.6272 67.2763 34.3709 67.2763 20.5908 67.2763Z" fill="#1D1B20"/>
</g>
<defs>
<clipPath id="clip0_54025_28520">
<rect width="82" height="82" fill="white"/>
</clipPath>
</defs>
</svg>
