<svg width="24" height="24" viewBox="0 0 24 24" fill="none" xmlns="http://www.w3.org/2000/svg">
	<path d="M12.1304 0.000132678C18.7399 0.0308031 24.0305 5.44413 23.9999 12.1609C23.9845 18.7091 18.5099 24.0457 11.8697 23.9997C5.26027 23.9537 -0.0457086 18.525 0.00029692 11.8389C0.0463025 5.2601 5.47496 -0.0305377 12.1304 0.000132678ZM12.0078 14.7372C13.3572 12.0536 14.6301 9.50795 15.9029 6.97764C16.1176 6.56359 15.8109 6.57893 15.5502 6.57893C13.1732 6.57893 10.8116 6.57893 8.43465 6.57893C7.9746 6.57893 7.98993 6.74762 8.15862 7.08499C9.4161 9.55396 10.6736 12.0689 12.0078 14.7372ZM17.4364 9.07857C17.3904 9.06323 17.3444 9.06323 17.2984 9.0479C15.9796 11.6855 14.6761 14.3232 13.3419 16.9455C13.0965 17.4209 13.3112 17.4362 13.6946 17.4362C14.7681 17.4209 15.8415 17.4056 16.8997 17.4362C17.3597 17.4516 17.4364 17.2522 17.4364 16.8382C17.4211 14.2619 17.4364 11.6702 17.4364 9.07857ZM6.70177 9.10924C6.65577 9.12457 6.60976 9.12457 6.56376 9.13991C6.56376 11.7622 6.56376 14.3845 6.56376 16.9915C6.56376 17.4056 6.77845 17.4362 7.10049 17.4362C8.12795 17.4209 9.14007 17.4056 10.1675 17.4362C10.7503 17.4516 10.8883 17.3442 10.5969 16.7768C9.6768 14.9979 8.78736 13.1884 7.88258 11.3788C7.46853 10.6274 7.08515 9.876 6.70177 9.10924ZM6.08837 4.27865C7.23851 4.40133 17.2524 4.37066 17.8351 4.24798C15.1055 1.70234 9.46211 1.36496 6.08837 4.27865ZM4.30948 17.9116C4.30948 13.9245 4.30948 10.0447 4.30948 6.10354C1.54915 8.94055 1.53382 14.9979 4.30948 17.9116ZM19.706 6.11887C19.706 10.0754 19.706 13.9705 19.706 17.9116C22.4663 14.8446 22.4663 9.06323 19.706 6.11887ZM6.02703 19.6905C9.70747 22.7576 15.3355 22.1748 17.8658 19.6905C13.94 19.6905 10.0602 19.6905 6.02703 19.6905Z" fill="#1D1B20"/>
</svg>
