<svg width="48" height="48" viewBox="0 0 48 48" fill="none" xmlns="http://www.w3.org/2000/svg">
	<g clip-path="url(#clip0_1577_124)">
		<path d="M48 0H0V48H48V0Z" fill="white"/>
		<path d="M24.1304 12.0001C30.7399 12.0308 36.0305 17.4441 35.9999 24.1609C35.9845 30.7091 30.5099 36.0457 23.8697 35.9997C17.2603 35.9537 11.9543 30.525 12.0003 23.8389C12.0463 17.2601 17.475 11.9695 24.1304 12.0001ZM24.0078 26.7372C25.3572 24.0536 26.6301 21.508 27.9029 18.9776C28.1176 18.5636 27.8109 18.5789 27.5502 18.5789C25.1732 18.5789 22.8116 18.5789 20.4347 18.5789C19.9746 18.5789 19.9899 18.7476 20.1586 19.085C21.4161 21.554 22.6736 24.0689 24.0078 26.7372ZM29.4364 21.0786C29.3904 21.0632 29.3444 21.0632 29.2984 21.0479C27.9796 23.6855 26.6761 26.3232 25.3419 28.9455C25.0965 29.4209 25.3112 29.4362 25.6946 29.4362C26.7681 29.4209 27.8415 29.4056 28.8997 29.4362C29.3597 29.4516 29.4364 29.2522 29.4364 28.8382C29.4211 26.2619 29.4364 23.6702 29.4364 21.0786ZM18.7018 21.1092C18.6558 21.1246 18.6098 21.1246 18.5638 21.1399C18.5638 23.7622 18.5638 26.3845 18.5638 28.9915C18.5638 29.4056 18.7785 29.4362 19.1005 29.4362C20.1279 29.4209 21.1401 29.4056 22.1675 29.4362C22.7503 29.4516 22.8883 29.3442 22.5969 28.7768C21.6768 26.9979 20.7874 25.1884 19.8826 23.3788C19.4685 22.6274 19.0852 21.876 18.7018 21.1092ZM18.0884 16.2787C19.2385 16.4013 29.2524 16.3707 29.8351 16.248C27.1055 13.7023 21.4621 13.365 18.0884 16.2787ZM16.3095 29.9116C16.3095 25.9245 16.3095 22.0447 16.3095 18.1035C13.5492 20.9405 13.5338 26.9979 16.3095 29.9116ZM31.706 18.1189C31.706 22.0754 31.706 25.9705 31.706 29.9116C34.4663 26.8446 34.4663 21.0632 31.706 18.1189ZM18.027 31.6905C21.7075 34.7576 27.3355 34.1748 29.8658 31.6905C25.94 31.6905 22.0602 31.6905 18.027 31.6905Z" fill="#1D1B20"/>
	</g>
	<defs>
		<clipPath id="clip0_1577_124">
			<rect width="48" height="48" fill="white"/>
		</clipPath>
	</defs>
</svg>
