<svg width="24" height="24" viewBox="0 0 24 24" fill="none" xmlns="http://www.w3.org/2000/svg">
<g clip-path="url(#clip0_54016_28332)">
<path d="M12.13 -0.000141978C18.7396 0.030529 24.0304 5.44395 23.9997 12.1609C23.9844 18.7091 18.5096 24.0459 11.8693 23.9999C5.25975 23.9539 -0.0463198 18.5251 -0.000313427 11.8388C0.045693 5.25992 5.47445 -0.0308129 12.13 -0.000141978ZM12.0074 14.7372C13.3569 12.0535 14.6297 9.50785 15.9026 6.97749C16.1173 6.56344 15.8105 6.57877 15.5498 6.57877C13.1728 6.57877 10.8112 6.57877 8.43419 6.57877C7.97413 6.57877 7.98946 6.74746 8.15815 7.08484C9.41566 9.55385 10.6732 12.0689 12.0074 14.7372ZM17.4361 9.07845C17.3901 9.06312 17.3441 9.06312 17.2981 9.04778C15.9792 11.6855 14.6757 14.3232 13.3415 16.9455C13.0962 17.4209 13.3109 17.4363 13.6943 17.4363C14.7677 17.4209 15.8412 17.4056 16.8994 17.4363C17.3594 17.4516 17.4361 17.2523 17.4361 16.8382C17.4208 14.2618 17.4361 11.6701 17.4361 9.07845ZM6.70128 9.10912C6.65528 9.12446 6.60927 9.12446 6.56326 9.13979C6.56326 11.7622 6.56326 14.3845 6.56326 16.9916C6.56326 17.4056 6.77796 17.4363 7.10001 17.4363C8.12748 17.4209 9.13962 17.4056 10.1671 17.4363C10.7498 17.4516 10.8879 17.3443 10.5965 16.7769C9.67636 14.9979 8.78691 13.1884 7.88211 11.3788C7.46806 10.6273 7.08467 9.8759 6.70128 9.10912ZM6.08787 4.27845C7.23803 4.40114 17.2521 4.37047 17.8348 4.24778C15.1051 1.70209 9.46167 1.36471 6.08787 4.27845ZM4.30895 17.9117C4.30895 13.9245 4.30895 10.0446 4.30895 6.10337C1.54857 8.94043 1.53323 14.9979 4.30895 17.9117ZM19.7058 6.11871C19.7058 10.0753 19.7058 13.9705 19.7058 17.9117C22.4661 14.8446 22.4661 9.06312 19.7058 6.11871ZM6.02652 19.6906C9.70704 22.7577 15.3351 22.1749 17.8655 19.6906C13.9396 19.6906 10.0598 19.6906 6.02652 19.6906Z" fill="#1D1B20"/>
</g>
<defs>
<clipPath id="clip0_54016_28332">
<rect width="24" height="24" fill="white"/>
</clipPath>
</defs>
</svg>
